M48
; DRILL file {KiCad (6.0.10)} date Mon Jan 30 21:59:21 2023
; FORMAT={-:-/ absolute / inch / decimal}
; #@! TF.CreationDate,2023-01-30T21:59:21-05:00
; #@! TF.GenerationSoftware,Kicad,Pcbnew,(6.0.10)
; #@! TF.FileFunction,Plated,1,2,PTH
FMAT,2
INCH
; #@! TA.AperFunction,Plated,PTH,ViaDrill
T1C0.0157
; #@! TA.AperFunction,Plated,PTH,ComponentDrill
T2C0.0236
; #@! TA.AperFunction,Plated,PTH,ComponentDrill
T3C0.0315
; #@! TA.AperFunction,Plated,PTH,ComponentDrill
T4C0.0394
; #@! TA.AperFunction,Plated,PTH,ComponentDrill
T5C0.0433
; #@! TA.AperFunction,Plated,PTH,ComponentDrill
T6C0.1063
%
G90
G05
T1
X4.465Y-3.645
X4.5056Y-3.645
X4.545Y-3.645
X4.61Y-3.27
X4.65Y-3.52
X4.672Y-3.356
X4.9228Y-3.29
X4.9362Y-3.4497
X4.9658Y-3.42
X4.97Y-3.575
X5.045Y-3.845
X5.075Y-4.16
X5.12Y-3.845
X5.192Y-3.2515
X5.195Y-3.845
X5.2562Y-3.4688
X5.2756Y-3.6122
X5.3405Y-3.3874
X5.3515Y-3.6034
X5.37Y-3.78
X5.38Y-3.71
X5.3937Y-3.4646
X5.421Y-3.4355
X5.465Y-3.62
X5.536Y-3.3805
X5.5515Y-4.22
X5.5629Y-4.2971
X5.6Y-3.28
X5.6605Y-3.3005
X5.72Y-3.6
X5.765Y-4.455
X5.78Y-4.13
X5.91Y-3.53
X5.91Y-3.59
X5.97Y-3.72
X5.995Y-4.045
X6.043Y-3.2859
X6.0712Y-3.2568
X6.1Y-3.23
X6.11Y-3.73
X6.3518Y-3.4605
X6.3518Y-3.5055
X6.5021Y-3.2165
X6.565Y-4.09
X6.6318Y-3.4605
X6.6318Y-3.5055
X6.75Y-4.07
X6.8648Y-3.3745
X7.021Y-3.1555
X7.021Y-3.2005
X7.021Y-3.2505
X7.021Y-3.2955
X7.021Y-3.3405
X7.111Y-3.5355
X7.2575Y-3.7005
X7.2725Y-3.4139
X7.2725Y-3.4589
X7.2725Y-3.5039
X7.341Y-3.7005
X7.4149Y-3.5367
X7.4543Y-3.5367
X7.961Y-3.8555
X8.026Y-4.0855
X8.026Y-4.4105
X8.026Y-4.7355
X8.126Y-3.7855
T3
X4.4079Y-3.9433
X4.4079Y-4.022
X4.4079Y-4.1008
X4.4079Y-4.1795
X4.4079Y-4.2583
X4.4079Y-4.337
X4.4079Y-4.4157
X4.4079Y-4.4945
X4.4079Y-4.5732
X4.4079Y-4.652
X5.274Y-3.9433
X5.274Y-4.022
X5.274Y-4.1008
X5.274Y-4.1795
X5.274Y-4.2583
X5.274Y-4.337
X5.274Y-4.4157
X5.274Y-4.4945
X5.274Y-4.5732
X5.274Y-4.652
T4
X4.226Y-3.6855
X4.226Y-3.7855
X4.226Y-3.8855
X4.226Y-4.0355
X4.226Y-4.1355
X4.226Y-4.2355
X4.226Y-4.3855
X4.226Y-4.4855
X4.226Y-4.5855
X4.476Y-3.1355
X4.576Y-3.1355
X4.676Y-3.1355
X4.826Y-3.1355
X4.926Y-3.1355
X5.026Y-3.1355
X5.226Y-3.1355
X5.326Y-3.1355
X5.426Y-3.1355
X5.576Y-3.1355
X5.676Y-3.1355
X5.696Y-3.8427
X5.696Y-3.9427
X5.735Y-4.555
X5.776Y-3.1355
X5.796Y-3.8427
X5.796Y-3.9427
X5.835Y-4.555
X5.896Y-3.8427
X5.896Y-3.9427
X5.935Y-4.555
X5.9839Y-3.3861
X5.996Y-3.8427
X5.996Y-3.9427
X6.096Y-3.8427
X6.096Y-3.9427
X6.196Y-3.8427
X6.196Y-3.9427
X6.1961Y-3.1739
X6.296Y-3.8427
X6.296Y-3.9427
X6.396Y-3.8427
X6.396Y-3.9427
X6.496Y-3.8427
X6.496Y-3.9427
X6.596Y-3.8427
X6.596Y-3.9427
X6.696Y-3.8427
X6.696Y-3.9427
X6.796Y-3.8427
X6.796Y-3.9427
X6.896Y-3.8427
X6.896Y-3.9427
X6.996Y-3.8427
X6.996Y-3.9427
X7.096Y-3.8427
X7.096Y-3.9427
X7.196Y-3.8427
X7.196Y-3.9427
X7.216Y-4.6705
X7.216Y-4.7705
X7.296Y-3.8427
X7.296Y-3.9427
X7.316Y-4.6705
X7.316Y-4.7705
X7.396Y-3.8427
X7.396Y-3.9427
X7.416Y-4.6705
X7.416Y-4.7705
X7.496Y-3.8427
X7.496Y-3.9427
X7.516Y-4.6705
X7.516Y-4.7705
X7.596Y-3.8427
X7.596Y-3.9427
X8.226Y-3.6855
X8.226Y-3.7855
X8.226Y-3.8855
X8.226Y-4.0355
X8.226Y-4.1355
X8.226Y-4.2355
X8.226Y-4.3855
X8.226Y-4.4855
X8.226Y-4.5855
T5
X6.47Y-3.1299
X6.57Y-3.1299
X6.67Y-3.1299
X6.77Y-3.1299
X7.6274Y-3.3825
X7.6274Y-3.6385
X7.8046Y-3.3825
X7.8046Y-3.6385
T6
X7.5748Y-3.1732
X7.7717Y-3.1732
T2
G00X6.3421Y-4.7422
M15
G01X6.3421Y-4.7698
M16
G05
G00X6.3421Y-4.9233
M15
G01X6.3421Y-4.943
M16
G05
G00X6.7692Y-4.7422
M15
G01X6.7692Y-4.7698
M16
G05
G00X6.7692Y-4.9233
M15
G01X6.7692Y-4.943
M16
G05
T0
M30
