%TF.GenerationSoftware,KiCad,Pcbnew,(6.0.10)*%
%TF.CreationDate,2023-01-30T21:59:23-05:00*%
%TF.ProjectId,motherboard_2022_2023,6d6f7468-6572-4626-9f61-72645f323032,2*%
%TF.SameCoordinates,Original*%
%TF.FileFunction,Paste,Top*%
%TF.FilePolarity,Positive*%
%FSLAX46Y46*%
G04 Gerber Fmt 4.6, Leading zero omitted, Abs format (unit mm)*
G04 Created by KiCad (PCBNEW (6.0.10)) date 2023-01-30 21:59:23*
%MOMM*%
%LPD*%
G01*
G04 APERTURE LIST*
G04 Aperture macros list*
%AMRoundRect*
0 Rectangle with rounded corners*
0 $1 Rounding radius*
0 $2 $3 $4 $5 $6 $7 $8 $9 X,Y pos of 4 corners*
0 Add a 4 corners polygon primitive as box body*
4,1,4,$2,$3,$4,$5,$6,$7,$8,$9,$2,$3,0*
0 Add four circle primitives for the rounded corners*
1,1,$1+$1,$2,$3*
1,1,$1+$1,$4,$5*
1,1,$1+$1,$6,$7*
1,1,$1+$1,$8,$9*
0 Add four rect primitives between the rounded corners*
20,1,$1+$1,$2,$3,$4,$5,0*
20,1,$1+$1,$4,$5,$6,$7,0*
20,1,$1+$1,$6,$7,$8,$9,0*
20,1,$1+$1,$8,$9,$2,$3,0*%
G04 Aperture macros list end*
%ADD10RoundRect,0.218750X-0.256250X0.218750X-0.256250X-0.218750X0.256250X-0.218750X0.256250X0.218750X0*%
%ADD11R,0.340000X0.700000*%
%ADD12RoundRect,0.200000X-0.275000X0.200000X-0.275000X-0.200000X0.275000X-0.200000X0.275000X0.200000X0*%
%ADD13RoundRect,0.200000X0.275000X-0.200000X0.275000X0.200000X-0.275000X0.200000X-0.275000X-0.200000X0*%
%ADD14RoundRect,0.225000X-0.225000X-0.250000X0.225000X-0.250000X0.225000X0.250000X-0.225000X0.250000X0*%
%ADD15RoundRect,0.200000X-0.053033X0.335876X-0.335876X0.053033X0.053033X-0.335876X0.335876X-0.053033X0*%
%ADD16RoundRect,0.100000X-0.100000X0.637500X-0.100000X-0.637500X0.100000X-0.637500X0.100000X0.637500X0*%
%ADD17R,1.100000X2.000000*%
%ADD18RoundRect,0.225000X-0.250000X0.225000X-0.250000X-0.225000X0.250000X-0.225000X0.250000X0.225000X0*%
%ADD19C,3.200000*%
%ADD20R,1.000000X0.300000*%
%ADD21R,1.300000X1.650000*%
%ADD22RoundRect,0.225000X0.250000X-0.225000X0.250000X0.225000X-0.250000X0.225000X-0.250000X-0.225000X0*%
%ADD23RoundRect,0.150000X-0.625000X0.150000X-0.625000X-0.150000X0.625000X-0.150000X0.625000X0.150000X0*%
%ADD24RoundRect,0.250000X-0.650000X0.350000X-0.650000X-0.350000X0.650000X-0.350000X0.650000X0.350000X0*%
%ADD25RoundRect,0.218750X-0.218750X-0.256250X0.218750X-0.256250X0.218750X0.256250X-0.218750X0.256250X0*%
%ADD26RoundRect,0.200000X0.200000X0.275000X-0.200000X0.275000X-0.200000X-0.275000X0.200000X-0.275000X0*%
%ADD27R,0.450000X0.600000*%
%ADD28RoundRect,0.225000X0.225000X0.250000X-0.225000X0.250000X-0.225000X-0.250000X0.225000X-0.250000X0*%
%ADD29RoundRect,0.125000X-0.475000X-0.125000X0.475000X-0.125000X0.475000X0.125000X-0.475000X0.125000X0*%
%ADD30RoundRect,0.075000X0.075000X-0.350000X0.075000X0.350000X-0.075000X0.350000X-0.075000X-0.350000X0*%
%ADD31RoundRect,0.075000X0.350000X0.075000X-0.350000X0.075000X-0.350000X-0.075000X0.350000X-0.075000X0*%
%ADD32R,0.230000X1.000000*%
%ADD33RoundRect,0.150000X0.150000X-0.825000X0.150000X0.825000X-0.150000X0.825000X-0.150000X-0.825000X0*%
%ADD34RoundRect,0.150000X-0.150000X0.825000X-0.150000X-0.825000X0.150000X-0.825000X0.150000X0.825000X0*%
%ADD35R,1.430000X5.500000*%
G04 APERTURE END LIST*
D10*
%TO.C,D5*%
X112649000Y-82270500D03*
X112649000Y-83845500D03*
%TD*%
D11*
%TO.C,U5*%
X187127562Y-87360695D03*
X186627562Y-87360695D03*
X186127562Y-87360695D03*
X186127562Y-88860695D03*
X186627562Y-88860695D03*
X187127562Y-88860695D03*
%TD*%
D12*
%TO.C,R20*%
X128143000Y-94472258D03*
X128143000Y-96122258D03*
%TD*%
D13*
%TO.C,R12*%
X169819500Y-92773000D03*
X169819500Y-91123000D03*
%TD*%
D14*
%TO.C,C9*%
X147053000Y-89408000D03*
X148603000Y-89408000D03*
%TD*%
D12*
%TO.C,R7*%
X162224062Y-92786695D03*
X162224062Y-94436695D03*
%TD*%
D15*
%TO.C,R13*%
X127456363Y-113843637D03*
X126289637Y-115010363D03*
%TD*%
D16*
%TO.C,U3*%
X136456562Y-84272195D03*
X135806562Y-84272195D03*
X135156562Y-84272195D03*
X134506562Y-84272195D03*
X133856562Y-84272195D03*
X133206562Y-84272195D03*
X132556562Y-84272195D03*
X131906562Y-84272195D03*
X131256562Y-84272195D03*
X130606562Y-84272195D03*
X129956562Y-84272195D03*
X129306562Y-84272195D03*
X128656562Y-84272195D03*
X128006562Y-84272195D03*
X128006562Y-89997195D03*
X128656562Y-89997195D03*
X129306562Y-89997195D03*
X129956562Y-89997195D03*
X130606562Y-89997195D03*
X131256562Y-89997195D03*
X131906562Y-89997195D03*
X132556562Y-89997195D03*
X133206562Y-89997195D03*
X133856562Y-89997195D03*
X134506562Y-89997195D03*
X135156562Y-89997195D03*
X135806562Y-89997195D03*
X136456562Y-89997195D03*
%TD*%
D12*
%TO.C,R6*%
X185230562Y-91476695D03*
X185230562Y-93126695D03*
%TD*%
D17*
%TO.C,D4*%
X112244400Y-90665000D03*
X113944400Y-90665000D03*
X115644400Y-90665000D03*
X115644400Y-85865000D03*
X113944400Y-85865000D03*
X112244400Y-85865000D03*
%TD*%
D14*
%TO.C,C6*%
X142227000Y-85090000D03*
X143777000Y-85090000D03*
%TD*%
D18*
%TO.C,C2*%
X188839562Y-87056695D03*
X188839562Y-88606695D03*
%TD*%
D12*
%TO.C,R19*%
X130062500Y-94472258D03*
X130062500Y-96122258D03*
%TD*%
%TO.C,R21*%
X114554000Y-82193000D03*
X114554000Y-83843000D03*
%TD*%
D19*
%TO.C,H4*%
X208939600Y-122821695D03*
%TD*%
D20*
%TO.C,J13*%
X155263188Y-116000000D03*
X155263188Y-115500000D03*
X155263188Y-115000000D03*
X155263188Y-114500000D03*
X155263188Y-114000000D03*
X155263188Y-113500000D03*
X155263188Y-113000000D03*
X155263188Y-112500000D03*
X155263188Y-112000000D03*
X155263188Y-111500000D03*
X155263188Y-111000000D03*
X155263188Y-110500000D03*
X155263188Y-110000000D03*
X155263188Y-109500000D03*
X155263188Y-109000000D03*
X155263188Y-108500000D03*
X155263188Y-108000000D03*
X155263188Y-107500000D03*
X155263188Y-107000000D03*
X155263188Y-106500000D03*
X155263188Y-106000000D03*
X155263188Y-105500000D03*
D21*
X157163188Y-103225000D03*
X157163188Y-118275000D03*
%TD*%
D22*
%TO.C,C3*%
X188532562Y-93089695D03*
X188532562Y-91539695D03*
%TD*%
D23*
%TO.C,J4*%
X109339600Y-86384000D03*
X109339600Y-87384000D03*
X109339600Y-88384000D03*
X109339600Y-89384000D03*
D24*
X105464600Y-90684000D03*
X105464600Y-85084000D03*
%TD*%
D12*
%TO.C,R18*%
X131953000Y-94472258D03*
X131953000Y-96122258D03*
%TD*%
D18*
%TO.C,C1*%
X190589562Y-87056695D03*
X190589562Y-88606695D03*
%TD*%
D13*
%TO.C,R10*%
X175128938Y-92773000D03*
X175128938Y-91123000D03*
%TD*%
D12*
%TO.C,R17*%
X204216000Y-81344000D03*
X204216000Y-82994000D03*
%TD*%
D14*
%TO.C,C10*%
X118657665Y-83566000D03*
X120207665Y-83566000D03*
%TD*%
D19*
%TO.C,H2*%
X208939638Y-79641700D03*
%TD*%
D12*
%TO.C,R8*%
X165907062Y-92786695D03*
X165907062Y-94436695D03*
%TD*%
D25*
%TO.C,D3*%
X112242500Y-124714000D03*
X113817500Y-124714000D03*
%TD*%
D13*
%TO.C,R3*%
X181928562Y-93126695D03*
X181928562Y-91476695D03*
%TD*%
D26*
%TO.C,R2*%
X140144000Y-109982000D03*
X138494000Y-109982000D03*
%TD*%
D22*
%TO.C,C8*%
X139192000Y-88405000D03*
X139192000Y-86855000D03*
%TD*%
D13*
%TO.C,R14*%
X164129062Y-94436695D03*
X164129062Y-92786695D03*
%TD*%
D12*
%TO.C,R4*%
X183579562Y-91476695D03*
X183579562Y-93126695D03*
%TD*%
D27*
%TO.C,D2*%
X173350938Y-93137700D03*
X173350938Y-91037700D03*
%TD*%
D28*
%TO.C,C13*%
X139724562Y-82816695D03*
X138174562Y-82816695D03*
%TD*%
D12*
%TO.C,R9*%
X176779938Y-91123000D03*
X176779938Y-92773000D03*
%TD*%
D29*
%TO.C,U4*%
X120351465Y-85536400D03*
X120351465Y-86786400D03*
X120351465Y-88036400D03*
X120351465Y-89286400D03*
X122651465Y-89286400D03*
X122651465Y-88036400D03*
X122651465Y-86786400D03*
X122651465Y-85536400D03*
%TD*%
D26*
%TO.C,R1*%
X140144000Y-108077000D03*
X138494000Y-108077000D03*
%TD*%
D30*
%TO.C,U7*%
X141752000Y-91104000D03*
X142252000Y-91104000D03*
X142752000Y-91104000D03*
X143252000Y-91104000D03*
X143752000Y-91104000D03*
X144252000Y-91104000D03*
D31*
X144952000Y-90404000D03*
X144952000Y-89904000D03*
X144952000Y-89404000D03*
X144952000Y-88904000D03*
X144952000Y-88404000D03*
X144952000Y-87904000D03*
D30*
X144252000Y-87204000D03*
X143752000Y-87204000D03*
X143252000Y-87204000D03*
X142752000Y-87204000D03*
X142252000Y-87204000D03*
X141752000Y-87204000D03*
D31*
X141052000Y-87904000D03*
X141052000Y-88404000D03*
X141052000Y-88904000D03*
X141052000Y-89404000D03*
X141052000Y-89904000D03*
X141052000Y-90404000D03*
%TD*%
D13*
%TO.C,R15*%
X167685062Y-94436695D03*
X167685062Y-92786695D03*
%TD*%
%TO.C,R5*%
X186881562Y-93126695D03*
X186881562Y-91476695D03*
%TD*%
D32*
%TO.C,J14*%
X170113188Y-119751726D03*
X169713188Y-119751726D03*
X169313188Y-119751726D03*
X168913188Y-119751726D03*
X168513188Y-119751726D03*
X168113188Y-119751726D03*
X167713188Y-119751726D03*
X167313188Y-119751726D03*
X166913188Y-119751726D03*
X166513188Y-119751726D03*
X166113188Y-119751726D03*
X165713188Y-119751726D03*
X165313188Y-119751726D03*
X164913188Y-119751726D03*
X164513188Y-119751726D03*
X164113188Y-119751726D03*
X163713188Y-119751726D03*
X163313188Y-119751726D03*
X162913188Y-119751726D03*
%TD*%
D27*
%TO.C,D1*%
X178557938Y-93137700D03*
X178557938Y-91037700D03*
%TD*%
D28*
%TO.C,C11*%
X123528065Y-83566000D03*
X121978065Y-83566000D03*
%TD*%
%TO.C,C15*%
X206412600Y-93992700D03*
X204862600Y-93992700D03*
%TD*%
D19*
%TO.C,H1*%
X107339600Y-79641700D03*
%TD*%
D28*
%TO.C,C7*%
X148603000Y-91186000D03*
X147053000Y-91186000D03*
%TD*%
D12*
%TO.C,R11*%
X171597500Y-91123000D03*
X171597500Y-92773000D03*
%TD*%
D33*
%TO.C,Q1*%
X163113062Y-90625695D03*
X164383062Y-90625695D03*
X165653062Y-90625695D03*
X166923062Y-90625695D03*
X166923062Y-85675695D03*
X165653062Y-85675695D03*
X164383062Y-85675695D03*
X163113062Y-85675695D03*
%TD*%
D34*
%TO.C,U8*%
X210209600Y-85040700D03*
X208939600Y-85040700D03*
X207669600Y-85040700D03*
X206399600Y-85040700D03*
X205129600Y-85040700D03*
X203859600Y-85040700D03*
X202589600Y-85040700D03*
X202589600Y-89990700D03*
X203859600Y-89990700D03*
X205129600Y-89990700D03*
X206399600Y-89990700D03*
X207669600Y-89990700D03*
X208939600Y-89990700D03*
X210209600Y-89990700D03*
%TD*%
D14*
%TO.C,C4*%
X180378562Y-88364695D03*
X181928562Y-88364695D03*
%TD*%
D28*
%TO.C,C14*%
X139737562Y-84594695D03*
X138187562Y-84594695D03*
%TD*%
D19*
%TO.C,H3*%
X107339600Y-122821695D03*
%TD*%
D13*
%TO.C,R16*%
X202565000Y-82981700D03*
X202565000Y-81331700D03*
%TD*%
D18*
%TO.C,C12*%
X117983000Y-86601000D03*
X117983000Y-88151000D03*
%TD*%
D35*
%TO.C,L1*%
X184329562Y-82014695D03*
X180289562Y-82014695D03*
%TD*%
D14*
%TO.C,C5*%
X180391562Y-86713695D03*
X181941562Y-86713695D03*
%TD*%
M02*
