%TF.GenerationSoftware,KiCad,Pcbnew,6.0.9*%
%TF.CreationDate,2023-01-21T02:33:53-05:00*%
%TF.ProjectId,motherboard_2022_2023,6d6f7468-6572-4626-9f61-72645f323032,1.1*%
%TF.SameCoordinates,Original*%
%TF.FileFunction,Soldermask,Top*%
%TF.FilePolarity,Negative*%
%FSLAX46Y46*%
G04 Gerber Fmt 4.6, Leading zero omitted, Abs format (unit mm)*
G04 Created by KiCad (PCBNEW 6.0.9) date 2023-01-21 02:33:53*
%MOMM*%
%LPD*%
G01*
G04 APERTURE LIST*
G04 Aperture macros list*
%AMRoundRect*
0 Rectangle with rounded corners*
0 $1 Rounding radius*
0 $2 $3 $4 $5 $6 $7 $8 $9 X,Y pos of 4 corners*
0 Add a 4 corners polygon primitive as box body*
4,1,4,$2,$3,$4,$5,$6,$7,$8,$9,$2,$3,0*
0 Add four circle primitives for the rounded corners*
1,1,$1+$1,$2,$3*
1,1,$1+$1,$4,$5*
1,1,$1+$1,$6,$7*
1,1,$1+$1,$8,$9*
0 Add four rect primitives between the rounded corners*
20,1,$1+$1,$2,$3,$4,$5,0*
20,1,$1+$1,$4,$5,$6,$7,0*
20,1,$1+$1,$6,$7,$8,$9,0*
20,1,$1+$1,$8,$9,$2,$3,0*%
%AMFreePoly0*
4,1,6,1.000000,0.000000,0.500000,-0.750000,-0.500000,-0.750000,-0.500000,0.750000,0.500000,0.750000,1.000000,0.000000,1.000000,0.000000,$1*%
%AMFreePoly1*
4,1,22,0.500000,-0.750000,0.000000,-0.750000,0.000000,-0.745033,-0.079941,-0.743568,-0.215256,-0.701293,-0.333266,-0.622738,-0.424486,-0.514219,-0.481581,-0.384460,-0.499164,-0.250000,-0.500000,-0.250000,-0.500000,0.250000,-0.499164,0.250000,-0.499963,0.256109,-0.478152,0.396186,-0.417904,0.524511,-0.324060,0.630769,-0.204165,0.706417,-0.067858,0.745374,0.000000,0.744959,0.000000,0.750000,
0.500000,0.750000,0.500000,-0.750000,0.500000,-0.750000,$1*%
%AMFreePoly2*
4,1,20,0.000000,0.744959,0.073905,0.744508,0.209726,0.703889,0.328688,0.626782,0.421226,0.519385,0.479903,0.390333,0.500000,0.250000,0.500000,-0.250000,0.499851,-0.262216,0.476331,-0.402017,0.414519,-0.529596,0.319384,-0.634700,0.198574,-0.708877,0.061801,-0.746166,0.000000,-0.745033,0.000000,-0.750000,-0.500000,-0.750000,-0.500000,0.750000,0.000000,0.750000,0.000000,0.744959,
0.000000,0.744959,$1*%
G04 Aperture macros list end*
%ADD10C,2.000000*%
%ADD11O,1.700000X1.700000*%
%ADD12R,1.700000X1.700000*%
%ADD13C,3.200000*%
%ADD14R,0.340000X0.700000*%
%ADD15RoundRect,0.200000X0.275000X-0.200000X0.275000X0.200000X-0.275000X0.200000X-0.275000X-0.200000X0*%
%ADD16RoundRect,0.225000X-0.225000X-0.250000X0.225000X-0.250000X0.225000X0.250000X-0.225000X0.250000X0*%
%ADD17RoundRect,0.200000X-0.275000X0.200000X-0.275000X-0.200000X0.275000X-0.200000X0.275000X0.200000X0*%
%ADD18FreePoly0,270.000000*%
%ADD19FreePoly0,90.000000*%
%ADD20R,1.500000X1.500000*%
%ADD21RoundRect,0.100000X-0.100000X0.637500X-0.100000X-0.637500X0.100000X-0.637500X0.100000X0.637500X0*%
%ADD22RoundRect,0.225000X-0.250000X0.225000X-0.250000X-0.225000X0.250000X-0.225000X0.250000X0.225000X0*%
%ADD23FreePoly1,90.000000*%
%ADD24FreePoly2,90.000000*%
%ADD25R,1.000000X0.300000*%
%ADD26R,1.300000X1.650000*%
%ADD27RoundRect,0.225000X0.250000X-0.225000X0.250000X0.225000X-0.250000X0.225000X-0.250000X-0.225000X0*%
%ADD28RoundRect,0.250000X-0.650000X0.350000X-0.650000X-0.350000X0.650000X-0.350000X0.650000X0.350000X0*%
%ADD29RoundRect,0.150000X-0.625000X0.150000X-0.625000X-0.150000X0.625000X-0.150000X0.625000X0.150000X0*%
%ADD30C,2.200000*%
%ADD31RoundRect,0.200000X0.200000X0.275000X-0.200000X0.275000X-0.200000X-0.275000X0.200000X-0.275000X0*%
%ADD32C,6.000000*%
%ADD33R,1.000000X1.000000*%
%ADD34C,2.500000*%
%ADD35RoundRect,0.625000X0.000000X0.883883X-0.883883X0.000000X0.000000X-0.883883X0.883883X0.000000X0*%
%ADD36RoundRect,0.225000X0.225000X0.250000X-0.225000X0.250000X-0.225000X-0.250000X0.225000X-0.250000X0*%
%ADD37RoundRect,0.125000X-0.475000X-0.125000X0.475000X-0.125000X0.475000X0.125000X-0.475000X0.125000X0*%
%ADD38FreePoly1,270.000000*%
%ADD39FreePoly2,270.000000*%
%ADD40RoundRect,0.075000X0.075000X-0.350000X0.075000X0.350000X-0.075000X0.350000X-0.075000X-0.350000X0*%
%ADD41RoundRect,0.075000X0.350000X0.075000X-0.350000X0.075000X-0.350000X-0.075000X0.350000X-0.075000X0*%
%ADD42R,0.230000X1.000000*%
%ADD43O,1.200000X1.900000*%
%ADD44O,1.200000X1.700000*%
%ADD45C,1.350000*%
%ADD46RoundRect,0.150000X0.150000X-0.825000X0.150000X0.825000X-0.150000X0.825000X-0.150000X-0.825000X0*%
%ADD47RoundRect,0.150000X-0.150000X0.825000X-0.150000X-0.825000X0.150000X-0.825000X0.150000X0.825000X0*%
%ADD48R,1.430000X5.500000*%
%ADD49R,3.800000X3.800000*%
%ADD50C,3.800000*%
G04 APERTURE END LIST*
D10*
%TO.C,SW1*%
X193735600Y-92416700D03*
X193735600Y-85916700D03*
X198235600Y-85916700D03*
X198235600Y-92416700D03*
%TD*%
D11*
%TO.C,S2*%
X208939638Y-98691700D03*
X208939638Y-96151700D03*
D12*
X208939638Y-93611700D03*
%TD*%
D11*
%TO.C,S5*%
X127659600Y-79641700D03*
X125119600Y-79641700D03*
D12*
X122579600Y-79641700D03*
%TD*%
%TO.C,S6*%
X113689600Y-79641700D03*
D11*
X116229600Y-79641700D03*
X118769600Y-79641700D03*
%TD*%
D12*
%TO.C,S7*%
X107339600Y-98691700D03*
D11*
X107339600Y-96151700D03*
X107339600Y-93611700D03*
%TD*%
D12*
%TO.C,S8*%
X107339600Y-107581700D03*
D11*
X107339600Y-105041700D03*
X107339600Y-102501700D03*
%TD*%
D12*
%TO.C,S9*%
X107339600Y-116471700D03*
D11*
X107339600Y-113931700D03*
X107339600Y-111391700D03*
%TD*%
D12*
%TO.C,S4*%
X132739600Y-79641700D03*
D11*
X135279600Y-79641700D03*
X137819600Y-79641700D03*
%TD*%
%TO.C,S3*%
X146709600Y-79641700D03*
X144169600Y-79641700D03*
D12*
X141629600Y-79641700D03*
%TD*%
D13*
%TO.C,H1*%
X107339600Y-79641700D03*
%TD*%
D12*
%TO.C,J3*%
X190905562Y-118630695D03*
D11*
X190905562Y-121170695D03*
X188365562Y-118630695D03*
X188365562Y-121170695D03*
X185825562Y-118630695D03*
X185825562Y-121170695D03*
X183285562Y-118630695D03*
X183285562Y-121170695D03*
%TD*%
D14*
%TO.C,U5*%
X187127562Y-87360695D03*
X186627562Y-87360695D03*
X186127562Y-87360695D03*
X186127562Y-88860695D03*
X186627562Y-88860695D03*
X187127562Y-88860695D03*
%TD*%
D15*
%TO.C,R12*%
X169819500Y-92773000D03*
X169819500Y-91123000D03*
%TD*%
D16*
%TO.C,C9*%
X147053000Y-89408000D03*
X148603000Y-89408000D03*
%TD*%
D17*
%TO.C,R7*%
X162224062Y-92786695D03*
X162224062Y-94436695D03*
%TD*%
D18*
%TO.C,JP9*%
X175641000Y-77248000D03*
D19*
X175641000Y-81248000D03*
D20*
X175641000Y-80448000D03*
X175641000Y-78048000D03*
%TD*%
D21*
%TO.C,U3*%
X136456562Y-84272195D03*
X135806562Y-84272195D03*
X135156562Y-84272195D03*
X134506562Y-84272195D03*
X133856562Y-84272195D03*
X133206562Y-84272195D03*
X132556562Y-84272195D03*
X131906562Y-84272195D03*
X131256562Y-84272195D03*
X130606562Y-84272195D03*
X129956562Y-84272195D03*
X129306562Y-84272195D03*
X128656562Y-84272195D03*
X128006562Y-84272195D03*
X128006562Y-89997195D03*
X128656562Y-89997195D03*
X129306562Y-89997195D03*
X129956562Y-89997195D03*
X130606562Y-89997195D03*
X131256562Y-89997195D03*
X131906562Y-89997195D03*
X132556562Y-89997195D03*
X133206562Y-89997195D03*
X133856562Y-89997195D03*
X134506562Y-89997195D03*
X135156562Y-89997195D03*
X135806562Y-89997195D03*
X136456562Y-89997195D03*
%TD*%
D17*
%TO.C,R6*%
X185230562Y-91476695D03*
X185230562Y-93126695D03*
%TD*%
D16*
%TO.C,C6*%
X142227000Y-85090000D03*
X143777000Y-85090000D03*
%TD*%
D22*
%TO.C,C2*%
X188839562Y-87056695D03*
X188839562Y-88606695D03*
%TD*%
D13*
%TO.C,H4*%
X208939600Y-122821695D03*
%TD*%
D23*
%TO.C,JP1*%
X176779938Y-89423000D03*
D24*
X176779938Y-88123000D03*
%TD*%
D25*
%TO.C,J13*%
X155263188Y-116000000D03*
X155263188Y-115500000D03*
X155263188Y-115000000D03*
X155263188Y-114500000D03*
X155263188Y-114000000D03*
X155263188Y-113500000D03*
X155263188Y-113000000D03*
X155263188Y-112500000D03*
X155263188Y-112000000D03*
X155263188Y-111500000D03*
X155263188Y-111000000D03*
X155263188Y-110500000D03*
X155263188Y-110000000D03*
X155263188Y-109500000D03*
X155263188Y-109000000D03*
X155263188Y-108500000D03*
X155263188Y-108000000D03*
X155263188Y-107500000D03*
X155263188Y-107000000D03*
X155263188Y-106500000D03*
X155263188Y-106000000D03*
X155263188Y-105500000D03*
D26*
X157163188Y-103225000D03*
X157163188Y-118275000D03*
%TD*%
D27*
%TO.C,C3*%
X188532562Y-93089695D03*
X188532562Y-91539695D03*
%TD*%
D28*
%TO.C,J4*%
X105464600Y-84461700D03*
X105464600Y-90061700D03*
D29*
X109339600Y-88761700D03*
X109339600Y-87761700D03*
X109339600Y-86761700D03*
X109339600Y-85761700D03*
%TD*%
D22*
%TO.C,C1*%
X190589562Y-87056695D03*
X190589562Y-88606695D03*
%TD*%
D15*
%TO.C,R10*%
X175128938Y-92773000D03*
X175128938Y-91123000D03*
%TD*%
D17*
%TO.C,R17*%
X205764600Y-81356700D03*
X205764600Y-83006700D03*
%TD*%
D16*
%TO.C,C10*%
X118657665Y-83566000D03*
X120207665Y-83566000D03*
%TD*%
D13*
%TO.C,H2*%
X208939638Y-79641700D03*
%TD*%
D17*
%TO.C,R8*%
X165907062Y-92786695D03*
X165907062Y-94436695D03*
%TD*%
D11*
%TO.C,S0*%
X208939638Y-116471700D03*
X208939638Y-113931700D03*
D12*
X208939638Y-111391700D03*
%TD*%
D23*
%TO.C,JP2*%
X171597500Y-89423000D03*
D24*
X171597500Y-88123000D03*
%TD*%
D15*
%TO.C,R3*%
X181928562Y-93126695D03*
X181928562Y-91476695D03*
%TD*%
D23*
%TO.C,JP8*%
X148336000Y-111902000D03*
D24*
X148336000Y-110602000D03*
%TD*%
D30*
%TO.C,J5*%
X171958000Y-79500000D03*
X169418000Y-79500000D03*
X166878000Y-79500000D03*
X164338000Y-79500000D03*
%TD*%
D31*
%TO.C,R2*%
X140144000Y-109982000D03*
X138494000Y-109982000D03*
%TD*%
D23*
%TO.C,JP5*%
X145796000Y-107838000D03*
D24*
X145796000Y-106538000D03*
%TD*%
D27*
%TO.C,C8*%
X139192000Y-88405000D03*
X139192000Y-86855000D03*
%TD*%
D15*
%TO.C,R14*%
X164129062Y-94436695D03*
X164129062Y-92786695D03*
%TD*%
D17*
%TO.C,R4*%
X183579562Y-91476695D03*
X183579562Y-93126695D03*
%TD*%
D11*
%TO.C,J2*%
X192937562Y-97605695D03*
X192937562Y-100145695D03*
X190397562Y-97605695D03*
X190397562Y-100145695D03*
X187857562Y-97605695D03*
X187857562Y-100145695D03*
X185317562Y-97605695D03*
X185317562Y-100145695D03*
X182777562Y-97605695D03*
X182777562Y-100145695D03*
X180237562Y-97605695D03*
X180237562Y-100145695D03*
X177697562Y-97605695D03*
X177697562Y-100145695D03*
X175157562Y-97605695D03*
X175157562Y-100145695D03*
X172617562Y-97605695D03*
X172617562Y-100145695D03*
X170077562Y-97605695D03*
X170077562Y-100145695D03*
X167537562Y-97605695D03*
X167537562Y-100145695D03*
X164997562Y-97605695D03*
X164997562Y-100145695D03*
X162457562Y-97605695D03*
X162457562Y-100145695D03*
X159917562Y-97605695D03*
X159917562Y-100145695D03*
X157377562Y-97605695D03*
X157377562Y-100145695D03*
X154837562Y-97605695D03*
X154837562Y-100145695D03*
X152297562Y-97605695D03*
X152297562Y-100145695D03*
X149757562Y-97605695D03*
X149757562Y-100145695D03*
X147217562Y-97605695D03*
X147217562Y-100145695D03*
X144677562Y-97605695D03*
D12*
X144677562Y-100145695D03*
D32*
X197807562Y-121875695D03*
X139807562Y-121875695D03*
X139807562Y-98875695D03*
X197807562Y-98875695D03*
%TD*%
D33*
%TO.C,D2*%
X173350938Y-93820305D03*
X173350938Y-91320305D03*
%TD*%
D34*
%TO.C,BZ1*%
X151991923Y-86006077D03*
D35*
X157380077Y-80617923D03*
%TD*%
D12*
%TO.C,J6*%
X150749000Y-115697000D03*
D11*
X148209000Y-115697000D03*
X145669000Y-115697000D03*
%TD*%
D36*
%TO.C,C13*%
X138174562Y-82816695D03*
X139724562Y-82816695D03*
%TD*%
D17*
%TO.C,R9*%
X176779938Y-91123000D03*
X176779938Y-92773000D03*
%TD*%
D37*
%TO.C,U4*%
X120351465Y-85536400D03*
X120351465Y-86786400D03*
X120351465Y-88036400D03*
X120351465Y-89286400D03*
X122651465Y-89286400D03*
X122651465Y-88036400D03*
X122651465Y-86786400D03*
X122651465Y-85536400D03*
%TD*%
D38*
%TO.C,JP6*%
X145796000Y-110602000D03*
D39*
X145796000Y-111902000D03*
%TD*%
D31*
%TO.C,R1*%
X140144000Y-108077000D03*
X138494000Y-108077000D03*
%TD*%
D23*
%TO.C,JP3*%
X143256000Y-107838000D03*
D24*
X143256000Y-106538000D03*
%TD*%
D40*
%TO.C,U7*%
X141752000Y-91104000D03*
X142252000Y-91104000D03*
X142752000Y-91104000D03*
X143252000Y-91104000D03*
X143752000Y-91104000D03*
X144252000Y-91104000D03*
D41*
X144952000Y-90404000D03*
X144952000Y-89904000D03*
X144952000Y-89404000D03*
X144952000Y-88904000D03*
X144952000Y-88404000D03*
X144952000Y-87904000D03*
D40*
X144252000Y-87204000D03*
X143752000Y-87204000D03*
X143252000Y-87204000D03*
X142752000Y-87204000D03*
X142252000Y-87204000D03*
X141752000Y-87204000D03*
D41*
X141052000Y-87904000D03*
X141052000Y-88404000D03*
X141052000Y-88904000D03*
X141052000Y-89404000D03*
X141052000Y-89904000D03*
X141052000Y-90404000D03*
%TD*%
D15*
%TO.C,R15*%
X167685062Y-94436695D03*
X167685062Y-92786695D03*
%TD*%
%TO.C,R5*%
X186881562Y-93126695D03*
X186881562Y-91476695D03*
%TD*%
D42*
%TO.C,J14*%
X170113188Y-119751726D03*
X169713188Y-119751726D03*
X169313188Y-119751726D03*
X168913188Y-119751726D03*
X168513188Y-119751726D03*
X168113188Y-119751726D03*
X167713188Y-119751726D03*
X167313188Y-119751726D03*
X166913188Y-119751726D03*
X166513188Y-119751726D03*
X166113188Y-119751726D03*
X165713188Y-119751726D03*
X165313188Y-119751726D03*
X164913188Y-119751726D03*
X164513188Y-119751726D03*
X164113188Y-119751726D03*
X163713188Y-119751726D03*
X163313188Y-119751726D03*
X162913188Y-119751726D03*
D43*
X171938188Y-120801726D03*
X161088188Y-120801726D03*
D44*
X171938188Y-125301726D03*
X161088188Y-125301726D03*
%TD*%
D33*
%TO.C,D1*%
X178557938Y-93820305D03*
X178557938Y-91320305D03*
%TD*%
D11*
%TO.C,S1*%
X208939638Y-107581700D03*
X208939638Y-105041700D03*
D12*
X208939638Y-102501700D03*
%TD*%
D36*
%TO.C,C11*%
X123528065Y-83566000D03*
X121978065Y-83566000D03*
%TD*%
%TO.C,C15*%
X204862600Y-93992700D03*
X206412600Y-93992700D03*
%TD*%
D23*
%TO.C,JP7*%
X148336000Y-107838000D03*
D24*
X148336000Y-106538000D03*
%TD*%
D36*
%TO.C,C7*%
X148603000Y-91186000D03*
X147053000Y-91186000D03*
%TD*%
D45*
%TO.C,U1*%
X133960562Y-118159695D03*
X133960562Y-116159695D03*
X133960562Y-114159695D03*
X133960562Y-112159695D03*
X133960562Y-110159695D03*
X133960562Y-108159695D03*
X133960562Y-106159695D03*
X133960562Y-104159695D03*
X133960562Y-102159695D03*
X133960562Y-100159695D03*
X111960562Y-100159695D03*
X111960562Y-102159695D03*
X111960562Y-104159695D03*
X111960562Y-106159695D03*
X111960562Y-108159695D03*
X111960562Y-110159695D03*
X111960562Y-112159695D03*
X111960562Y-114159695D03*
X111960562Y-116159695D03*
X111960562Y-118159695D03*
%TD*%
D17*
%TO.C,R11*%
X171597500Y-91123000D03*
X171597500Y-92773000D03*
%TD*%
D46*
%TO.C,Q1*%
X163113062Y-90625695D03*
X164383062Y-90625695D03*
X165653062Y-90625695D03*
X166923062Y-90625695D03*
X166923062Y-85675695D03*
X165653062Y-85675695D03*
X164383062Y-85675695D03*
X163113062Y-85675695D03*
%TD*%
D47*
%TO.C,U8*%
X210209600Y-89990700D03*
X208939600Y-89990700D03*
X207669600Y-89990700D03*
X206399600Y-89990700D03*
X205129600Y-89990700D03*
X203859600Y-89990700D03*
X202589600Y-89990700D03*
X202589600Y-85040700D03*
X203859600Y-85040700D03*
X205129600Y-85040700D03*
X206399600Y-85040700D03*
X207669600Y-85040700D03*
X208939600Y-85040700D03*
X210209600Y-85040700D03*
%TD*%
D16*
%TO.C,C4*%
X180378562Y-88364695D03*
X181928562Y-88364695D03*
%TD*%
D36*
%TO.C,C14*%
X139737562Y-84594695D03*
X138187562Y-84594695D03*
%TD*%
D13*
%TO.C,H3*%
X107339600Y-122821695D03*
%TD*%
D15*
%TO.C,R16*%
X203859600Y-82981700D03*
X203859600Y-81331700D03*
%TD*%
D22*
%TO.C,C12*%
X117983000Y-86601000D03*
X117983000Y-88151000D03*
%TD*%
D38*
%TO.C,JP4*%
X143256000Y-110602000D03*
D39*
X143256000Y-111902000D03*
%TD*%
D48*
%TO.C,L1*%
X184329562Y-82014695D03*
X180289562Y-82014695D03*
%TD*%
D49*
%TO.C,J1*%
X197400000Y-80600000D03*
D50*
X192400000Y-80600000D03*
%TD*%
D16*
%TO.C,C5*%
X180391562Y-86713695D03*
X181941562Y-86713695D03*
%TD*%
M02*
