%TF.GenerationSoftware,KiCad,Pcbnew,(6.0.0)*%
%TF.CreationDate,2022-11-29T18:54:42-05:00*%
%TF.ProjectId,motherboard_2022_2023,6d6f7468-6572-4626-9f61-72645f323032,rev?*%
%TF.SameCoordinates,Original*%
%TF.FileFunction,Paste,Top*%
%TF.FilePolarity,Positive*%
%FSLAX46Y46*%
G04 Gerber Fmt 4.6, Leading zero omitted, Abs format (unit mm)*
G04 Created by KiCad (PCBNEW (6.0.0)) date 2022-11-29 18:54:42*
%MOMM*%
%LPD*%
G01*
G04 APERTURE LIST*
G04 Aperture macros list*
%AMRoundRect*
0 Rectangle with rounded corners*
0 $1 Rounding radius*
0 $2 $3 $4 $5 $6 $7 $8 $9 X,Y pos of 4 corners*
0 Add a 4 corners polygon primitive as box body*
4,1,4,$2,$3,$4,$5,$6,$7,$8,$9,$2,$3,0*
0 Add four circle primitives for the rounded corners*
1,1,$1+$1,$2,$3*
1,1,$1+$1,$4,$5*
1,1,$1+$1,$6,$7*
1,1,$1+$1,$8,$9*
0 Add four rect primitives between the rounded corners*
20,1,$1+$1,$2,$3,$4,$5,0*
20,1,$1+$1,$4,$5,$6,$7,0*
20,1,$1+$1,$6,$7,$8,$9,0*
20,1,$1+$1,$8,$9,$2,$3,0*%
G04 Aperture macros list end*
%ADD10R,0.340000X0.700000*%
%ADD11RoundRect,0.200000X0.275000X-0.200000X0.275000X0.200000X-0.275000X0.200000X-0.275000X-0.200000X0*%
%ADD12RoundRect,0.225000X-0.225000X-0.250000X0.225000X-0.250000X0.225000X0.250000X-0.225000X0.250000X0*%
%ADD13RoundRect,0.200000X-0.275000X0.200000X-0.275000X-0.200000X0.275000X-0.200000X0.275000X0.200000X0*%
%ADD14RoundRect,0.100000X-0.100000X0.637500X-0.100000X-0.637500X0.100000X-0.637500X0.100000X0.637500X0*%
%ADD15RoundRect,0.225000X-0.250000X0.225000X-0.250000X-0.225000X0.250000X-0.225000X0.250000X0.225000X0*%
%ADD16R,1.000000X0.300000*%
%ADD17R,1.300000X1.650000*%
%ADD18RoundRect,0.225000X0.250000X-0.225000X0.250000X0.225000X-0.250000X0.225000X-0.250000X-0.225000X0*%
%ADD19R,0.580000X0.720000*%
%ADD20R,0.720000X0.580000*%
%ADD21RoundRect,0.225000X0.225000X0.250000X-0.225000X0.250000X-0.225000X-0.250000X0.225000X-0.250000X0*%
%ADD22RoundRect,0.125000X-0.475000X-0.125000X0.475000X-0.125000X0.475000X0.125000X-0.475000X0.125000X0*%
%ADD23RoundRect,0.075000X0.075000X-0.350000X0.075000X0.350000X-0.075000X0.350000X-0.075000X-0.350000X0*%
%ADD24RoundRect,0.075000X0.350000X0.075000X-0.350000X0.075000X-0.350000X-0.075000X0.350000X-0.075000X0*%
%ADD25R,0.230000X1.000000*%
%ADD26RoundRect,0.150000X0.150000X-0.825000X0.150000X0.825000X-0.150000X0.825000X-0.150000X-0.825000X0*%
%ADD27RoundRect,0.150000X0.825000X0.150000X-0.825000X0.150000X-0.825000X-0.150000X0.825000X-0.150000X0*%
%ADD28R,1.430000X5.500000*%
G04 APERTURE END LIST*
D10*
%TO.C,U5*%
X187127562Y-87360695D03*
X186627562Y-87360695D03*
X186127562Y-87360695D03*
X186127562Y-88860695D03*
X186627562Y-88860695D03*
X187127562Y-88860695D03*
%TD*%
D11*
%TO.C,R12*%
X167664562Y-90880695D03*
X167664562Y-89230695D03*
%TD*%
D12*
%TO.C,C9*%
X147053000Y-87630000D03*
X148603000Y-87630000D03*
%TD*%
D13*
%TO.C,R7*%
X160171562Y-92786695D03*
X160171562Y-94436695D03*
%TD*%
D14*
%TO.C,U3*%
X136456562Y-84272195D03*
X135806562Y-84272195D03*
X135156562Y-84272195D03*
X134506562Y-84272195D03*
X133856562Y-84272195D03*
X133206562Y-84272195D03*
X132556562Y-84272195D03*
X131906562Y-84272195D03*
X131256562Y-84272195D03*
X130606562Y-84272195D03*
X129956562Y-84272195D03*
X129306562Y-84272195D03*
X128656562Y-84272195D03*
X128006562Y-84272195D03*
X128006562Y-89997195D03*
X128656562Y-89997195D03*
X129306562Y-89997195D03*
X129956562Y-89997195D03*
X130606562Y-89997195D03*
X131256562Y-89997195D03*
X131906562Y-89997195D03*
X132556562Y-89997195D03*
X133206562Y-89997195D03*
X133856562Y-89997195D03*
X134506562Y-89997195D03*
X135156562Y-89997195D03*
X135806562Y-89997195D03*
X136456562Y-89997195D03*
%TD*%
D13*
%TO.C,R6*%
X185230562Y-91476695D03*
X185230562Y-93126695D03*
%TD*%
D12*
%TO.C,C6*%
X142227000Y-85090000D03*
X143777000Y-85090000D03*
%TD*%
D15*
%TO.C,C2*%
X189675562Y-86954695D03*
X189675562Y-88504695D03*
%TD*%
D13*
%TO.C,R13*%
X81431562Y-92659695D03*
X81431562Y-94309695D03*
%TD*%
D16*
%TO.C,J13*%
X167720350Y-116248274D03*
X167720350Y-115748274D03*
X167720350Y-115248274D03*
X167720350Y-114748274D03*
X167720350Y-114248274D03*
X167720350Y-113748274D03*
X167720350Y-113248274D03*
X167720350Y-112748274D03*
X167720350Y-112248274D03*
X167720350Y-111748274D03*
X167720350Y-111248274D03*
X167720350Y-110748274D03*
X167720350Y-110248274D03*
X167720350Y-109748274D03*
X167720350Y-109248274D03*
X167720350Y-108748274D03*
X167720350Y-108248274D03*
X167720350Y-107748274D03*
X167720350Y-107248274D03*
X167720350Y-106748274D03*
X167720350Y-106248274D03*
X167720350Y-105748274D03*
D17*
X169620350Y-103473274D03*
X169620350Y-118523274D03*
%TD*%
D18*
%TO.C,C3*%
X188532562Y-93089695D03*
X188532562Y-91539695D03*
%TD*%
D15*
%TO.C,C1*%
X191199562Y-86967695D03*
X191199562Y-88517695D03*
%TD*%
D11*
%TO.C,R10*%
X171220562Y-90880695D03*
X171220562Y-89230695D03*
%TD*%
D13*
%TO.C,R17*%
X207989562Y-91256695D03*
X207989562Y-92906695D03*
%TD*%
D12*
%TO.C,C10*%
X118657665Y-83566000D03*
X120207665Y-83566000D03*
%TD*%
D13*
%TO.C,R8*%
X163854562Y-92786695D03*
X163854562Y-94436695D03*
%TD*%
D11*
%TO.C,R3*%
X181928562Y-93126695D03*
X181928562Y-91476695D03*
%TD*%
D18*
%TO.C,C8*%
X139192000Y-88405000D03*
X139192000Y-86855000D03*
%TD*%
D11*
%TO.C,R14*%
X162076562Y-94436695D03*
X162076562Y-92786695D03*
%TD*%
D19*
%TO.C,U6*%
X97731562Y-106958695D03*
X98781562Y-120158695D03*
X95831562Y-107958695D03*
D20*
X103406562Y-109833695D03*
D19*
X94981562Y-107958695D03*
D20*
X103406562Y-114483695D03*
X90206562Y-110683695D03*
X91206562Y-118283695D03*
D19*
X94981562Y-120158695D03*
X101531562Y-107958695D03*
X93931562Y-120158695D03*
X95831562Y-121158695D03*
D20*
X104406562Y-116383695D03*
D19*
X93081562Y-121158695D03*
D20*
X90206562Y-111733695D03*
X103406562Y-110683695D03*
D19*
X97731562Y-120158695D03*
X93931562Y-107958695D03*
D20*
X91206562Y-114483695D03*
X104406562Y-112583695D03*
X90206562Y-109833695D03*
D19*
X93081562Y-120158695D03*
D20*
X104406562Y-111733695D03*
X91206562Y-111733695D03*
X90206562Y-113633695D03*
D19*
X93931562Y-106958695D03*
D20*
X103406562Y-116383695D03*
X90206562Y-117433695D03*
D19*
X101531562Y-121158695D03*
D20*
X91206562Y-112583695D03*
D19*
X98781562Y-121158695D03*
X94981562Y-106958695D03*
X96881562Y-106958695D03*
D20*
X90206562Y-118283695D03*
D19*
X99631562Y-120158695D03*
D20*
X90206562Y-114483695D03*
D19*
X99631562Y-121158695D03*
D20*
X103406562Y-115533695D03*
X104406562Y-113633695D03*
X104406562Y-109833695D03*
D19*
X100681562Y-121158695D03*
D20*
X103406562Y-117433695D03*
D19*
X93081562Y-106958695D03*
D20*
X90206562Y-115533695D03*
D19*
X99631562Y-106958695D03*
X96881562Y-121158695D03*
X97731562Y-107958695D03*
D20*
X103406562Y-111733695D03*
X91206562Y-116383695D03*
X103406562Y-113633695D03*
D19*
X93931562Y-121158695D03*
D20*
X104406562Y-115533695D03*
D19*
X95831562Y-120158695D03*
D20*
X104406562Y-110683695D03*
D19*
X97731562Y-121158695D03*
D20*
X91206562Y-110683695D03*
X90206562Y-116383695D03*
D19*
X101531562Y-106958695D03*
X94981562Y-121158695D03*
X95831562Y-106958695D03*
D20*
X104406562Y-117433695D03*
X91206562Y-117433695D03*
X90206562Y-112583695D03*
D19*
X99631562Y-107958695D03*
X98781562Y-107958695D03*
X100681562Y-106958695D03*
X101531562Y-120158695D03*
X98781562Y-106958695D03*
D20*
X91206562Y-115533695D03*
X103406562Y-118283695D03*
D19*
X96881562Y-120158695D03*
X96881562Y-107958695D03*
X100681562Y-107958695D03*
D20*
X91206562Y-109833695D03*
X103406562Y-112583695D03*
X104406562Y-118283695D03*
D19*
X100681562Y-120158695D03*
D20*
X91206562Y-113633695D03*
X104406562Y-114483695D03*
D19*
X93081562Y-107958695D03*
%TD*%
D13*
%TO.C,R4*%
X183579562Y-91476695D03*
X183579562Y-93126695D03*
%TD*%
D21*
%TO.C,C13*%
X139724562Y-82816695D03*
X138174562Y-82816695D03*
%TD*%
D13*
%TO.C,R9*%
X172871562Y-89230695D03*
X172871562Y-90880695D03*
%TD*%
D22*
%TO.C,U4*%
X120351465Y-85536400D03*
X120351465Y-86786400D03*
X120351465Y-88036400D03*
X120351465Y-89286400D03*
X122651465Y-89286400D03*
X122651465Y-88036400D03*
X122651465Y-86786400D03*
X122651465Y-85536400D03*
%TD*%
D23*
%TO.C,U7*%
X141752000Y-91104000D03*
X142252000Y-91104000D03*
X142752000Y-91104000D03*
X143252000Y-91104000D03*
X143752000Y-91104000D03*
X144252000Y-91104000D03*
D24*
X144952000Y-90404000D03*
X144952000Y-89904000D03*
X144952000Y-89404000D03*
X144952000Y-88904000D03*
X144952000Y-88404000D03*
X144952000Y-87904000D03*
D23*
X144252000Y-87204000D03*
X143752000Y-87204000D03*
X143252000Y-87204000D03*
X142752000Y-87204000D03*
X142252000Y-87204000D03*
X141752000Y-87204000D03*
D24*
X141052000Y-87904000D03*
X141052000Y-88404000D03*
X141052000Y-88904000D03*
X141052000Y-89404000D03*
X141052000Y-89904000D03*
X141052000Y-90404000D03*
%TD*%
D11*
%TO.C,R15*%
X165632562Y-94436695D03*
X165632562Y-92786695D03*
%TD*%
%TO.C,R5*%
X186881562Y-93126695D03*
X186881562Y-91476695D03*
%TD*%
D25*
%TO.C,J14*%
X164597600Y-120025524D03*
X164197600Y-120025524D03*
X163797600Y-120025524D03*
X163397600Y-120025524D03*
X162997600Y-120025524D03*
X162597600Y-120025524D03*
X162197600Y-120025524D03*
X161797600Y-120025524D03*
X161397600Y-120025524D03*
X160997600Y-120025524D03*
X160597600Y-120025524D03*
X160197600Y-120025524D03*
X159797600Y-120025524D03*
X159397600Y-120025524D03*
X158997600Y-120025524D03*
X158597600Y-120025524D03*
X158197600Y-120025524D03*
X157797600Y-120025524D03*
X157397600Y-120025524D03*
%TD*%
D21*
%TO.C,C11*%
X123528065Y-83566000D03*
X121978065Y-83566000D03*
%TD*%
D18*
%TO.C,C15*%
X202539562Y-105176695D03*
X202539562Y-103626695D03*
%TD*%
D21*
%TO.C,C7*%
X148603000Y-90678000D03*
X147053000Y-90678000D03*
%TD*%
D13*
%TO.C,R11*%
X169442562Y-89230695D03*
X169442562Y-90880695D03*
%TD*%
D26*
%TO.C,Q1*%
X161060562Y-90625695D03*
X162330562Y-90625695D03*
X163600562Y-90625695D03*
X164870562Y-90625695D03*
X164870562Y-85675695D03*
X163600562Y-85675695D03*
X162330562Y-85675695D03*
X161060562Y-85675695D03*
%TD*%
D27*
%TO.C,U8*%
X208814562Y-102141695D03*
X208814562Y-100871695D03*
X208814562Y-99601695D03*
X208814562Y-98331695D03*
X208814562Y-97061695D03*
X208814562Y-95791695D03*
X208814562Y-94521695D03*
X203864562Y-94521695D03*
X203864562Y-95791695D03*
X203864562Y-97061695D03*
X203864562Y-98331695D03*
X203864562Y-99601695D03*
X203864562Y-100871695D03*
X203864562Y-102141695D03*
%TD*%
D12*
%TO.C,C4*%
X180378562Y-88364695D03*
X181928562Y-88364695D03*
%TD*%
D21*
%TO.C,C14*%
X139737562Y-84594695D03*
X138187562Y-84594695D03*
%TD*%
D11*
%TO.C,R16*%
X206164562Y-92881695D03*
X206164562Y-91231695D03*
%TD*%
D15*
%TO.C,C12*%
X117419065Y-86601000D03*
X117419065Y-88151000D03*
%TD*%
D28*
%TO.C,L1*%
X184329562Y-82014695D03*
X180289562Y-82014695D03*
%TD*%
D12*
%TO.C,C5*%
X180391562Y-86713695D03*
X181941562Y-86713695D03*
%TD*%
M02*
