%TF.GenerationSoftware,KiCad,Pcbnew,6.0.9*%
%TF.CreationDate,2023-01-21T02:33:53-05:00*%
%TF.ProjectId,motherboard_2022_2023,6d6f7468-6572-4626-9f61-72645f323032,1.1*%
%TF.SameCoordinates,Original*%
%TF.FileFunction,Legend,Top*%
%TF.FilePolarity,Positive*%
%FSLAX46Y46*%
G04 Gerber Fmt 4.6, Leading zero omitted, Abs format (unit mm)*
G04 Created by KiCad (PCBNEW 6.0.9) date 2023-01-21 02:33:53*
%MOMM*%
%LPD*%
G01*
G04 APERTURE LIST*
%ADD10C,0.225000*%
%ADD11C,0.120000*%
%ADD12C,0.150000*%
%ADD13C,0.127000*%
%ADD14C,0.300000*%
%ADD15C,0.200000*%
G04 APERTURE END LIST*
D10*
X201236171Y-94039700D02*
X199736171Y-94039700D01*
X199736171Y-93468271D01*
X199807600Y-93325414D01*
X199879028Y-93253985D01*
X200021885Y-93182557D01*
X200236171Y-93182557D01*
X200379028Y-93253985D01*
X200450457Y-93325414D01*
X200521885Y-93468271D01*
X200521885Y-94039700D01*
X201236171Y-92325414D02*
X201164742Y-92468271D01*
X201093314Y-92539700D01*
X200950457Y-92611128D01*
X200521885Y-92611128D01*
X200379028Y-92539700D01*
X200307600Y-92468271D01*
X200236171Y-92325414D01*
X200236171Y-92111128D01*
X200307600Y-91968271D01*
X200379028Y-91896842D01*
X200521885Y-91825414D01*
X200950457Y-91825414D01*
X201093314Y-91896842D01*
X201164742Y-91968271D01*
X201236171Y-92111128D01*
X201236171Y-92325414D01*
X200236171Y-91325414D02*
X201236171Y-91039700D01*
X200521885Y-90753985D01*
X201236171Y-90468271D01*
X200236171Y-90182557D01*
X201164742Y-89039700D02*
X201236171Y-89182557D01*
X201236171Y-89468271D01*
X201164742Y-89611128D01*
X201021885Y-89682557D01*
X200450457Y-89682557D01*
X200307600Y-89611128D01*
X200236171Y-89468271D01*
X200236171Y-89182557D01*
X200307600Y-89039700D01*
X200450457Y-88968271D01*
X200593314Y-88968271D01*
X200736171Y-89682557D01*
X201236171Y-88325414D02*
X200236171Y-88325414D01*
X200521885Y-88325414D02*
X200379028Y-88253985D01*
X200307600Y-88182557D01*
X200236171Y-88039700D01*
X200236171Y-87896842D01*
X199736171Y-85968271D02*
X199736171Y-85682557D01*
X199807600Y-85539700D01*
X199950457Y-85396842D01*
X200236171Y-85325414D01*
X200736171Y-85325414D01*
X201021885Y-85396842D01*
X201164742Y-85539700D01*
X201236171Y-85682557D01*
X201236171Y-85968271D01*
X201164742Y-86111128D01*
X201021885Y-86253985D01*
X200736171Y-86325414D01*
X200236171Y-86325414D01*
X199950457Y-86253985D01*
X199807600Y-86111128D01*
X199736171Y-85968271D01*
X200236171Y-84682557D02*
X201236171Y-84682557D01*
X200379028Y-84682557D02*
X200307600Y-84611128D01*
X200236171Y-84468271D01*
X200236171Y-84253985D01*
X200307600Y-84111128D01*
X200450457Y-84039700D01*
X201236171Y-84039700D01*
D11*
X176853904Y-81432380D02*
X176853904Y-81813333D01*
X177234857Y-81851428D01*
X177196761Y-81813333D01*
X177158666Y-81737142D01*
X177158666Y-81546666D01*
X177196761Y-81470476D01*
X177234857Y-81432380D01*
X177311047Y-81394285D01*
X177501523Y-81394285D01*
X177577714Y-81432380D01*
X177615809Y-81470476D01*
X177653904Y-81546666D01*
X177653904Y-81737142D01*
X177615809Y-81813333D01*
X177577714Y-81851428D01*
X176853904Y-81165714D02*
X177653904Y-80899047D01*
X176853904Y-80632380D01*
D12*
X112019361Y-89952176D02*
X112066980Y-89809319D01*
X112066980Y-89571223D01*
X112019361Y-89475985D01*
X111971742Y-89428366D01*
X111876504Y-89380747D01*
X111781266Y-89380747D01*
X111686028Y-89428366D01*
X111638409Y-89475985D01*
X111590790Y-89571223D01*
X111543171Y-89761700D01*
X111495552Y-89856938D01*
X111447933Y-89904557D01*
X111352695Y-89952176D01*
X111257457Y-89952176D01*
X111162219Y-89904557D01*
X111114600Y-89856938D01*
X111066980Y-89761700D01*
X111066980Y-89523604D01*
X111114600Y-89380747D01*
X111066980Y-89095033D02*
X111066980Y-88523604D01*
X112066980Y-88809319D02*
X111066980Y-88809319D01*
X111543171Y-88190271D02*
X111543171Y-87856938D01*
X112066980Y-87714080D02*
X112066980Y-88190271D01*
X111066980Y-88190271D01*
X111066980Y-87714080D01*
X112066980Y-87285509D02*
X111066980Y-87285509D01*
X111781266Y-86952176D01*
X111066980Y-86618842D01*
X112066980Y-86618842D01*
X112066980Y-86142652D02*
X111066980Y-86142652D01*
X111781266Y-85809319D01*
X111066980Y-85475985D01*
X112066980Y-85475985D01*
X111781266Y-85047414D02*
X111781266Y-84571223D01*
X112066980Y-85142652D02*
X111066980Y-84809319D01*
X112066980Y-84475985D01*
X113772219Y-88856938D02*
X113724600Y-88952176D01*
X113629361Y-89047414D01*
X113486504Y-89190271D01*
X113438885Y-89285509D01*
X113438885Y-89380747D01*
X113676980Y-89333128D02*
X113629361Y-89428366D01*
X113534123Y-89523604D01*
X113343647Y-89571223D01*
X113010314Y-89571223D01*
X112819838Y-89523604D01*
X112724600Y-89428366D01*
X112676980Y-89333128D01*
X112676980Y-89142652D01*
X112724600Y-89047414D01*
X112819838Y-88952176D01*
X113010314Y-88904557D01*
X113343647Y-88904557D01*
X113534123Y-88952176D01*
X113629361Y-89047414D01*
X113676980Y-89142652D01*
X113676980Y-89333128D01*
X112676980Y-88618842D02*
X112676980Y-88047414D01*
X113676980Y-88333128D02*
X112676980Y-88333128D01*
X113676980Y-86952176D02*
X112676980Y-86952176D01*
X112772219Y-86523604D02*
X112724600Y-86475985D01*
X112676980Y-86380747D01*
X112676980Y-86142652D01*
X112724600Y-86047414D01*
X112772219Y-85999795D01*
X112867457Y-85952176D01*
X112962695Y-85952176D01*
X113105552Y-85999795D01*
X113676980Y-86571223D01*
X113676980Y-85952176D01*
X113581742Y-84952176D02*
X113629361Y-84999795D01*
X113676980Y-85142652D01*
X113676980Y-85237890D01*
X113629361Y-85380747D01*
X113534123Y-85475985D01*
X113438885Y-85523604D01*
X113248409Y-85571223D01*
X113105552Y-85571223D01*
X112915076Y-85523604D01*
X112819838Y-85475985D01*
X112724600Y-85380747D01*
X112676980Y-85237890D01*
X112676980Y-85142652D01*
X112724600Y-84999795D01*
X112772219Y-84952176D01*
X146248380Y-105092333D02*
X145248380Y-105092333D01*
X145724571Y-105092333D02*
X145724571Y-104520904D01*
X146248380Y-104520904D02*
X145248380Y-104520904D01*
X145248380Y-104139952D02*
X146248380Y-103901857D01*
X145534095Y-103711380D01*
X146248380Y-103520904D01*
X145248380Y-103282809D01*
X145248380Y-102711380D02*
X145248380Y-102616142D01*
X145296000Y-102520904D01*
X145343619Y-102473285D01*
X145438857Y-102425666D01*
X145629333Y-102378047D01*
X145867428Y-102378047D01*
X146057904Y-102425666D01*
X146153142Y-102473285D01*
X146200761Y-102520904D01*
X146248380Y-102616142D01*
X146248380Y-102711380D01*
X146200761Y-102806619D01*
X146153142Y-102854238D01*
X146057904Y-102901857D01*
X145867428Y-102949476D01*
X145629333Y-102949476D01*
X145438857Y-102901857D01*
X145343619Y-102854238D01*
X145296000Y-102806619D01*
X145248380Y-102711380D01*
X148740761Y-104616142D02*
X148788380Y-104473285D01*
X148788380Y-104235190D01*
X148740761Y-104139952D01*
X148693142Y-104092333D01*
X148597904Y-104044714D01*
X148502666Y-104044714D01*
X148407428Y-104092333D01*
X148359809Y-104139952D01*
X148312190Y-104235190D01*
X148264571Y-104425666D01*
X148216952Y-104520904D01*
X148169333Y-104568523D01*
X148074095Y-104616142D01*
X147978857Y-104616142D01*
X147883619Y-104568523D01*
X147836000Y-104520904D01*
X147788380Y-104425666D01*
X147788380Y-104187571D01*
X147836000Y-104044714D01*
X147788380Y-103711380D02*
X148788380Y-103473285D01*
X148074095Y-103282809D01*
X148788380Y-103092333D01*
X147788380Y-102854238D01*
X143708380Y-105092333D02*
X142708380Y-105092333D01*
X143184571Y-105092333D02*
X143184571Y-104520904D01*
X143708380Y-104520904D02*
X142708380Y-104520904D01*
X142708380Y-104139952D02*
X143708380Y-103901857D01*
X142994095Y-103711380D01*
X143708380Y-103520904D01*
X142708380Y-103282809D01*
X143708380Y-102378047D02*
X143708380Y-102949476D01*
X143708380Y-102663761D02*
X142708380Y-102663761D01*
X142851238Y-102759000D01*
X142946476Y-102854238D01*
X142994095Y-102949476D01*
D11*
X177234857Y-78187476D02*
X177272952Y-78073190D01*
X177311047Y-78035095D01*
X177387238Y-77997000D01*
X177501523Y-77997000D01*
X177577714Y-78035095D01*
X177615809Y-78073190D01*
X177653904Y-78149380D01*
X177653904Y-78454142D01*
X176853904Y-78454142D01*
X176853904Y-78187476D01*
X176892000Y-78111285D01*
X176930095Y-78073190D01*
X177006285Y-78035095D01*
X177082476Y-78035095D01*
X177158666Y-78073190D01*
X177196761Y-78111285D01*
X177234857Y-78187476D01*
X177234857Y-78454142D01*
X177425333Y-77692238D02*
X177425333Y-77311285D01*
X177653904Y-77768428D02*
X176853904Y-77501761D01*
X177653904Y-77235095D01*
X176853904Y-77082714D02*
X176853904Y-76625571D01*
X177653904Y-76854142D02*
X176853904Y-76854142D01*
X174517190Y-83156904D02*
X174517190Y-82356904D01*
X174821952Y-82356904D01*
X174898142Y-82395000D01*
X174936238Y-82433095D01*
X174974333Y-82509285D01*
X174974333Y-82623571D01*
X174936238Y-82699761D01*
X174898142Y-82737857D01*
X174821952Y-82775952D01*
X174517190Y-82775952D01*
X175241000Y-82623571D02*
X175431476Y-83156904D01*
X175621952Y-82623571D02*
X175431476Y-83156904D01*
X175355285Y-83347380D01*
X175317190Y-83385476D01*
X175241000Y-83423571D01*
X175926714Y-83156904D02*
X175926714Y-82623571D01*
X175926714Y-82775952D02*
X175964809Y-82699761D01*
X176002904Y-82661666D01*
X176079095Y-82623571D01*
X176155285Y-82623571D01*
X176536238Y-83156904D02*
X176460047Y-83118809D01*
X176421952Y-83080714D01*
X176383857Y-83004523D01*
X176383857Y-82775952D01*
X176421952Y-82699761D01*
X176460047Y-82661666D01*
X176536238Y-82623571D01*
X176650523Y-82623571D01*
X176726714Y-82661666D01*
X176764809Y-82699761D01*
X176802904Y-82775952D01*
X176802904Y-83004523D01*
X176764809Y-83080714D01*
X176726714Y-83118809D01*
X176650523Y-83156904D01*
X176536238Y-83156904D01*
X173507666Y-83644904D02*
X173774333Y-84444904D01*
X174041000Y-83644904D01*
X174421952Y-84444904D02*
X174345761Y-84406809D01*
X174307666Y-84368714D01*
X174269571Y-84292523D01*
X174269571Y-84063952D01*
X174307666Y-83987761D01*
X174345761Y-83949666D01*
X174421952Y-83911571D01*
X174536238Y-83911571D01*
X174612428Y-83949666D01*
X174650523Y-83987761D01*
X174688619Y-84063952D01*
X174688619Y-84292523D01*
X174650523Y-84368714D01*
X174612428Y-84406809D01*
X174536238Y-84444904D01*
X174421952Y-84444904D01*
X175145761Y-84444904D02*
X175069571Y-84406809D01*
X175031476Y-84330619D01*
X175031476Y-83644904D01*
X175336238Y-83911571D02*
X175641000Y-83911571D01*
X175450523Y-83644904D02*
X175450523Y-84330619D01*
X175488619Y-84406809D01*
X175564809Y-84444904D01*
X175641000Y-84444904D01*
X176250523Y-84444904D02*
X176250523Y-84025857D01*
X176212428Y-83949666D01*
X176136238Y-83911571D01*
X175983857Y-83911571D01*
X175907666Y-83949666D01*
X176250523Y-84406809D02*
X176174333Y-84444904D01*
X175983857Y-84444904D01*
X175907666Y-84406809D01*
X175869571Y-84330619D01*
X175869571Y-84254428D01*
X175907666Y-84178238D01*
X175983857Y-84140142D01*
X176174333Y-84140142D01*
X176250523Y-84102047D01*
X176974333Y-83911571D02*
X176974333Y-84559190D01*
X176936238Y-84635380D01*
X176898142Y-84673476D01*
X176821952Y-84711571D01*
X176707666Y-84711571D01*
X176631476Y-84673476D01*
X176974333Y-84406809D02*
X176898142Y-84444904D01*
X176745761Y-84444904D01*
X176669571Y-84406809D01*
X176631476Y-84368714D01*
X176593380Y-84292523D01*
X176593380Y-84063952D01*
X176631476Y-83987761D01*
X176669571Y-83949666D01*
X176745761Y-83911571D01*
X176898142Y-83911571D01*
X176974333Y-83949666D01*
X177660047Y-84406809D02*
X177583857Y-84444904D01*
X177431476Y-84444904D01*
X177355285Y-84406809D01*
X177317190Y-84330619D01*
X177317190Y-84025857D01*
X177355285Y-83949666D01*
X177431476Y-83911571D01*
X177583857Y-83911571D01*
X177660047Y-83949666D01*
X177698142Y-84025857D01*
X177698142Y-84102047D01*
X177317190Y-84178238D01*
D12*
X121143085Y-106991075D02*
X121809752Y-107991075D01*
X121809752Y-106991075D02*
X121143085Y-107991075D01*
X122524038Y-107467266D02*
X122666895Y-107514885D01*
X122714514Y-107562504D01*
X122762133Y-107657742D01*
X122762133Y-107800599D01*
X122714514Y-107895837D01*
X122666895Y-107943456D01*
X122571657Y-107991075D01*
X122190704Y-107991075D01*
X122190704Y-106991075D01*
X122524038Y-106991075D01*
X122619276Y-107038695D01*
X122666895Y-107086314D01*
X122714514Y-107181552D01*
X122714514Y-107276790D01*
X122666895Y-107372028D01*
X122619276Y-107419647D01*
X122524038Y-107467266D01*
X122190704Y-107467266D01*
X123571657Y-107943456D02*
X123476419Y-107991075D01*
X123285942Y-107991075D01*
X123190704Y-107943456D01*
X123143085Y-107848218D01*
X123143085Y-107467266D01*
X123190704Y-107372028D01*
X123285942Y-107324409D01*
X123476419Y-107324409D01*
X123571657Y-107372028D01*
X123619276Y-107467266D01*
X123619276Y-107562504D01*
X123143085Y-107657742D01*
X124428800Y-107943456D02*
X124333562Y-107991075D01*
X124143085Y-107991075D01*
X124047847Y-107943456D01*
X124000228Y-107848218D01*
X124000228Y-107467266D01*
X124047847Y-107372028D01*
X124143085Y-107324409D01*
X124333562Y-107324409D01*
X124428800Y-107372028D01*
X124476419Y-107467266D01*
X124476419Y-107562504D01*
X124000228Y-107657742D01*
X120452609Y-109601075D02*
X120452609Y-108601075D01*
X120785942Y-109315361D01*
X121119276Y-108601075D01*
X121119276Y-109601075D01*
X121738323Y-109601075D02*
X121643085Y-109553456D01*
X121595466Y-109505837D01*
X121547847Y-109410599D01*
X121547847Y-109124885D01*
X121595466Y-109029647D01*
X121643085Y-108982028D01*
X121738323Y-108934409D01*
X121881181Y-108934409D01*
X121976419Y-108982028D01*
X122024038Y-109029647D01*
X122071657Y-109124885D01*
X122071657Y-109410599D01*
X122024038Y-109505837D01*
X121976419Y-109553456D01*
X121881181Y-109601075D01*
X121738323Y-109601075D01*
X122928800Y-109601075D02*
X122928800Y-108601075D01*
X122928800Y-109553456D02*
X122833562Y-109601075D01*
X122643085Y-109601075D01*
X122547847Y-109553456D01*
X122500228Y-109505837D01*
X122452609Y-109410599D01*
X122452609Y-109124885D01*
X122500228Y-109029647D01*
X122547847Y-108982028D01*
X122643085Y-108934409D01*
X122833562Y-108934409D01*
X122928800Y-108982028D01*
X123833562Y-108934409D02*
X123833562Y-109601075D01*
X123404990Y-108934409D02*
X123404990Y-109458218D01*
X123452609Y-109553456D01*
X123547847Y-109601075D01*
X123690704Y-109601075D01*
X123785942Y-109553456D01*
X123833562Y-109505837D01*
X124452609Y-109601075D02*
X124357371Y-109553456D01*
X124309752Y-109458218D01*
X124309752Y-108601075D01*
X125214514Y-109553456D02*
X125119276Y-109601075D01*
X124928800Y-109601075D01*
X124833562Y-109553456D01*
X124785942Y-109458218D01*
X124785942Y-109077266D01*
X124833562Y-108982028D01*
X124928800Y-108934409D01*
X125119276Y-108934409D01*
X125214514Y-108982028D01*
X125262133Y-109077266D01*
X125262133Y-109172504D01*
X124785942Y-109267742D01*
%TO.C,S2*%
X212562733Y-91746461D02*
X212705590Y-91794080D01*
X212943685Y-91794080D01*
X213038923Y-91746461D01*
X213086542Y-91698842D01*
X213134161Y-91603604D01*
X213134161Y-91508366D01*
X213086542Y-91413128D01*
X213038923Y-91365509D01*
X212943685Y-91317890D01*
X212753209Y-91270271D01*
X212657971Y-91222652D01*
X212610352Y-91175033D01*
X212562733Y-91079795D01*
X212562733Y-90984557D01*
X212610352Y-90889319D01*
X212657971Y-90841700D01*
X212753209Y-90794080D01*
X212991304Y-90794080D01*
X213134161Y-90841700D01*
X213515114Y-90889319D02*
X213562733Y-90841700D01*
X213657971Y-90794080D01*
X213896066Y-90794080D01*
X213991304Y-90841700D01*
X214038923Y-90889319D01*
X214086542Y-90984557D01*
X214086542Y-91079795D01*
X214038923Y-91222652D01*
X213467495Y-91794080D01*
X214086542Y-91794080D01*
%TO.C,S5*%
X120714361Y-76018604D02*
X120761980Y-75875747D01*
X120761980Y-75637652D01*
X120714361Y-75542414D01*
X120666742Y-75494795D01*
X120571504Y-75447176D01*
X120476266Y-75447176D01*
X120381028Y-75494795D01*
X120333409Y-75542414D01*
X120285790Y-75637652D01*
X120238171Y-75828128D01*
X120190552Y-75923366D01*
X120142933Y-75970985D01*
X120047695Y-76018604D01*
X119952457Y-76018604D01*
X119857219Y-75970985D01*
X119809600Y-75923366D01*
X119761980Y-75828128D01*
X119761980Y-75590033D01*
X119809600Y-75447176D01*
X119761980Y-74542414D02*
X119761980Y-75018604D01*
X120238171Y-75066223D01*
X120190552Y-75018604D01*
X120142933Y-74923366D01*
X120142933Y-74685271D01*
X120190552Y-74590033D01*
X120238171Y-74542414D01*
X120333409Y-74494795D01*
X120571504Y-74494795D01*
X120666742Y-74542414D01*
X120714361Y-74590033D01*
X120761980Y-74685271D01*
X120761980Y-74923366D01*
X120714361Y-75018604D01*
X120666742Y-75066223D01*
%TO.C,S6*%
X111824361Y-76018604D02*
X111871980Y-75875747D01*
X111871980Y-75637652D01*
X111824361Y-75542414D01*
X111776742Y-75494795D01*
X111681504Y-75447176D01*
X111586266Y-75447176D01*
X111491028Y-75494795D01*
X111443409Y-75542414D01*
X111395790Y-75637652D01*
X111348171Y-75828128D01*
X111300552Y-75923366D01*
X111252933Y-75970985D01*
X111157695Y-76018604D01*
X111062457Y-76018604D01*
X110967219Y-75970985D01*
X110919600Y-75923366D01*
X110871980Y-75828128D01*
X110871980Y-75590033D01*
X110919600Y-75447176D01*
X110871980Y-74590033D02*
X110871980Y-74780509D01*
X110919600Y-74875747D01*
X110967219Y-74923366D01*
X111110076Y-75018604D01*
X111300552Y-75066223D01*
X111681504Y-75066223D01*
X111776742Y-75018604D01*
X111824361Y-74970985D01*
X111871980Y-74875747D01*
X111871980Y-74685271D01*
X111824361Y-74590033D01*
X111776742Y-74542414D01*
X111681504Y-74494795D01*
X111443409Y-74494795D01*
X111348171Y-74542414D01*
X111300552Y-74590033D01*
X111252933Y-74685271D01*
X111252933Y-74875747D01*
X111300552Y-74970985D01*
X111348171Y-75018604D01*
X111443409Y-75066223D01*
%TO.C,S7*%
X102192695Y-101366461D02*
X102335552Y-101414080D01*
X102573647Y-101414080D01*
X102668885Y-101366461D01*
X102716504Y-101318842D01*
X102764123Y-101223604D01*
X102764123Y-101128366D01*
X102716504Y-101033128D01*
X102668885Y-100985509D01*
X102573647Y-100937890D01*
X102383171Y-100890271D01*
X102287933Y-100842652D01*
X102240314Y-100795033D01*
X102192695Y-100699795D01*
X102192695Y-100604557D01*
X102240314Y-100509319D01*
X102287933Y-100461700D01*
X102383171Y-100414080D01*
X102621266Y-100414080D01*
X102764123Y-100461700D01*
X103097457Y-100414080D02*
X103764123Y-100414080D01*
X103335552Y-101414080D01*
%TO.C,S8*%
X102192695Y-110256461D02*
X102335552Y-110304080D01*
X102573647Y-110304080D01*
X102668885Y-110256461D01*
X102716504Y-110208842D01*
X102764123Y-110113604D01*
X102764123Y-110018366D01*
X102716504Y-109923128D01*
X102668885Y-109875509D01*
X102573647Y-109827890D01*
X102383171Y-109780271D01*
X102287933Y-109732652D01*
X102240314Y-109685033D01*
X102192695Y-109589795D01*
X102192695Y-109494557D01*
X102240314Y-109399319D01*
X102287933Y-109351700D01*
X102383171Y-109304080D01*
X102621266Y-109304080D01*
X102764123Y-109351700D01*
X103335552Y-109732652D02*
X103240314Y-109685033D01*
X103192695Y-109637414D01*
X103145076Y-109542176D01*
X103145076Y-109494557D01*
X103192695Y-109399319D01*
X103240314Y-109351700D01*
X103335552Y-109304080D01*
X103526028Y-109304080D01*
X103621266Y-109351700D01*
X103668885Y-109399319D01*
X103716504Y-109494557D01*
X103716504Y-109542176D01*
X103668885Y-109637414D01*
X103621266Y-109685033D01*
X103526028Y-109732652D01*
X103335552Y-109732652D01*
X103240314Y-109780271D01*
X103192695Y-109827890D01*
X103145076Y-109923128D01*
X103145076Y-110113604D01*
X103192695Y-110208842D01*
X103240314Y-110256461D01*
X103335552Y-110304080D01*
X103526028Y-110304080D01*
X103621266Y-110256461D01*
X103668885Y-110208842D01*
X103716504Y-110113604D01*
X103716504Y-109923128D01*
X103668885Y-109827890D01*
X103621266Y-109780271D01*
X103526028Y-109732652D01*
%TO.C,S9*%
X102192695Y-119146461D02*
X102335552Y-119194080D01*
X102573647Y-119194080D01*
X102668885Y-119146461D01*
X102716504Y-119098842D01*
X102764123Y-119003604D01*
X102764123Y-118908366D01*
X102716504Y-118813128D01*
X102668885Y-118765509D01*
X102573647Y-118717890D01*
X102383171Y-118670271D01*
X102287933Y-118622652D01*
X102240314Y-118575033D01*
X102192695Y-118479795D01*
X102192695Y-118384557D01*
X102240314Y-118289319D01*
X102287933Y-118241700D01*
X102383171Y-118194080D01*
X102621266Y-118194080D01*
X102764123Y-118241700D01*
X103240314Y-119194080D02*
X103430790Y-119194080D01*
X103526028Y-119146461D01*
X103573647Y-119098842D01*
X103668885Y-118955985D01*
X103716504Y-118765509D01*
X103716504Y-118384557D01*
X103668885Y-118289319D01*
X103621266Y-118241700D01*
X103526028Y-118194080D01*
X103335552Y-118194080D01*
X103240314Y-118241700D01*
X103192695Y-118289319D01*
X103145076Y-118384557D01*
X103145076Y-118622652D01*
X103192695Y-118717890D01*
X103240314Y-118765509D01*
X103335552Y-118813128D01*
X103526028Y-118813128D01*
X103621266Y-118765509D01*
X103668885Y-118717890D01*
X103716504Y-118622652D01*
%TO.C,S4*%
X130874361Y-76018604D02*
X130921980Y-75875747D01*
X130921980Y-75637652D01*
X130874361Y-75542414D01*
X130826742Y-75494795D01*
X130731504Y-75447176D01*
X130636266Y-75447176D01*
X130541028Y-75494795D01*
X130493409Y-75542414D01*
X130445790Y-75637652D01*
X130398171Y-75828128D01*
X130350552Y-75923366D01*
X130302933Y-75970985D01*
X130207695Y-76018604D01*
X130112457Y-76018604D01*
X130017219Y-75970985D01*
X129969600Y-75923366D01*
X129921980Y-75828128D01*
X129921980Y-75590033D01*
X129969600Y-75447176D01*
X130255314Y-74590033D02*
X130921980Y-74590033D01*
X129874361Y-74828128D02*
X130588647Y-75066223D01*
X130588647Y-74447176D01*
%TO.C,S3*%
X139764361Y-76018604D02*
X139811980Y-75875747D01*
X139811980Y-75637652D01*
X139764361Y-75542414D01*
X139716742Y-75494795D01*
X139621504Y-75447176D01*
X139526266Y-75447176D01*
X139431028Y-75494795D01*
X139383409Y-75542414D01*
X139335790Y-75637652D01*
X139288171Y-75828128D01*
X139240552Y-75923366D01*
X139192933Y-75970985D01*
X139097695Y-76018604D01*
X139002457Y-76018604D01*
X138907219Y-75970985D01*
X138859600Y-75923366D01*
X138811980Y-75828128D01*
X138811980Y-75590033D01*
X138859600Y-75447176D01*
X138811980Y-75113842D02*
X138811980Y-74494795D01*
X139192933Y-74828128D01*
X139192933Y-74685271D01*
X139240552Y-74590033D01*
X139288171Y-74542414D01*
X139383409Y-74494795D01*
X139621504Y-74494795D01*
X139716742Y-74542414D01*
X139764361Y-74590033D01*
X139811980Y-74685271D01*
X139811980Y-74970985D01*
X139764361Y-75066223D01*
X139716742Y-75113842D01*
%TO.C,J3*%
X192627942Y-124619028D02*
X193342228Y-124619028D01*
X193485085Y-124666647D01*
X193580323Y-124761885D01*
X193627942Y-124904742D01*
X193627942Y-124999980D01*
X192627942Y-124238075D02*
X192627942Y-123619028D01*
X193008895Y-123952361D01*
X193008895Y-123809504D01*
X193056514Y-123714266D01*
X193104133Y-123666647D01*
X193199371Y-123619028D01*
X193437466Y-123619028D01*
X193532704Y-123666647D01*
X193580323Y-123714266D01*
X193627942Y-123809504D01*
X193627942Y-124095218D01*
X193580323Y-124190456D01*
X193532704Y-124238075D01*
%TO.C,U5*%
X185825657Y-85444075D02*
X185825657Y-86253599D01*
X185873276Y-86348837D01*
X185920895Y-86396456D01*
X186016133Y-86444075D01*
X186206609Y-86444075D01*
X186301847Y-86396456D01*
X186349466Y-86348837D01*
X186397085Y-86253599D01*
X186397085Y-85444075D01*
X187349466Y-85444075D02*
X186873276Y-85444075D01*
X186825657Y-85920266D01*
X186873276Y-85872647D01*
X186968514Y-85825028D01*
X187206609Y-85825028D01*
X187301847Y-85872647D01*
X187349466Y-85920266D01*
X187397085Y-86015504D01*
X187397085Y-86253599D01*
X187349466Y-86348837D01*
X187301847Y-86396456D01*
X187206609Y-86444075D01*
X186968514Y-86444075D01*
X186873276Y-86396456D01*
X186825657Y-86348837D01*
%TO.C,R12*%
X170144880Y-89643976D02*
X169668690Y-89977309D01*
X170144880Y-90215404D02*
X169144880Y-90215404D01*
X169144880Y-89834452D01*
X169192500Y-89739214D01*
X169240119Y-89691595D01*
X169335357Y-89643976D01*
X169478214Y-89643976D01*
X169573452Y-89691595D01*
X169621071Y-89739214D01*
X169668690Y-89834452D01*
X169668690Y-90215404D01*
X170144880Y-88691595D02*
X170144880Y-89263023D01*
X170144880Y-88977309D02*
X169144880Y-88977309D01*
X169287738Y-89072547D01*
X169382976Y-89167785D01*
X169430595Y-89263023D01*
X169240119Y-88310642D02*
X169192500Y-88263023D01*
X169144880Y-88167785D01*
X169144880Y-87929690D01*
X169192500Y-87834452D01*
X169240119Y-87786833D01*
X169335357Y-87739214D01*
X169430595Y-87739214D01*
X169573452Y-87786833D01*
X170144880Y-88358261D01*
X170144880Y-87739214D01*
%TO.C,C9*%
X147661333Y-88335142D02*
X147613714Y-88382761D01*
X147470857Y-88430380D01*
X147375619Y-88430380D01*
X147232761Y-88382761D01*
X147137523Y-88287523D01*
X147089904Y-88192285D01*
X147042285Y-88001809D01*
X147042285Y-87858952D01*
X147089904Y-87668476D01*
X147137523Y-87573238D01*
X147232761Y-87478000D01*
X147375619Y-87430380D01*
X147470857Y-87430380D01*
X147613714Y-87478000D01*
X147661333Y-87525619D01*
X148137523Y-88430380D02*
X148328000Y-88430380D01*
X148423238Y-88382761D01*
X148470857Y-88335142D01*
X148566095Y-88192285D01*
X148613714Y-88001809D01*
X148613714Y-87620857D01*
X148566095Y-87525619D01*
X148518476Y-87478000D01*
X148423238Y-87430380D01*
X148232761Y-87430380D01*
X148137523Y-87478000D01*
X148089904Y-87525619D01*
X148042285Y-87620857D01*
X148042285Y-87858952D01*
X148089904Y-87954190D01*
X148137523Y-88001809D01*
X148232761Y-88049428D01*
X148423238Y-88049428D01*
X148518476Y-88001809D01*
X148566095Y-87954190D01*
X148613714Y-87858952D01*
%TO.C,R7*%
X157469442Y-93974671D02*
X156993252Y-94308004D01*
X157469442Y-94546099D02*
X156469442Y-94546099D01*
X156469442Y-94165147D01*
X156517062Y-94069909D01*
X156564681Y-94022290D01*
X156659919Y-93974671D01*
X156802776Y-93974671D01*
X156898014Y-94022290D01*
X156945633Y-94069909D01*
X156993252Y-94165147D01*
X156993252Y-94546099D01*
X156469442Y-93641337D02*
X156469442Y-92974671D01*
X157469442Y-93403242D01*
%TO.C,U3*%
X125690380Y-90042904D02*
X126499904Y-90042904D01*
X126595142Y-89995285D01*
X126642761Y-89947666D01*
X126690380Y-89852428D01*
X126690380Y-89661952D01*
X126642761Y-89566714D01*
X126595142Y-89519095D01*
X126499904Y-89471476D01*
X125690380Y-89471476D01*
X125690380Y-89090523D02*
X125690380Y-88471476D01*
X126071333Y-88804809D01*
X126071333Y-88661952D01*
X126118952Y-88566714D01*
X126166571Y-88519095D01*
X126261809Y-88471476D01*
X126499904Y-88471476D01*
X126595142Y-88519095D01*
X126642761Y-88566714D01*
X126690380Y-88661952D01*
X126690380Y-88947666D01*
X126642761Y-89042904D01*
X126595142Y-89090523D01*
%TO.C,R6*%
X185023895Y-90635075D02*
X184690562Y-90158885D01*
X184452466Y-90635075D02*
X184452466Y-89635075D01*
X184833419Y-89635075D01*
X184928657Y-89682695D01*
X184976276Y-89730314D01*
X185023895Y-89825552D01*
X185023895Y-89968409D01*
X184976276Y-90063647D01*
X184928657Y-90111266D01*
X184833419Y-90158885D01*
X184452466Y-90158885D01*
X185881038Y-89635075D02*
X185690562Y-89635075D01*
X185595323Y-89682695D01*
X185547704Y-89730314D01*
X185452466Y-89873171D01*
X185404847Y-90063647D01*
X185404847Y-90444599D01*
X185452466Y-90539837D01*
X185500085Y-90587456D01*
X185595323Y-90635075D01*
X185785800Y-90635075D01*
X185881038Y-90587456D01*
X185928657Y-90539837D01*
X185976276Y-90444599D01*
X185976276Y-90206504D01*
X185928657Y-90111266D01*
X185881038Y-90063647D01*
X185785800Y-90016028D01*
X185595323Y-90016028D01*
X185500085Y-90063647D01*
X185452466Y-90111266D01*
X185404847Y-90206504D01*
%TO.C,C6*%
X145399895Y-85459837D02*
X145352276Y-85507456D01*
X145209419Y-85555075D01*
X145114181Y-85555075D01*
X144971323Y-85507456D01*
X144876085Y-85412218D01*
X144828466Y-85316980D01*
X144780847Y-85126504D01*
X144780847Y-84983647D01*
X144828466Y-84793171D01*
X144876085Y-84697933D01*
X144971323Y-84602695D01*
X145114181Y-84555075D01*
X145209419Y-84555075D01*
X145352276Y-84602695D01*
X145399895Y-84650314D01*
X146257038Y-84555075D02*
X146066562Y-84555075D01*
X145971323Y-84602695D01*
X145923704Y-84650314D01*
X145828466Y-84793171D01*
X145780847Y-84983647D01*
X145780847Y-85364599D01*
X145828466Y-85459837D01*
X145876085Y-85507456D01*
X145971323Y-85555075D01*
X146161800Y-85555075D01*
X146257038Y-85507456D01*
X146304657Y-85459837D01*
X146352276Y-85364599D01*
X146352276Y-85126504D01*
X146304657Y-85031266D01*
X146257038Y-84983647D01*
X146161800Y-84936028D01*
X145971323Y-84936028D01*
X145876085Y-84983647D01*
X145828466Y-85031266D01*
X145780847Y-85126504D01*
%TO.C,C2*%
X189156704Y-85498361D02*
X189204323Y-85545980D01*
X189251942Y-85688837D01*
X189251942Y-85784075D01*
X189204323Y-85926933D01*
X189109085Y-86022171D01*
X189013847Y-86069790D01*
X188823371Y-86117409D01*
X188680514Y-86117409D01*
X188490038Y-86069790D01*
X188394800Y-86022171D01*
X188299562Y-85926933D01*
X188251942Y-85784075D01*
X188251942Y-85688837D01*
X188299562Y-85545980D01*
X188347181Y-85498361D01*
X188347181Y-85117409D02*
X188299562Y-85069790D01*
X188251942Y-84974552D01*
X188251942Y-84736456D01*
X188299562Y-84641218D01*
X188347181Y-84593599D01*
X188442419Y-84545980D01*
X188537657Y-84545980D01*
X188680514Y-84593599D01*
X189251942Y-85165028D01*
X189251942Y-84545980D01*
%TO.C,J13*%
X160501780Y-111571944D02*
X161216066Y-111571944D01*
X161358923Y-111619563D01*
X161454161Y-111714801D01*
X161501780Y-111857659D01*
X161501780Y-111952897D01*
X161501780Y-110571944D02*
X161501780Y-111143373D01*
X161501780Y-110857659D02*
X160501780Y-110857659D01*
X160644638Y-110952897D01*
X160739876Y-111048135D01*
X160787495Y-111143373D01*
X160501780Y-110238611D02*
X160501780Y-109619563D01*
X160882733Y-109952897D01*
X160882733Y-109810040D01*
X160930352Y-109714801D01*
X160977971Y-109667182D01*
X161073209Y-109619563D01*
X161311304Y-109619563D01*
X161406542Y-109667182D01*
X161454161Y-109714801D01*
X161501780Y-109810040D01*
X161501780Y-110095754D01*
X161454161Y-110190992D01*
X161406542Y-110238611D01*
%TO.C,C3*%
X190373704Y-93466666D02*
X190421323Y-93514285D01*
X190468942Y-93657142D01*
X190468942Y-93752380D01*
X190421323Y-93895238D01*
X190326085Y-93990476D01*
X190230847Y-94038095D01*
X190040371Y-94085714D01*
X189897514Y-94085714D01*
X189707038Y-94038095D01*
X189611800Y-93990476D01*
X189516562Y-93895238D01*
X189468942Y-93752380D01*
X189468942Y-93657142D01*
X189516562Y-93514285D01*
X189564181Y-93466666D01*
X189468942Y-93133333D02*
X189468942Y-92514285D01*
X189849895Y-92847619D01*
X189849895Y-92704761D01*
X189897514Y-92609523D01*
X189945133Y-92561904D01*
X190040371Y-92514285D01*
X190278466Y-92514285D01*
X190373704Y-92561904D01*
X190421323Y-92609523D01*
X190468942Y-92704761D01*
X190468942Y-92990476D01*
X190421323Y-93085714D01*
X190373704Y-93133333D01*
%TO.C,C1*%
X190957142Y-90466666D02*
X191004761Y-90514285D01*
X191052380Y-90657142D01*
X191052380Y-90752380D01*
X191004761Y-90895238D01*
X190909523Y-90990476D01*
X190814285Y-91038095D01*
X190623809Y-91085714D01*
X190480952Y-91085714D01*
X190290476Y-91038095D01*
X190195238Y-90990476D01*
X190100000Y-90895238D01*
X190052380Y-90752380D01*
X190052380Y-90657142D01*
X190100000Y-90514285D01*
X190147619Y-90466666D01*
X191052380Y-89514285D02*
X191052380Y-90085714D01*
X191052380Y-89800000D02*
X190052380Y-89800000D01*
X190195238Y-89895238D01*
X190290476Y-89990476D01*
X190338095Y-90085714D01*
%TO.C,R10*%
X175478880Y-89516976D02*
X175002690Y-89850309D01*
X175478880Y-90088404D02*
X174478880Y-90088404D01*
X174478880Y-89707452D01*
X174526500Y-89612214D01*
X174574119Y-89564595D01*
X174669357Y-89516976D01*
X174812214Y-89516976D01*
X174907452Y-89564595D01*
X174955071Y-89612214D01*
X175002690Y-89707452D01*
X175002690Y-90088404D01*
X175478880Y-88564595D02*
X175478880Y-89136023D01*
X175478880Y-88850309D02*
X174478880Y-88850309D01*
X174621738Y-88945547D01*
X174716976Y-89040785D01*
X174764595Y-89136023D01*
X174478880Y-87945547D02*
X174478880Y-87850309D01*
X174526500Y-87755071D01*
X174574119Y-87707452D01*
X174669357Y-87659833D01*
X174859833Y-87612214D01*
X175097928Y-87612214D01*
X175288404Y-87659833D01*
X175383642Y-87707452D01*
X175431261Y-87755071D01*
X175478880Y-87850309D01*
X175478880Y-87945547D01*
X175431261Y-88040785D01*
X175383642Y-88088404D01*
X175288404Y-88136023D01*
X175097928Y-88183642D01*
X174859833Y-88183642D01*
X174669357Y-88136023D01*
X174574119Y-88088404D01*
X174526500Y-88040785D01*
X174478880Y-87945547D01*
%TO.C,R17*%
X205962980Y-79903557D02*
X205486790Y-80236890D01*
X205962980Y-80474985D02*
X204962980Y-80474985D01*
X204962980Y-80094033D01*
X205010600Y-79998795D01*
X205058219Y-79951176D01*
X205153457Y-79903557D01*
X205296314Y-79903557D01*
X205391552Y-79951176D01*
X205439171Y-79998795D01*
X205486790Y-80094033D01*
X205486790Y-80474985D01*
X205962980Y-78951176D02*
X205962980Y-79522604D01*
X205962980Y-79236890D02*
X204962980Y-79236890D01*
X205105838Y-79332128D01*
X205201076Y-79427366D01*
X205248695Y-79522604D01*
X204962980Y-78617842D02*
X204962980Y-77951176D01*
X205962980Y-78379747D01*
%TO.C,C10*%
X118789807Y-82411837D02*
X118742188Y-82459456D01*
X118599331Y-82507075D01*
X118504093Y-82507075D01*
X118361236Y-82459456D01*
X118265998Y-82364218D01*
X118218379Y-82268980D01*
X118170760Y-82078504D01*
X118170760Y-81935647D01*
X118218379Y-81745171D01*
X118265998Y-81649933D01*
X118361236Y-81554695D01*
X118504093Y-81507075D01*
X118599331Y-81507075D01*
X118742188Y-81554695D01*
X118789807Y-81602314D01*
X119742188Y-82507075D02*
X119170760Y-82507075D01*
X119456474Y-82507075D02*
X119456474Y-81507075D01*
X119361236Y-81649933D01*
X119265998Y-81745171D01*
X119170760Y-81792790D01*
X120361236Y-81507075D02*
X120456474Y-81507075D01*
X120551712Y-81554695D01*
X120599331Y-81602314D01*
X120646950Y-81697552D01*
X120694569Y-81888028D01*
X120694569Y-82126123D01*
X120646950Y-82316599D01*
X120599331Y-82411837D01*
X120551712Y-82459456D01*
X120456474Y-82507075D01*
X120361236Y-82507075D01*
X120265998Y-82459456D01*
X120218379Y-82411837D01*
X120170760Y-82316599D01*
X120123141Y-82126123D01*
X120123141Y-81888028D01*
X120170760Y-81697552D01*
X120218379Y-81602314D01*
X120265998Y-81554695D01*
X120361236Y-81507075D01*
%TO.C,R8*%
X160009442Y-93974671D02*
X159533252Y-94308004D01*
X160009442Y-94546099D02*
X159009442Y-94546099D01*
X159009442Y-94165147D01*
X159057062Y-94069909D01*
X159104681Y-94022290D01*
X159199919Y-93974671D01*
X159342776Y-93974671D01*
X159438014Y-94022290D01*
X159485633Y-94069909D01*
X159533252Y-94165147D01*
X159533252Y-94546099D01*
X159438014Y-93403242D02*
X159390395Y-93498480D01*
X159342776Y-93546099D01*
X159247538Y-93593718D01*
X159199919Y-93593718D01*
X159104681Y-93546099D01*
X159057062Y-93498480D01*
X159009442Y-93403242D01*
X159009442Y-93212766D01*
X159057062Y-93117528D01*
X159104681Y-93069909D01*
X159199919Y-93022290D01*
X159247538Y-93022290D01*
X159342776Y-93069909D01*
X159390395Y-93117528D01*
X159438014Y-93212766D01*
X159438014Y-93403242D01*
X159485633Y-93498480D01*
X159533252Y-93546099D01*
X159628490Y-93593718D01*
X159818966Y-93593718D01*
X159914204Y-93546099D01*
X159961823Y-93498480D01*
X160009442Y-93403242D01*
X160009442Y-93212766D01*
X159961823Y-93117528D01*
X159914204Y-93069909D01*
X159818966Y-93022290D01*
X159628490Y-93022290D01*
X159533252Y-93069909D01*
X159485633Y-93117528D01*
X159438014Y-93212766D01*
%TO.C,S0*%
X212562733Y-109526461D02*
X212705590Y-109574080D01*
X212943685Y-109574080D01*
X213038923Y-109526461D01*
X213086542Y-109478842D01*
X213134161Y-109383604D01*
X213134161Y-109288366D01*
X213086542Y-109193128D01*
X213038923Y-109145509D01*
X212943685Y-109097890D01*
X212753209Y-109050271D01*
X212657971Y-109002652D01*
X212610352Y-108955033D01*
X212562733Y-108859795D01*
X212562733Y-108764557D01*
X212610352Y-108669319D01*
X212657971Y-108621700D01*
X212753209Y-108574080D01*
X212991304Y-108574080D01*
X213134161Y-108621700D01*
X213753209Y-108574080D02*
X213848447Y-108574080D01*
X213943685Y-108621700D01*
X213991304Y-108669319D01*
X214038923Y-108764557D01*
X214086542Y-108955033D01*
X214086542Y-109193128D01*
X214038923Y-109383604D01*
X213991304Y-109478842D01*
X213943685Y-109526461D01*
X213848447Y-109574080D01*
X213753209Y-109574080D01*
X213657971Y-109526461D01*
X213610352Y-109478842D01*
X213562733Y-109383604D01*
X213515114Y-109193128D01*
X213515114Y-108955033D01*
X213562733Y-108764557D01*
X213610352Y-108669319D01*
X213657971Y-108621700D01*
X213753209Y-108574080D01*
%TO.C,R3*%
X180950942Y-92468361D02*
X180474752Y-92801695D01*
X180950942Y-93039790D02*
X179950942Y-93039790D01*
X179950942Y-92658837D01*
X179998562Y-92563599D01*
X180046181Y-92515980D01*
X180141419Y-92468361D01*
X180284276Y-92468361D01*
X180379514Y-92515980D01*
X180427133Y-92563599D01*
X180474752Y-92658837D01*
X180474752Y-93039790D01*
X179950942Y-92135028D02*
X179950942Y-91515980D01*
X180331895Y-91849314D01*
X180331895Y-91706456D01*
X180379514Y-91611218D01*
X180427133Y-91563599D01*
X180522371Y-91515980D01*
X180760466Y-91515980D01*
X180855704Y-91563599D01*
X180903323Y-91611218D01*
X180950942Y-91706456D01*
X180950942Y-91992171D01*
X180903323Y-92087409D01*
X180855704Y-92135028D01*
%TO.C,R2*%
X139152333Y-111864380D02*
X138819000Y-111388190D01*
X138580904Y-111864380D02*
X138580904Y-110864380D01*
X138961857Y-110864380D01*
X139057095Y-110912000D01*
X139104714Y-110959619D01*
X139152333Y-111054857D01*
X139152333Y-111197714D01*
X139104714Y-111292952D01*
X139057095Y-111340571D01*
X138961857Y-111388190D01*
X138580904Y-111388190D01*
X139533285Y-110959619D02*
X139580904Y-110912000D01*
X139676142Y-110864380D01*
X139914238Y-110864380D01*
X140009476Y-110912000D01*
X140057095Y-110959619D01*
X140104714Y-111054857D01*
X140104714Y-111150095D01*
X140057095Y-111292952D01*
X139485666Y-111864380D01*
X140104714Y-111864380D01*
%TO.C,C8*%
X140057142Y-90336666D02*
X140104761Y-90384285D01*
X140152380Y-90527142D01*
X140152380Y-90622380D01*
X140104761Y-90765238D01*
X140009523Y-90860476D01*
X139914285Y-90908095D01*
X139723809Y-90955714D01*
X139580952Y-90955714D01*
X139390476Y-90908095D01*
X139295238Y-90860476D01*
X139200000Y-90765238D01*
X139152380Y-90622380D01*
X139152380Y-90527142D01*
X139200000Y-90384285D01*
X139247619Y-90336666D01*
X139580952Y-89765238D02*
X139533333Y-89860476D01*
X139485714Y-89908095D01*
X139390476Y-89955714D01*
X139342857Y-89955714D01*
X139247619Y-89908095D01*
X139200000Y-89860476D01*
X139152380Y-89765238D01*
X139152380Y-89574761D01*
X139200000Y-89479523D01*
X139247619Y-89431904D01*
X139342857Y-89384285D01*
X139390476Y-89384285D01*
X139485714Y-89431904D01*
X139533333Y-89479523D01*
X139580952Y-89574761D01*
X139580952Y-89765238D01*
X139628571Y-89860476D01*
X139676190Y-89908095D01*
X139771428Y-89955714D01*
X139961904Y-89955714D01*
X140057142Y-89908095D01*
X140104761Y-89860476D01*
X140152380Y-89765238D01*
X140152380Y-89574761D01*
X140104761Y-89479523D01*
X140057142Y-89431904D01*
X139961904Y-89384285D01*
X139771428Y-89384285D01*
X139676190Y-89431904D01*
X139628571Y-89479523D01*
X139580952Y-89574761D01*
%TO.C,R14*%
X158739442Y-93974671D02*
X158263252Y-94308004D01*
X158739442Y-94546099D02*
X157739442Y-94546099D01*
X157739442Y-94165147D01*
X157787062Y-94069909D01*
X157834681Y-94022290D01*
X157929919Y-93974671D01*
X158072776Y-93974671D01*
X158168014Y-94022290D01*
X158215633Y-94069909D01*
X158263252Y-94165147D01*
X158263252Y-94546099D01*
X158739442Y-93022290D02*
X158739442Y-93593718D01*
X158739442Y-93308004D02*
X157739442Y-93308004D01*
X157882300Y-93403242D01*
X157977538Y-93498480D01*
X158025157Y-93593718D01*
X158072776Y-92165147D02*
X158739442Y-92165147D01*
X157691823Y-92403242D02*
X158406109Y-92641337D01*
X158406109Y-92022290D01*
%TO.C,R4*%
X183245895Y-90635075D02*
X182912562Y-90158885D01*
X182674466Y-90635075D02*
X182674466Y-89635075D01*
X183055419Y-89635075D01*
X183150657Y-89682695D01*
X183198276Y-89730314D01*
X183245895Y-89825552D01*
X183245895Y-89968409D01*
X183198276Y-90063647D01*
X183150657Y-90111266D01*
X183055419Y-90158885D01*
X182674466Y-90158885D01*
X184103038Y-89968409D02*
X184103038Y-90635075D01*
X183864942Y-89587456D02*
X183626847Y-90301742D01*
X184245895Y-90301742D01*
%TO.C,D2*%
X173827880Y-90273095D02*
X172827880Y-90273095D01*
X172827880Y-90035000D01*
X172875500Y-89892142D01*
X172970738Y-89796904D01*
X173065976Y-89749285D01*
X173256452Y-89701666D01*
X173399309Y-89701666D01*
X173589785Y-89749285D01*
X173685023Y-89796904D01*
X173780261Y-89892142D01*
X173827880Y-90035000D01*
X173827880Y-90273095D01*
X172923119Y-89320714D02*
X172875500Y-89273095D01*
X172827880Y-89177857D01*
X172827880Y-88939761D01*
X172875500Y-88844523D01*
X172923119Y-88796904D01*
X173018357Y-88749285D01*
X173113595Y-88749285D01*
X173256452Y-88796904D01*
X173827880Y-89368333D01*
X173827880Y-88749285D01*
%TO.C,BZ1*%
X158771932Y-86152077D02*
X158637245Y-86219420D01*
X158569901Y-86219420D01*
X158468886Y-86185748D01*
X158367871Y-86084733D01*
X158334199Y-85983718D01*
X158334199Y-85916374D01*
X158367871Y-85815359D01*
X158637245Y-85545985D01*
X159344351Y-86253092D01*
X159108649Y-86488794D01*
X159007634Y-86522466D01*
X158940290Y-86522466D01*
X158839275Y-86488794D01*
X158771932Y-86421451D01*
X158738260Y-86320435D01*
X158738260Y-86253092D01*
X158771932Y-86152077D01*
X159007634Y-85916374D01*
X158704588Y-86892855D02*
X158233184Y-87364260D01*
X157997481Y-86185748D01*
X157526077Y-86657153D01*
X156886313Y-87296916D02*
X157290374Y-86892855D01*
X157088344Y-87094886D02*
X157795451Y-87801993D01*
X157761779Y-87633634D01*
X157761779Y-87498947D01*
X157795451Y-87397932D01*
X159394994Y-78501990D02*
X158856246Y-79040738D01*
%TO.C,C13*%
X140196704Y-80506837D02*
X140149085Y-80554456D01*
X140006228Y-80602075D01*
X139910990Y-80602075D01*
X139768133Y-80554456D01*
X139672895Y-80459218D01*
X139625276Y-80363980D01*
X139577657Y-80173504D01*
X139577657Y-80030647D01*
X139625276Y-79840171D01*
X139672895Y-79744933D01*
X139768133Y-79649695D01*
X139910990Y-79602075D01*
X140006228Y-79602075D01*
X140149085Y-79649695D01*
X140196704Y-79697314D01*
X141149085Y-80602075D02*
X140577657Y-80602075D01*
X140863371Y-80602075D02*
X140863371Y-79602075D01*
X140768133Y-79744933D01*
X140672895Y-79840171D01*
X140577657Y-79887790D01*
X141482419Y-79602075D02*
X142101466Y-79602075D01*
X141768133Y-79983028D01*
X141910990Y-79983028D01*
X142006228Y-80030647D01*
X142053847Y-80078266D01*
X142101466Y-80173504D01*
X142101466Y-80411599D01*
X142053847Y-80506837D01*
X142006228Y-80554456D01*
X141910990Y-80602075D01*
X141625276Y-80602075D01*
X141530038Y-80554456D01*
X141482419Y-80506837D01*
%TO.C,R9*%
X177256880Y-94596976D02*
X176780690Y-94930309D01*
X177256880Y-95168404D02*
X176256880Y-95168404D01*
X176256880Y-94787452D01*
X176304500Y-94692214D01*
X176352119Y-94644595D01*
X176447357Y-94596976D01*
X176590214Y-94596976D01*
X176685452Y-94644595D01*
X176733071Y-94692214D01*
X176780690Y-94787452D01*
X176780690Y-95168404D01*
X177256880Y-94120785D02*
X177256880Y-93930309D01*
X177209261Y-93835071D01*
X177161642Y-93787452D01*
X177018785Y-93692214D01*
X176828309Y-93644595D01*
X176447357Y-93644595D01*
X176352119Y-93692214D01*
X176304500Y-93739833D01*
X176256880Y-93835071D01*
X176256880Y-94025547D01*
X176304500Y-94120785D01*
X176352119Y-94168404D01*
X176447357Y-94216023D01*
X176685452Y-94216023D01*
X176780690Y-94168404D01*
X176828309Y-94120785D01*
X176875928Y-94025547D01*
X176875928Y-93835071D01*
X176828309Y-93739833D01*
X176780690Y-93692214D01*
X176685452Y-93644595D01*
%TO.C,U4*%
X120739560Y-90397075D02*
X120739560Y-91206599D01*
X120787179Y-91301837D01*
X120834798Y-91349456D01*
X120930036Y-91397075D01*
X121120512Y-91397075D01*
X121215750Y-91349456D01*
X121263369Y-91301837D01*
X121310988Y-91206599D01*
X121310988Y-90397075D01*
X122215750Y-90730409D02*
X122215750Y-91397075D01*
X121977655Y-90349456D02*
X121739560Y-91063742D01*
X122358607Y-91063742D01*
%TO.C,R1*%
X139152333Y-107005380D02*
X138819000Y-106529190D01*
X138580904Y-107005380D02*
X138580904Y-106005380D01*
X138961857Y-106005380D01*
X139057095Y-106053000D01*
X139104714Y-106100619D01*
X139152333Y-106195857D01*
X139152333Y-106338714D01*
X139104714Y-106433952D01*
X139057095Y-106481571D01*
X138961857Y-106529190D01*
X138580904Y-106529190D01*
X140104714Y-107005380D02*
X139533285Y-107005380D01*
X139819000Y-107005380D02*
X139819000Y-106005380D01*
X139723761Y-106148238D01*
X139628523Y-106243476D01*
X139533285Y-106291095D01*
%TO.C,U7*%
X142240095Y-92162380D02*
X142240095Y-92971904D01*
X142287714Y-93067142D01*
X142335333Y-93114761D01*
X142430571Y-93162380D01*
X142621047Y-93162380D01*
X142716285Y-93114761D01*
X142763904Y-93067142D01*
X142811523Y-92971904D01*
X142811523Y-92162380D01*
X143192476Y-92162380D02*
X143859142Y-92162380D01*
X143430571Y-93162380D01*
%TO.C,R15*%
X161279442Y-93974671D02*
X160803252Y-94308004D01*
X161279442Y-94546099D02*
X160279442Y-94546099D01*
X160279442Y-94165147D01*
X160327062Y-94069909D01*
X160374681Y-94022290D01*
X160469919Y-93974671D01*
X160612776Y-93974671D01*
X160708014Y-94022290D01*
X160755633Y-94069909D01*
X160803252Y-94165147D01*
X160803252Y-94546099D01*
X161279442Y-93022290D02*
X161279442Y-93593718D01*
X161279442Y-93308004D02*
X160279442Y-93308004D01*
X160422300Y-93403242D01*
X160517538Y-93498480D01*
X160565157Y-93593718D01*
X160279442Y-92117528D02*
X160279442Y-92593718D01*
X160755633Y-92641337D01*
X160708014Y-92593718D01*
X160660395Y-92498480D01*
X160660395Y-92260385D01*
X160708014Y-92165147D01*
X160755633Y-92117528D01*
X160850871Y-92069909D01*
X161088966Y-92069909D01*
X161184204Y-92117528D01*
X161231823Y-92165147D01*
X161279442Y-92260385D01*
X161279442Y-92498480D01*
X161231823Y-92593718D01*
X161184204Y-92641337D01*
%TO.C,R5*%
X186928895Y-90635075D02*
X186595562Y-90158885D01*
X186357466Y-90635075D02*
X186357466Y-89635075D01*
X186738419Y-89635075D01*
X186833657Y-89682695D01*
X186881276Y-89730314D01*
X186928895Y-89825552D01*
X186928895Y-89968409D01*
X186881276Y-90063647D01*
X186833657Y-90111266D01*
X186738419Y-90158885D01*
X186357466Y-90158885D01*
X187833657Y-89635075D02*
X187357466Y-89635075D01*
X187309847Y-90111266D01*
X187357466Y-90063647D01*
X187452704Y-90016028D01*
X187690800Y-90016028D01*
X187786038Y-90063647D01*
X187833657Y-90111266D01*
X187881276Y-90206504D01*
X187881276Y-90444599D01*
X187833657Y-90539837D01*
X187786038Y-90587456D01*
X187690800Y-90635075D01*
X187452704Y-90635075D01*
X187357466Y-90587456D01*
X187309847Y-90539837D01*
%TO.C,J14*%
X165639626Y-117301277D02*
X165639626Y-118015563D01*
X165592007Y-118158420D01*
X165496769Y-118253658D01*
X165353911Y-118301277D01*
X165258673Y-118301277D01*
X166639626Y-118301277D02*
X166068197Y-118301277D01*
X166353911Y-118301277D02*
X166353911Y-117301277D01*
X166258673Y-117444135D01*
X166163435Y-117539373D01*
X166068197Y-117586992D01*
X167496769Y-117634611D02*
X167496769Y-118301277D01*
X167258673Y-117253658D02*
X167020578Y-117967944D01*
X167639626Y-117967944D01*
%TO.C,D1*%
X179288880Y-90400095D02*
X178288880Y-90400095D01*
X178288880Y-90162000D01*
X178336500Y-90019142D01*
X178431738Y-89923904D01*
X178526976Y-89876285D01*
X178717452Y-89828666D01*
X178860309Y-89828666D01*
X179050785Y-89876285D01*
X179146023Y-89923904D01*
X179241261Y-90019142D01*
X179288880Y-90162000D01*
X179288880Y-90400095D01*
X179288880Y-88876285D02*
X179288880Y-89447714D01*
X179288880Y-89162000D02*
X178288880Y-89162000D01*
X178431738Y-89257238D01*
X178526976Y-89352476D01*
X178574595Y-89447714D01*
%TO.C,S1*%
X212562733Y-100636461D02*
X212705590Y-100684080D01*
X212943685Y-100684080D01*
X213038923Y-100636461D01*
X213086542Y-100588842D01*
X213134161Y-100493604D01*
X213134161Y-100398366D01*
X213086542Y-100303128D01*
X213038923Y-100255509D01*
X212943685Y-100207890D01*
X212753209Y-100160271D01*
X212657971Y-100112652D01*
X212610352Y-100065033D01*
X212562733Y-99969795D01*
X212562733Y-99874557D01*
X212610352Y-99779319D01*
X212657971Y-99731700D01*
X212753209Y-99684080D01*
X212991304Y-99684080D01*
X213134161Y-99731700D01*
X214086542Y-100684080D02*
X213515114Y-100684080D01*
X213800828Y-100684080D02*
X213800828Y-99684080D01*
X213705590Y-99826938D01*
X213610352Y-99922176D01*
X213515114Y-99969795D01*
%TO.C,C11*%
X122063704Y-82411837D02*
X122016085Y-82459456D01*
X121873228Y-82507075D01*
X121777990Y-82507075D01*
X121635133Y-82459456D01*
X121539895Y-82364218D01*
X121492276Y-82268980D01*
X121444657Y-82078504D01*
X121444657Y-81935647D01*
X121492276Y-81745171D01*
X121539895Y-81649933D01*
X121635133Y-81554695D01*
X121777990Y-81507075D01*
X121873228Y-81507075D01*
X122016085Y-81554695D01*
X122063704Y-81602314D01*
X123016085Y-82507075D02*
X122444657Y-82507075D01*
X122730371Y-82507075D02*
X122730371Y-81507075D01*
X122635133Y-81649933D01*
X122539895Y-81745171D01*
X122444657Y-81792790D01*
X123968466Y-82507075D02*
X123397038Y-82507075D01*
X123682752Y-82507075D02*
X123682752Y-81507075D01*
X123587514Y-81649933D01*
X123492276Y-81745171D01*
X123397038Y-81792790D01*
%TO.C,C15*%
X204994742Y-92571842D02*
X204947123Y-92619461D01*
X204804266Y-92667080D01*
X204709028Y-92667080D01*
X204566171Y-92619461D01*
X204470933Y-92524223D01*
X204423314Y-92428985D01*
X204375695Y-92238509D01*
X204375695Y-92095652D01*
X204423314Y-91905176D01*
X204470933Y-91809938D01*
X204566171Y-91714700D01*
X204709028Y-91667080D01*
X204804266Y-91667080D01*
X204947123Y-91714700D01*
X204994742Y-91762319D01*
X205947123Y-92667080D02*
X205375695Y-92667080D01*
X205661409Y-92667080D02*
X205661409Y-91667080D01*
X205566171Y-91809938D01*
X205470933Y-91905176D01*
X205375695Y-91952795D01*
X206851885Y-91667080D02*
X206375695Y-91667080D01*
X206328076Y-92143271D01*
X206375695Y-92095652D01*
X206470933Y-92048033D01*
X206709028Y-92048033D01*
X206804266Y-92095652D01*
X206851885Y-92143271D01*
X206899504Y-92238509D01*
X206899504Y-92476604D01*
X206851885Y-92571842D01*
X206804266Y-92619461D01*
X206709028Y-92667080D01*
X206470933Y-92667080D01*
X206375695Y-92619461D01*
X206328076Y-92571842D01*
%TO.C,C7*%
X147661333Y-92973142D02*
X147613714Y-93020761D01*
X147470857Y-93068380D01*
X147375619Y-93068380D01*
X147232761Y-93020761D01*
X147137523Y-92925523D01*
X147089904Y-92830285D01*
X147042285Y-92639809D01*
X147042285Y-92496952D01*
X147089904Y-92306476D01*
X147137523Y-92211238D01*
X147232761Y-92116000D01*
X147375619Y-92068380D01*
X147470857Y-92068380D01*
X147613714Y-92116000D01*
X147661333Y-92163619D01*
X147994666Y-92068380D02*
X148661333Y-92068380D01*
X148232761Y-93068380D01*
%TO.C,R11*%
X172049880Y-94793785D02*
X171573690Y-94993785D01*
X172049880Y-95136642D02*
X171049880Y-95136642D01*
X171049880Y-94908071D01*
X171097500Y-94850928D01*
X171145119Y-94822357D01*
X171240357Y-94793785D01*
X171383214Y-94793785D01*
X171478452Y-94822357D01*
X171526071Y-94850928D01*
X171573690Y-94908071D01*
X171573690Y-95136642D01*
X172049880Y-94222357D02*
X172049880Y-94565214D01*
X172049880Y-94393785D02*
X171049880Y-94393785D01*
X171192738Y-94450928D01*
X171287976Y-94508071D01*
X171335595Y-94565214D01*
X172049880Y-93650928D02*
X172049880Y-93993785D01*
X172049880Y-93822357D02*
X171049880Y-93822357D01*
X171192738Y-93879500D01*
X171287976Y-93936642D01*
X171335595Y-93993785D01*
%TO.C,Q1*%
X161837619Y-90773238D02*
X161790000Y-90868476D01*
X161694761Y-90963714D01*
X161551904Y-91106571D01*
X161504285Y-91201809D01*
X161504285Y-91297047D01*
X161742380Y-91249428D02*
X161694761Y-91344666D01*
X161599523Y-91439904D01*
X161409047Y-91487523D01*
X161075714Y-91487523D01*
X160885238Y-91439904D01*
X160790000Y-91344666D01*
X160742380Y-91249428D01*
X160742380Y-91058952D01*
X160790000Y-90963714D01*
X160885238Y-90868476D01*
X161075714Y-90820857D01*
X161409047Y-90820857D01*
X161599523Y-90868476D01*
X161694761Y-90963714D01*
X161742380Y-91058952D01*
X161742380Y-91249428D01*
X161742380Y-89868476D02*
X161742380Y-90439904D01*
X161742380Y-90154190D02*
X160742380Y-90154190D01*
X160885238Y-90249428D01*
X160980476Y-90344666D01*
X161028095Y-90439904D01*
%TO.C,U8*%
X206907695Y-82396080D02*
X206907695Y-83205604D01*
X206955314Y-83300842D01*
X207002933Y-83348461D01*
X207098171Y-83396080D01*
X207288647Y-83396080D01*
X207383885Y-83348461D01*
X207431504Y-83300842D01*
X207479123Y-83205604D01*
X207479123Y-82396080D01*
X208098171Y-82824652D02*
X208002933Y-82777033D01*
X207955314Y-82729414D01*
X207907695Y-82634176D01*
X207907695Y-82586557D01*
X207955314Y-82491319D01*
X208002933Y-82443700D01*
X208098171Y-82396080D01*
X208288647Y-82396080D01*
X208383885Y-82443700D01*
X208431504Y-82491319D01*
X208479123Y-82586557D01*
X208479123Y-82634176D01*
X208431504Y-82729414D01*
X208383885Y-82777033D01*
X208288647Y-82824652D01*
X208098171Y-82824652D01*
X208002933Y-82872271D01*
X207955314Y-82919890D01*
X207907695Y-83015128D01*
X207907695Y-83205604D01*
X207955314Y-83300842D01*
X208002933Y-83348461D01*
X208098171Y-83396080D01*
X208288647Y-83396080D01*
X208383885Y-83348461D01*
X208431504Y-83300842D01*
X208479123Y-83205604D01*
X208479123Y-83015128D01*
X208431504Y-82919890D01*
X208383885Y-82872271D01*
X208288647Y-82824652D01*
%TO.C,C4*%
X183745142Y-88558666D02*
X183792761Y-88606285D01*
X183840380Y-88749142D01*
X183840380Y-88844380D01*
X183792761Y-88987238D01*
X183697523Y-89082476D01*
X183602285Y-89130095D01*
X183411809Y-89177714D01*
X183268952Y-89177714D01*
X183078476Y-89130095D01*
X182983238Y-89082476D01*
X182888000Y-88987238D01*
X182840380Y-88844380D01*
X182840380Y-88749142D01*
X182888000Y-88606285D01*
X182935619Y-88558666D01*
X183173714Y-87701523D02*
X183840380Y-87701523D01*
X182792761Y-87939619D02*
X183507047Y-88177714D01*
X183507047Y-87558666D01*
%TO.C,C14*%
X140209704Y-81776837D02*
X140162085Y-81824456D01*
X140019228Y-81872075D01*
X139923990Y-81872075D01*
X139781133Y-81824456D01*
X139685895Y-81729218D01*
X139638276Y-81633980D01*
X139590657Y-81443504D01*
X139590657Y-81300647D01*
X139638276Y-81110171D01*
X139685895Y-81014933D01*
X139781133Y-80919695D01*
X139923990Y-80872075D01*
X140019228Y-80872075D01*
X140162085Y-80919695D01*
X140209704Y-80967314D01*
X141162085Y-81872075D02*
X140590657Y-81872075D01*
X140876371Y-81872075D02*
X140876371Y-80872075D01*
X140781133Y-81014933D01*
X140685895Y-81110171D01*
X140590657Y-81157790D01*
X142019228Y-81205409D02*
X142019228Y-81872075D01*
X141781133Y-80824456D02*
X141543038Y-81538742D01*
X142162085Y-81538742D01*
%TO.C,R16*%
X204358980Y-79929557D02*
X203882790Y-80262890D01*
X204358980Y-80500985D02*
X203358980Y-80500985D01*
X203358980Y-80120033D01*
X203406600Y-80024795D01*
X203454219Y-79977176D01*
X203549457Y-79929557D01*
X203692314Y-79929557D01*
X203787552Y-79977176D01*
X203835171Y-80024795D01*
X203882790Y-80120033D01*
X203882790Y-80500985D01*
X204358980Y-78977176D02*
X204358980Y-79548604D01*
X204358980Y-79262890D02*
X203358980Y-79262890D01*
X203501838Y-79358128D01*
X203597076Y-79453366D01*
X203644695Y-79548604D01*
X203358980Y-78120033D02*
X203358980Y-78310509D01*
X203406600Y-78405747D01*
X203454219Y-78453366D01*
X203597076Y-78548604D01*
X203787552Y-78596223D01*
X204168504Y-78596223D01*
X204263742Y-78548604D01*
X204311361Y-78500985D01*
X204358980Y-78405747D01*
X204358980Y-78215271D01*
X204311361Y-78120033D01*
X204263742Y-78072414D01*
X204168504Y-78024795D01*
X203930409Y-78024795D01*
X203835171Y-78072414D01*
X203787552Y-78120033D01*
X203739933Y-78215271D01*
X203739933Y-78405747D01*
X203787552Y-78500985D01*
X203835171Y-78548604D01*
X203930409Y-78596223D01*
%TO.C,C12*%
X116872077Y-88018857D02*
X116919696Y-88066476D01*
X116967315Y-88209333D01*
X116967315Y-88304571D01*
X116919696Y-88447428D01*
X116824458Y-88542666D01*
X116729220Y-88590285D01*
X116538744Y-88637904D01*
X116395887Y-88637904D01*
X116205411Y-88590285D01*
X116110173Y-88542666D01*
X116014935Y-88447428D01*
X115967315Y-88304571D01*
X115967315Y-88209333D01*
X116014935Y-88066476D01*
X116062554Y-88018857D01*
X116967315Y-87066476D02*
X116967315Y-87637904D01*
X116967315Y-87352190D02*
X115967315Y-87352190D01*
X116110173Y-87447428D01*
X116205411Y-87542666D01*
X116253030Y-87637904D01*
X116062554Y-86685523D02*
X116014935Y-86637904D01*
X115967315Y-86542666D01*
X115967315Y-86304571D01*
X116014935Y-86209333D01*
X116062554Y-86161714D01*
X116157792Y-86114095D01*
X116253030Y-86114095D01*
X116395887Y-86161714D01*
X116967315Y-86733142D01*
X116967315Y-86114095D01*
%TO.C,L1*%
X186547895Y-82507075D02*
X186071704Y-82507075D01*
X186071704Y-81507075D01*
X187405038Y-82507075D02*
X186833609Y-82507075D01*
X187119323Y-82507075D02*
X187119323Y-81507075D01*
X187024085Y-81649933D01*
X186928847Y-81745171D01*
X186833609Y-81792790D01*
%TO.C,J1*%
X194566666Y-84052380D02*
X194566666Y-84766666D01*
X194519047Y-84909523D01*
X194423809Y-85004761D01*
X194280952Y-85052380D01*
X194185714Y-85052380D01*
X195566666Y-85052380D02*
X194995238Y-85052380D01*
X195280952Y-85052380D02*
X195280952Y-84052380D01*
X195185714Y-84195238D01*
X195090476Y-84290476D01*
X194995238Y-84338095D01*
X200828571Y-80707142D02*
X201971428Y-80707142D01*
X187828571Y-80707142D02*
X188971428Y-80707142D01*
X188400000Y-81278571D02*
X188400000Y-80135714D01*
%TO.C,C5*%
X183745142Y-86780666D02*
X183792761Y-86828285D01*
X183840380Y-86971142D01*
X183840380Y-87066380D01*
X183792761Y-87209238D01*
X183697523Y-87304476D01*
X183602285Y-87352095D01*
X183411809Y-87399714D01*
X183268952Y-87399714D01*
X183078476Y-87352095D01*
X182983238Y-87304476D01*
X182888000Y-87209238D01*
X182840380Y-87066380D01*
X182840380Y-86971142D01*
X182888000Y-86828285D01*
X182935619Y-86780666D01*
X182840380Y-85875904D02*
X182840380Y-86352095D01*
X183316571Y-86399714D01*
X183268952Y-86352095D01*
X183221333Y-86256857D01*
X183221333Y-86018761D01*
X183268952Y-85923523D01*
X183316571Y-85875904D01*
X183411809Y-85828285D01*
X183649904Y-85828285D01*
X183745142Y-85875904D01*
X183792761Y-85923523D01*
X183840380Y-86018761D01*
X183840380Y-86256857D01*
X183792761Y-86352095D01*
X183745142Y-86399714D01*
D11*
%TO.C,SW1*%
X199235600Y-91416700D02*
X199235600Y-86916700D01*
X195235600Y-92666700D02*
X196735600Y-92666700D01*
X196735600Y-85666700D02*
X195235600Y-85666700D01*
X192735600Y-86916700D02*
X192735600Y-91416700D01*
%TO.C,S2*%
X213039638Y-93891700D02*
X219039638Y-93891700D01*
X210379638Y-100021700D02*
X213039638Y-100021700D01*
X209982567Y-95771700D02*
X210379638Y-95771700D01*
X219039638Y-95771700D02*
X219039638Y-96531700D01*
X219039638Y-93991700D02*
X213039638Y-93991700D01*
X210049638Y-93991700D02*
X210379638Y-93991700D01*
X213039638Y-93771700D02*
X219039638Y-93771700D01*
X209982567Y-99071700D02*
X210379638Y-99071700D01*
X213039638Y-93531700D02*
X219039638Y-93531700D01*
X207669638Y-93611700D02*
X207669638Y-92341700D01*
X213039638Y-93291700D02*
X219039638Y-93291700D01*
X210379638Y-97421700D02*
X213039638Y-97421700D01*
X213039638Y-100021700D02*
X213039638Y-92281700D01*
X213039638Y-95771700D02*
X219039638Y-95771700D01*
X213039638Y-98311700D02*
X219039638Y-98311700D01*
X210379638Y-92281700D02*
X210379638Y-100021700D01*
X210379638Y-94881700D02*
X213039638Y-94881700D01*
X209982567Y-96531700D02*
X210379638Y-96531700D01*
X213039638Y-93231700D02*
X219039638Y-93231700D01*
X210049638Y-93231700D02*
X210379638Y-93231700D01*
X207669638Y-92341700D02*
X208939638Y-92341700D01*
X213039638Y-93651700D02*
X219039638Y-93651700D01*
X213039638Y-93411700D02*
X219039638Y-93411700D01*
X209982567Y-98311700D02*
X210379638Y-98311700D01*
X219039638Y-99071700D02*
X213039638Y-99071700D01*
X219039638Y-93231700D02*
X219039638Y-93991700D01*
X219039638Y-96531700D02*
X213039638Y-96531700D01*
X213039638Y-92281700D02*
X210379638Y-92281700D01*
X219039638Y-98311700D02*
X219039638Y-99071700D01*
%TO.C,S5*%
X128989600Y-78201700D02*
X128989600Y-75541700D01*
X125499600Y-78598771D02*
X125499600Y-78201700D01*
X122739600Y-75541700D02*
X122739600Y-69541700D01*
X123849600Y-78201700D02*
X123849600Y-75541700D01*
X122959600Y-69541700D02*
X122959600Y-75541700D01*
X121309600Y-80911700D02*
X121309600Y-79641700D01*
X128039600Y-69541700D02*
X128039600Y-75541700D01*
X122259600Y-75541700D02*
X122259600Y-69541700D01*
X126389600Y-78201700D02*
X126389600Y-75541700D01*
X122499600Y-75541700D02*
X122499600Y-69541700D01*
X121249600Y-78201700D02*
X128989600Y-78201700D01*
X128039600Y-78598771D02*
X128039600Y-78201700D01*
X122579600Y-80911700D02*
X121309600Y-80911700D01*
X122859600Y-75541700D02*
X122859600Y-69541700D01*
X124739600Y-78598771D02*
X124739600Y-78201700D01*
X127279600Y-69541700D02*
X128039600Y-69541700D01*
X121249600Y-75541700D02*
X121249600Y-78201700D01*
X122199600Y-69541700D02*
X122959600Y-69541700D01*
X127279600Y-75541700D02*
X127279600Y-69541700D01*
X124739600Y-75541700D02*
X124739600Y-69541700D01*
X122959600Y-78531700D02*
X122959600Y-78201700D01*
X124739600Y-69541700D02*
X125499600Y-69541700D01*
X128989600Y-75541700D02*
X121249600Y-75541700D01*
X122199600Y-75541700D02*
X122199600Y-69541700D01*
X122619600Y-75541700D02*
X122619600Y-69541700D01*
X127279600Y-78598771D02*
X127279600Y-78201700D01*
X125499600Y-69541700D02*
X125499600Y-75541700D01*
X122199600Y-78531700D02*
X122199600Y-78201700D01*
X122379600Y-75541700D02*
X122379600Y-69541700D01*
%TO.C,S6*%
X113489600Y-75541700D02*
X113489600Y-69541700D01*
X113309600Y-78531700D02*
X113309600Y-78201700D01*
X116609600Y-69541700D02*
X116609600Y-75541700D01*
X118389600Y-78598771D02*
X118389600Y-78201700D01*
X113729600Y-75541700D02*
X113729600Y-69541700D01*
X113309600Y-75541700D02*
X113309600Y-69541700D01*
X120099600Y-75541700D02*
X112359600Y-75541700D01*
X115849600Y-69541700D02*
X116609600Y-69541700D01*
X114069600Y-78531700D02*
X114069600Y-78201700D01*
X115849600Y-75541700D02*
X115849600Y-69541700D01*
X118389600Y-75541700D02*
X118389600Y-69541700D01*
X113309600Y-69541700D02*
X114069600Y-69541700D01*
X112359600Y-75541700D02*
X112359600Y-78201700D01*
X118389600Y-69541700D02*
X119149600Y-69541700D01*
X115849600Y-78598771D02*
X115849600Y-78201700D01*
X113969600Y-75541700D02*
X113969600Y-69541700D01*
X113689600Y-80911700D02*
X112419600Y-80911700D01*
X119149600Y-78598771D02*
X119149600Y-78201700D01*
X112359600Y-78201700D02*
X120099600Y-78201700D01*
X113609600Y-75541700D02*
X113609600Y-69541700D01*
X117499600Y-78201700D02*
X117499600Y-75541700D01*
X113369600Y-75541700D02*
X113369600Y-69541700D01*
X119149600Y-69541700D02*
X119149600Y-75541700D01*
X112419600Y-80911700D02*
X112419600Y-79641700D01*
X114069600Y-69541700D02*
X114069600Y-75541700D01*
X114959600Y-78201700D02*
X114959600Y-75541700D01*
X113849600Y-75541700D02*
X113849600Y-69541700D01*
X116609600Y-78598771D02*
X116609600Y-78201700D01*
X120099600Y-78201700D02*
X120099600Y-75541700D01*
%TO.C,S7*%
X103239600Y-98891700D02*
X97239600Y-98891700D01*
X106229600Y-99071700D02*
X105899600Y-99071700D01*
X97239600Y-95771700D02*
X103239600Y-95771700D01*
X106296671Y-93991700D02*
X105899600Y-93991700D01*
X103239600Y-98651700D02*
X97239600Y-98651700D01*
X103239600Y-99071700D02*
X97239600Y-99071700D01*
X103239600Y-92281700D02*
X103239600Y-100021700D01*
X97239600Y-96531700D02*
X97239600Y-95771700D01*
X106229600Y-98311700D02*
X105899600Y-98311700D01*
X103239600Y-96531700D02*
X97239600Y-96531700D01*
X103239600Y-93991700D02*
X97239600Y-93991700D01*
X97239600Y-99071700D02*
X97239600Y-98311700D01*
X103239600Y-100021700D02*
X105899600Y-100021700D01*
X97239600Y-93991700D02*
X97239600Y-93231700D01*
X106296671Y-96531700D02*
X105899600Y-96531700D01*
X103239600Y-98411700D02*
X97239600Y-98411700D01*
X108609600Y-98691700D02*
X108609600Y-99961700D01*
X106296671Y-93231700D02*
X105899600Y-93231700D01*
X105899600Y-100021700D02*
X105899600Y-92281700D01*
X103239600Y-98771700D02*
X97239600Y-98771700D01*
X105899600Y-94881700D02*
X103239600Y-94881700D01*
X103239600Y-99011700D02*
X97239600Y-99011700D01*
X97239600Y-93231700D02*
X103239600Y-93231700D01*
X108609600Y-99961700D02*
X107339600Y-99961700D01*
X97239600Y-98311700D02*
X103239600Y-98311700D01*
X105899600Y-97421700D02*
X103239600Y-97421700D01*
X103239600Y-98531700D02*
X97239600Y-98531700D01*
X106296671Y-95771700D02*
X105899600Y-95771700D01*
X105899600Y-92281700D02*
X103239600Y-92281700D01*
%TO.C,S8*%
X103239600Y-107781700D02*
X97239600Y-107781700D01*
X106229600Y-107961700D02*
X105899600Y-107961700D01*
X97239600Y-104661700D02*
X103239600Y-104661700D01*
X106296671Y-102881700D02*
X105899600Y-102881700D01*
X103239600Y-107541700D02*
X97239600Y-107541700D01*
X103239600Y-107961700D02*
X97239600Y-107961700D01*
X103239600Y-101171700D02*
X103239600Y-108911700D01*
X97239600Y-105421700D02*
X97239600Y-104661700D01*
X106229600Y-107201700D02*
X105899600Y-107201700D01*
X103239600Y-105421700D02*
X97239600Y-105421700D01*
X103239600Y-102881700D02*
X97239600Y-102881700D01*
X97239600Y-107961700D02*
X97239600Y-107201700D01*
X103239600Y-108911700D02*
X105899600Y-108911700D01*
X97239600Y-102881700D02*
X97239600Y-102121700D01*
X106296671Y-105421700D02*
X105899600Y-105421700D01*
X103239600Y-107301700D02*
X97239600Y-107301700D01*
X108609600Y-107581700D02*
X108609600Y-108851700D01*
X106296671Y-102121700D02*
X105899600Y-102121700D01*
X105899600Y-108911700D02*
X105899600Y-101171700D01*
X103239600Y-107661700D02*
X97239600Y-107661700D01*
X105899600Y-103771700D02*
X103239600Y-103771700D01*
X103239600Y-107901700D02*
X97239600Y-107901700D01*
X97239600Y-102121700D02*
X103239600Y-102121700D01*
X108609600Y-108851700D02*
X107339600Y-108851700D01*
X97239600Y-107201700D02*
X103239600Y-107201700D01*
X105899600Y-106311700D02*
X103239600Y-106311700D01*
X103239600Y-107421700D02*
X97239600Y-107421700D01*
X106296671Y-104661700D02*
X105899600Y-104661700D01*
X105899600Y-101171700D02*
X103239600Y-101171700D01*
%TO.C,S9*%
X103239600Y-116671700D02*
X97239600Y-116671700D01*
X106229600Y-116851700D02*
X105899600Y-116851700D01*
X97239600Y-113551700D02*
X103239600Y-113551700D01*
X106296671Y-111771700D02*
X105899600Y-111771700D01*
X103239600Y-116431700D02*
X97239600Y-116431700D01*
X103239600Y-116851700D02*
X97239600Y-116851700D01*
X103239600Y-110061700D02*
X103239600Y-117801700D01*
X97239600Y-114311700D02*
X97239600Y-113551700D01*
X106229600Y-116091700D02*
X105899600Y-116091700D01*
X103239600Y-114311700D02*
X97239600Y-114311700D01*
X103239600Y-111771700D02*
X97239600Y-111771700D01*
X97239600Y-116851700D02*
X97239600Y-116091700D01*
X103239600Y-117801700D02*
X105899600Y-117801700D01*
X97239600Y-111771700D02*
X97239600Y-111011700D01*
X106296671Y-114311700D02*
X105899600Y-114311700D01*
X103239600Y-116191700D02*
X97239600Y-116191700D01*
X108609600Y-116471700D02*
X108609600Y-117741700D01*
X106296671Y-111011700D02*
X105899600Y-111011700D01*
X105899600Y-117801700D02*
X105899600Y-110061700D01*
X103239600Y-116551700D02*
X97239600Y-116551700D01*
X105899600Y-112661700D02*
X103239600Y-112661700D01*
X103239600Y-116791700D02*
X97239600Y-116791700D01*
X97239600Y-111011700D02*
X103239600Y-111011700D01*
X108609600Y-117741700D02*
X107339600Y-117741700D01*
X97239600Y-116091700D02*
X103239600Y-116091700D01*
X105899600Y-115201700D02*
X103239600Y-115201700D01*
X103239600Y-116311700D02*
X97239600Y-116311700D01*
X106296671Y-113551700D02*
X105899600Y-113551700D01*
X105899600Y-110061700D02*
X103239600Y-110061700D01*
%TO.C,S4*%
X132539600Y-75541700D02*
X132539600Y-69541700D01*
X132359600Y-78531700D02*
X132359600Y-78201700D01*
X135659600Y-69541700D02*
X135659600Y-75541700D01*
X137439600Y-78598771D02*
X137439600Y-78201700D01*
X132779600Y-75541700D02*
X132779600Y-69541700D01*
X132359600Y-75541700D02*
X132359600Y-69541700D01*
X139149600Y-75541700D02*
X131409600Y-75541700D01*
X134899600Y-69541700D02*
X135659600Y-69541700D01*
X133119600Y-78531700D02*
X133119600Y-78201700D01*
X134899600Y-75541700D02*
X134899600Y-69541700D01*
X137439600Y-75541700D02*
X137439600Y-69541700D01*
X132359600Y-69541700D02*
X133119600Y-69541700D01*
X131409600Y-75541700D02*
X131409600Y-78201700D01*
X137439600Y-69541700D02*
X138199600Y-69541700D01*
X134899600Y-78598771D02*
X134899600Y-78201700D01*
X133019600Y-75541700D02*
X133019600Y-69541700D01*
X132739600Y-80911700D02*
X131469600Y-80911700D01*
X138199600Y-78598771D02*
X138199600Y-78201700D01*
X131409600Y-78201700D02*
X139149600Y-78201700D01*
X132659600Y-75541700D02*
X132659600Y-69541700D01*
X136549600Y-78201700D02*
X136549600Y-75541700D01*
X132419600Y-75541700D02*
X132419600Y-69541700D01*
X138199600Y-69541700D02*
X138199600Y-75541700D01*
X131469600Y-80911700D02*
X131469600Y-79641700D01*
X133119600Y-69541700D02*
X133119600Y-75541700D01*
X134009600Y-78201700D02*
X134009600Y-75541700D01*
X132899600Y-75541700D02*
X132899600Y-69541700D01*
X135659600Y-78598771D02*
X135659600Y-78201700D01*
X139149600Y-78201700D02*
X139149600Y-75541700D01*
%TO.C,S3*%
X148039600Y-78201700D02*
X148039600Y-75541700D01*
X144549600Y-78598771D02*
X144549600Y-78201700D01*
X141789600Y-75541700D02*
X141789600Y-69541700D01*
X142899600Y-78201700D02*
X142899600Y-75541700D01*
X142009600Y-69541700D02*
X142009600Y-75541700D01*
X140359600Y-80911700D02*
X140359600Y-79641700D01*
X147089600Y-69541700D02*
X147089600Y-75541700D01*
X141309600Y-75541700D02*
X141309600Y-69541700D01*
X145439600Y-78201700D02*
X145439600Y-75541700D01*
X141549600Y-75541700D02*
X141549600Y-69541700D01*
X140299600Y-78201700D02*
X148039600Y-78201700D01*
X147089600Y-78598771D02*
X147089600Y-78201700D01*
X141629600Y-80911700D02*
X140359600Y-80911700D01*
X141909600Y-75541700D02*
X141909600Y-69541700D01*
X143789600Y-78598771D02*
X143789600Y-78201700D01*
X146329600Y-69541700D02*
X147089600Y-69541700D01*
X140299600Y-75541700D02*
X140299600Y-78201700D01*
X141249600Y-69541700D02*
X142009600Y-69541700D01*
X146329600Y-75541700D02*
X146329600Y-69541700D01*
X143789600Y-75541700D02*
X143789600Y-69541700D01*
X142009600Y-78531700D02*
X142009600Y-78201700D01*
X143789600Y-69541700D02*
X144549600Y-69541700D01*
X148039600Y-75541700D02*
X140299600Y-75541700D01*
X141249600Y-75541700D02*
X141249600Y-69541700D01*
X141669600Y-75541700D02*
X141669600Y-69541700D01*
X146329600Y-78598771D02*
X146329600Y-78201700D01*
X144549600Y-69541700D02*
X144549600Y-75541700D01*
X141249600Y-78531700D02*
X141249600Y-78201700D01*
X141429600Y-75541700D02*
X141429600Y-69541700D01*
%TO.C,J3*%
X186205562Y-125270695D02*
X186205562Y-131270695D01*
X192235562Y-122610695D02*
X181955562Y-122610695D01*
X189635562Y-122610695D02*
X189635562Y-125270695D01*
X183665562Y-119673624D02*
X183665562Y-120127766D01*
X185445562Y-119673624D02*
X185445562Y-120127766D01*
X186205562Y-122213624D02*
X186205562Y-122610695D01*
X190525562Y-119740695D02*
X190525562Y-120127766D01*
X188745562Y-131270695D02*
X187985562Y-131270695D01*
X191285562Y-119740695D02*
X191285562Y-120127766D01*
X192235562Y-125270695D02*
X192235562Y-122610695D01*
X182905562Y-119673624D02*
X182905562Y-120127766D01*
X187985562Y-131270695D02*
X187985562Y-125270695D01*
X190525562Y-131270695D02*
X190525562Y-125270695D01*
X186205562Y-119673624D02*
X186205562Y-120127766D01*
X188745562Y-122213624D02*
X188745562Y-122610695D01*
X191285562Y-122213624D02*
X191285562Y-122610695D01*
X187985562Y-119673624D02*
X187985562Y-120127766D01*
X184555562Y-122610695D02*
X184555562Y-125270695D01*
X182905562Y-131270695D02*
X182905562Y-125270695D01*
X191285562Y-131270695D02*
X190525562Y-131270695D01*
X182905562Y-122213624D02*
X182905562Y-122610695D01*
X192175562Y-117360695D02*
X192175562Y-118630695D01*
X187095562Y-122610695D02*
X187095562Y-125270695D01*
X191285562Y-125270695D02*
X191285562Y-131270695D01*
X190865562Y-125270695D02*
X190865562Y-131270695D01*
X186205562Y-131270695D02*
X185445562Y-131270695D01*
X190905562Y-117360695D02*
X192175562Y-117360695D01*
X188745562Y-119673624D02*
X188745562Y-120127766D01*
X188745562Y-125270695D02*
X188745562Y-131270695D01*
X183665562Y-125270695D02*
X183665562Y-131270695D01*
X190625562Y-125270695D02*
X190625562Y-131270695D01*
X191105562Y-125270695D02*
X191105562Y-131270695D01*
X185445562Y-131270695D02*
X185445562Y-125270695D01*
X181955562Y-125270695D02*
X192235562Y-125270695D01*
X181955562Y-122610695D02*
X181955562Y-125270695D01*
X185445562Y-122213624D02*
X185445562Y-122610695D01*
X190985562Y-125270695D02*
X190985562Y-131270695D01*
X190745562Y-125270695D02*
X190745562Y-131270695D01*
X187985562Y-122213624D02*
X187985562Y-122610695D01*
X191225562Y-125270695D02*
X191225562Y-131270695D01*
X183665562Y-131270695D02*
X182905562Y-131270695D01*
X190525562Y-122213624D02*
X190525562Y-122610695D01*
X183665562Y-122213624D02*
X183665562Y-122610695D01*
%TO.C,U5*%
X187527562Y-87210695D02*
X187527562Y-88760695D01*
X185727562Y-88760695D02*
X185727562Y-87460695D01*
%TO.C,R12*%
X169297000Y-92185258D02*
X169297000Y-91710742D01*
X170342000Y-92185258D02*
X170342000Y-91710742D01*
%TO.C,C9*%
X147687420Y-88898000D02*
X147968580Y-88898000D01*
X147687420Y-89918000D02*
X147968580Y-89918000D01*
%TO.C,R7*%
X161701562Y-93374437D02*
X161701562Y-93848953D01*
X162746562Y-93374437D02*
X162746562Y-93848953D01*
%TO.C,JP9*%
X176591000Y-76498000D02*
X176591000Y-81998000D01*
X176591000Y-81998000D02*
X174641000Y-81998000D01*
X174641000Y-76498000D02*
X176591000Y-76498000D01*
X174641000Y-81998000D02*
X174641000Y-76498000D01*
%TO.C,U3*%
X136916562Y-84824695D02*
X136916562Y-83534695D01*
X127271562Y-87134695D02*
X127271562Y-84824695D01*
X137191562Y-87134695D02*
X137191562Y-84824695D01*
X127271562Y-84824695D02*
X127546562Y-84824695D01*
X137191562Y-89444695D02*
X136916562Y-89444695D01*
X127271562Y-89444695D02*
X127546562Y-89444695D01*
X137191562Y-84824695D02*
X136916562Y-84824695D01*
X137191562Y-87134695D02*
X137191562Y-89444695D01*
X127271562Y-87134695D02*
X127271562Y-89444695D01*
%TO.C,R6*%
X184708062Y-92064437D02*
X184708062Y-92538953D01*
X185753062Y-92064437D02*
X185753062Y-92538953D01*
%TO.C,C6*%
X142861420Y-85600000D02*
X143142580Y-85600000D01*
X142861420Y-84580000D02*
X143142580Y-84580000D01*
%TO.C,C2*%
X188329562Y-87691115D02*
X188329562Y-87972275D01*
X189349562Y-87691115D02*
X189349562Y-87972275D01*
%TO.C,JP1*%
X175779938Y-89473000D02*
X175779938Y-88073000D01*
X177079938Y-90173000D02*
X176479938Y-90173000D01*
X176479938Y-87373000D02*
X177079938Y-87373000D01*
X177779938Y-88073000D02*
X177779938Y-89473000D01*
X177779938Y-88073000D02*
G75*
G03*
X177079938Y-87373000I-700000J0D01*
G01*
X176479938Y-87373000D02*
G75*
G03*
X175779938Y-88073000I0J-700000D01*
G01*
X175779938Y-89473000D02*
G75*
G03*
X176479938Y-90173000I699999J-1D01*
G01*
X177079938Y-90173000D02*
G75*
G03*
X177779938Y-89473000I1J699999D01*
G01*
D13*
%TO.C,J13*%
X159563188Y-102650000D02*
X159563188Y-118850000D01*
X155513188Y-102650000D02*
X156213188Y-102650000D01*
X158163188Y-102650000D02*
X159563188Y-102650000D01*
X159563188Y-118850000D02*
X158163188Y-118850000D01*
X155513188Y-105150000D02*
X155513188Y-102650000D01*
X155513188Y-116350000D02*
X155513188Y-118850000D01*
X155513188Y-118850000D02*
X156213188Y-118850000D01*
D14*
X155033897Y-116600000D02*
G75*
G03*
X155033897Y-116600000I-70709J0D01*
G01*
D11*
%TO.C,C3*%
X188022562Y-92455275D02*
X188022562Y-92174115D01*
X189042562Y-92455275D02*
X189042562Y-92174115D01*
%TO.C,J4*%
X109124600Y-85201700D02*
X110114600Y-85201700D01*
X106624600Y-84151700D02*
X109124600Y-84151700D01*
X109124600Y-84151700D02*
X109124600Y-85201700D01*
X106624600Y-90371700D02*
X109124600Y-90371700D01*
X104654600Y-85321700D02*
X104654600Y-89201700D01*
X109124600Y-90371700D02*
X109124600Y-89321700D01*
%TO.C,C1*%
X191099562Y-87691115D02*
X191099562Y-87972275D01*
X190079562Y-87691115D02*
X190079562Y-87972275D01*
%TO.C,R10*%
X174606438Y-92185258D02*
X174606438Y-91710742D01*
X175651438Y-92185258D02*
X175651438Y-91710742D01*
%TO.C,R17*%
X206287100Y-81944442D02*
X206287100Y-82418958D01*
X205242100Y-81944442D02*
X205242100Y-82418958D01*
%TO.C,C10*%
X119292085Y-84076000D02*
X119573245Y-84076000D01*
X119292085Y-83056000D02*
X119573245Y-83056000D01*
%TO.C,R8*%
X166429562Y-93374437D02*
X166429562Y-93848953D01*
X165384562Y-93374437D02*
X165384562Y-93848953D01*
%TO.C,S0*%
X209982567Y-114311700D02*
X210379638Y-114311700D01*
X213039638Y-111191700D02*
X219039638Y-111191700D01*
X213039638Y-110061700D02*
X210379638Y-110061700D01*
X210379638Y-117801700D02*
X213039638Y-117801700D01*
X213039638Y-111071700D02*
X219039638Y-111071700D01*
X210379638Y-115201700D02*
X213039638Y-115201700D01*
X219039638Y-116851700D02*
X213039638Y-116851700D01*
X213039638Y-111431700D02*
X219039638Y-111431700D01*
X219039638Y-111011700D02*
X219039638Y-111771700D01*
X210379638Y-112661700D02*
X213039638Y-112661700D01*
X207669638Y-111391700D02*
X207669638Y-110121700D01*
X209982567Y-116851700D02*
X210379638Y-116851700D01*
X210379638Y-110061700D02*
X210379638Y-117801700D01*
X209982567Y-113551700D02*
X210379638Y-113551700D01*
X210049638Y-111011700D02*
X210379638Y-111011700D01*
X213039638Y-117801700D02*
X213039638Y-110061700D01*
X213039638Y-113551700D02*
X219039638Y-113551700D01*
X213039638Y-116091700D02*
X219039638Y-116091700D01*
X209982567Y-116091700D02*
X210379638Y-116091700D01*
X219039638Y-116091700D02*
X219039638Y-116851700D01*
X213039638Y-111311700D02*
X219039638Y-111311700D01*
X213039638Y-111671700D02*
X219039638Y-111671700D01*
X219039638Y-114311700D02*
X213039638Y-114311700D01*
X207669638Y-110121700D02*
X208939638Y-110121700D01*
X213039638Y-111551700D02*
X219039638Y-111551700D01*
X219039638Y-113551700D02*
X219039638Y-114311700D01*
X213039638Y-111011700D02*
X219039638Y-111011700D01*
X210049638Y-111771700D02*
X210379638Y-111771700D01*
X219039638Y-111771700D02*
X213039638Y-111771700D01*
%TO.C,JP2*%
X171297500Y-87373000D02*
X171897500Y-87373000D01*
X170597500Y-89473000D02*
X170597500Y-88073000D01*
X172597500Y-88073000D02*
X172597500Y-89473000D01*
X171897500Y-90173000D02*
X171297500Y-90173000D01*
X171297500Y-87373000D02*
G75*
G03*
X170597500Y-88073000I0J-700000D01*
G01*
X172597500Y-88073000D02*
G75*
G03*
X171897500Y-87373000I-700000J0D01*
G01*
X170597500Y-89473000D02*
G75*
G03*
X171297500Y-90173000I699999J-1D01*
G01*
X171897500Y-90173000D02*
G75*
G03*
X172597500Y-89473000I1J699999D01*
G01*
%TO.C,R3*%
X182451062Y-92538953D02*
X182451062Y-92064437D01*
X181406062Y-92538953D02*
X181406062Y-92064437D01*
%TO.C,JP8*%
X147336000Y-111952000D02*
X147336000Y-110552000D01*
X149336000Y-110552000D02*
X149336000Y-111952000D01*
X148636000Y-112652000D02*
X148036000Y-112652000D01*
X148036000Y-109852000D02*
X148636000Y-109852000D01*
X148636000Y-112652000D02*
G75*
G03*
X149336000Y-111952000I1J699999D01*
G01*
X149336000Y-110552000D02*
G75*
G03*
X148636000Y-109852000I-700000J0D01*
G01*
X148036000Y-109852000D02*
G75*
G03*
X147336000Y-110552000I0J-700000D01*
G01*
X147336000Y-111952000D02*
G75*
G03*
X148036000Y-112652000I699999J-1D01*
G01*
%TO.C,J5*%
X173518000Y-76340000D02*
X162778000Y-76340000D01*
X173758000Y-76840000D02*
X173758000Y-76100000D01*
X162778000Y-82660000D02*
X162778000Y-76340000D01*
X173518000Y-82200000D02*
X162778000Y-82200000D01*
X173518000Y-82660000D02*
X173518000Y-76340000D01*
X173518000Y-76900000D02*
X162778000Y-76900000D01*
X173758000Y-76100000D02*
X173258000Y-76100000D01*
X173518000Y-82660000D02*
X162778000Y-82660000D01*
%TO.C,R2*%
X139556258Y-110504500D02*
X139081742Y-110504500D01*
X139556258Y-109459500D02*
X139081742Y-109459500D01*
%TO.C,JP5*%
X146096000Y-108588000D02*
X145496000Y-108588000D01*
X144796000Y-107888000D02*
X144796000Y-106488000D01*
X146796000Y-106488000D02*
X146796000Y-107888000D01*
X145496000Y-105788000D02*
X146096000Y-105788000D01*
X145496000Y-105788000D02*
G75*
G03*
X144796000Y-106488000I0J-700000D01*
G01*
X144796000Y-107888000D02*
G75*
G03*
X145496000Y-108588000I699999J-1D01*
G01*
X146096000Y-108588000D02*
G75*
G03*
X146796000Y-107888000I1J699999D01*
G01*
X146796000Y-106488000D02*
G75*
G03*
X146096000Y-105788000I-700000J0D01*
G01*
%TO.C,C8*%
X139702000Y-87770580D02*
X139702000Y-87489420D01*
X138682000Y-87770580D02*
X138682000Y-87489420D01*
%TO.C,R14*%
X164651562Y-93848953D02*
X164651562Y-93374437D01*
X163606562Y-93848953D02*
X163606562Y-93374437D01*
%TO.C,R4*%
X184102062Y-92064437D02*
X184102062Y-92538953D01*
X183057062Y-92064437D02*
X183057062Y-92538953D01*
%TO.C,J2*%
X139807562Y-95375695D02*
G75*
G03*
X136307562Y-98875695I0J-3500000D01*
G01*
X136307562Y-121875695D02*
G75*
G03*
X139807562Y-125375695I3499999J-1D01*
G01*
X201307562Y-98875695D02*
G75*
G03*
X197807562Y-95375695I-3499999J1D01*
G01*
X197807562Y-125375695D02*
G75*
G03*
X201307562Y-121875695I1J3499999D01*
G01*
X139807562Y-95375695D02*
X197807562Y-95375695D01*
X145947562Y-101475695D02*
X145947562Y-98875695D01*
X144677562Y-101475695D02*
X143347562Y-101475695D01*
X145947562Y-98875695D02*
X143347562Y-98875695D01*
X143347562Y-96275695D02*
X194267562Y-96275695D01*
X143347562Y-98875695D02*
X143347562Y-96275695D01*
X201307562Y-98875695D02*
X201307562Y-121875695D01*
X143347562Y-101475695D02*
X143347562Y-100145695D01*
X136307562Y-121875695D02*
X136307562Y-98875695D01*
X145947562Y-101475695D02*
X194267562Y-101475695D01*
X197807562Y-125375695D02*
X139807562Y-125375695D01*
X194267562Y-101475695D02*
X194267562Y-96275695D01*
%TO.C,D2*%
X174200938Y-94470305D02*
X174200938Y-91320305D01*
X172500938Y-94470305D02*
X172500938Y-91320305D01*
X172500938Y-94470305D02*
X174200938Y-94470305D01*
%TO.C,BZ1*%
X161586000Y-83312000D02*
G75*
G03*
X161586000Y-83312000I-6900000J0D01*
G01*
%TO.C,J6*%
X152079000Y-119797000D02*
X152079000Y-117137000D01*
X150829000Y-119797000D02*
X150829000Y-125797000D01*
X151129000Y-119797000D02*
X151129000Y-125797000D01*
X148589000Y-125797000D02*
X147829000Y-125797000D01*
X150369000Y-125797000D02*
X150369000Y-119797000D01*
X144339000Y-117137000D02*
X144339000Y-119797000D01*
X146939000Y-117137000D02*
X146939000Y-119797000D01*
X150749000Y-114427000D02*
X152019000Y-114427000D01*
X150949000Y-119797000D02*
X150949000Y-125797000D01*
X152019000Y-114427000D02*
X152019000Y-115697000D01*
X152079000Y-117137000D02*
X144339000Y-117137000D01*
X150589000Y-119797000D02*
X150589000Y-125797000D01*
X147829000Y-116739929D02*
X147829000Y-117137000D01*
X148589000Y-116739929D02*
X148589000Y-117137000D01*
X151129000Y-125797000D02*
X150369000Y-125797000D01*
X145289000Y-116739929D02*
X145289000Y-117137000D01*
X146049000Y-125797000D02*
X145289000Y-125797000D01*
X146049000Y-119797000D02*
X146049000Y-125797000D01*
X151129000Y-116807000D02*
X151129000Y-117137000D01*
X150709000Y-119797000D02*
X150709000Y-125797000D01*
X150469000Y-119797000D02*
X150469000Y-125797000D01*
X149479000Y-117137000D02*
X149479000Y-119797000D01*
X144339000Y-119797000D02*
X152079000Y-119797000D01*
X150369000Y-116807000D02*
X150369000Y-117137000D01*
X147829000Y-125797000D02*
X147829000Y-119797000D01*
X145289000Y-125797000D02*
X145289000Y-119797000D01*
X146049000Y-116739929D02*
X146049000Y-117137000D01*
X148589000Y-119797000D02*
X148589000Y-125797000D01*
X151069000Y-119797000D02*
X151069000Y-125797000D01*
%TO.C,C13*%
X139090142Y-83326695D02*
X138808982Y-83326695D01*
X139090142Y-82306695D02*
X138808982Y-82306695D01*
%TO.C,R9*%
X177302438Y-91710742D02*
X177302438Y-92185258D01*
X176257438Y-91710742D02*
X176257438Y-92185258D01*
%TO.C,U4*%
X120001465Y-90021400D02*
X123001465Y-90021400D01*
X121501465Y-84801400D02*
X123001465Y-84801400D01*
%TO.C,JP6*%
X145496000Y-109852000D02*
X146096000Y-109852000D01*
X144796000Y-111952000D02*
X144796000Y-110552000D01*
X146096000Y-112652000D02*
X145496000Y-112652000D01*
X146796000Y-110552000D02*
X146796000Y-111952000D01*
X145496000Y-109852000D02*
G75*
G03*
X144796000Y-110552000I-1J-699999D01*
G01*
X144796000Y-111952000D02*
G75*
G03*
X145496000Y-112652000I700000J0D01*
G01*
X146096000Y-112652000D02*
G75*
G03*
X146796000Y-111952000I0J700000D01*
G01*
X146796000Y-110552000D02*
G75*
G03*
X146096000Y-109852000I-699999J1D01*
G01*
%TO.C,R1*%
X139556258Y-108599500D02*
X139081742Y-108599500D01*
X139556258Y-107554500D02*
X139081742Y-107554500D01*
%TO.C,JP3*%
X143556000Y-108588000D02*
X142956000Y-108588000D01*
X144256000Y-106488000D02*
X144256000Y-107888000D01*
X142956000Y-105788000D02*
X143556000Y-105788000D01*
X142256000Y-107888000D02*
X142256000Y-106488000D01*
X144256000Y-106488000D02*
G75*
G03*
X143556000Y-105788000I-700000J0D01*
G01*
X143556000Y-108588000D02*
G75*
G03*
X144256000Y-107888000I1J699999D01*
G01*
X142956000Y-105788000D02*
G75*
G03*
X142256000Y-106488000I0J-700000D01*
G01*
X142256000Y-107888000D02*
G75*
G03*
X142956000Y-108588000I699999J-1D01*
G01*
D12*
%TO.C,U7*%
X145152000Y-87004000D02*
X145152000Y-87529000D01*
X145152000Y-91304000D02*
X145152000Y-90779000D01*
X145152000Y-91304000D02*
X144627000Y-91304000D01*
X140852000Y-91304000D02*
X140852000Y-90779000D01*
X145152000Y-87004000D02*
X144627000Y-87004000D01*
X140852000Y-87004000D02*
X141377000Y-87004000D01*
X140852000Y-87004000D02*
X140852000Y-87529000D01*
D11*
%TO.C,R15*%
X168207562Y-93848953D02*
X168207562Y-93374437D01*
X167162562Y-93848953D02*
X167162562Y-93374437D01*
%TO.C,R5*%
X187404062Y-92538953D02*
X187404062Y-92064437D01*
X186359062Y-92538953D02*
X186359062Y-92064437D01*
D13*
%TO.C,J14*%
X160913188Y-123871726D02*
X160913188Y-122431726D01*
X171313188Y-119401726D02*
X170548188Y-119401726D01*
X172113188Y-123871726D02*
X172113188Y-122431726D01*
X161713188Y-119401726D02*
X162478188Y-119401726D01*
X161713188Y-126301726D02*
X171313188Y-126301726D01*
D15*
X170213188Y-118551726D02*
G75*
G03*
X170213188Y-118551726I-100000J0D01*
G01*
D11*
%TO.C,D1*%
X177707938Y-94470305D02*
X179407938Y-94470305D01*
X179407938Y-94470305D02*
X179407938Y-91320305D01*
X177707938Y-94470305D02*
X177707938Y-91320305D01*
%TO.C,S1*%
X213039638Y-108911700D02*
X213039638Y-101171700D01*
X210049638Y-102121700D02*
X210379638Y-102121700D01*
X209982567Y-107201700D02*
X210379638Y-107201700D01*
X213039638Y-102781700D02*
X219039638Y-102781700D01*
X213039638Y-104661700D02*
X219039638Y-104661700D01*
X209982567Y-107961700D02*
X210379638Y-107961700D01*
X219039638Y-105421700D02*
X213039638Y-105421700D01*
X213039638Y-102541700D02*
X219039638Y-102541700D01*
X213039638Y-101171700D02*
X210379638Y-101171700D01*
X209982567Y-104661700D02*
X210379638Y-104661700D01*
X213039638Y-102181700D02*
X219039638Y-102181700D01*
X219039638Y-102121700D02*
X219039638Y-102881700D01*
X213039638Y-102121700D02*
X219039638Y-102121700D01*
X210379638Y-101171700D02*
X210379638Y-108911700D01*
X210379638Y-108911700D02*
X213039638Y-108911700D01*
X219039638Y-102881700D02*
X213039638Y-102881700D01*
X210049638Y-102881700D02*
X210379638Y-102881700D01*
X213039638Y-102661700D02*
X219039638Y-102661700D01*
X209982567Y-105421700D02*
X210379638Y-105421700D01*
X219039638Y-107201700D02*
X219039638Y-107961700D01*
X210379638Y-106311700D02*
X213039638Y-106311700D01*
X219039638Y-104661700D02*
X219039638Y-105421700D01*
X213039638Y-102301700D02*
X219039638Y-102301700D01*
X219039638Y-107961700D02*
X213039638Y-107961700D01*
X207669638Y-101231700D02*
X208939638Y-101231700D01*
X207669638Y-102501700D02*
X207669638Y-101231700D01*
X213039638Y-107201700D02*
X219039638Y-107201700D01*
X213039638Y-102421700D02*
X219039638Y-102421700D01*
X210379638Y-103771700D02*
X213039638Y-103771700D01*
%TO.C,C11*%
X122893645Y-84076000D02*
X122612485Y-84076000D01*
X122893645Y-83056000D02*
X122612485Y-83056000D01*
%TO.C,C15*%
X205778180Y-94502700D02*
X205497020Y-94502700D01*
X205778180Y-93482700D02*
X205497020Y-93482700D01*
%TO.C,JP7*%
X147336000Y-107888000D02*
X147336000Y-106488000D01*
X148036000Y-105788000D02*
X148636000Y-105788000D01*
X148636000Y-108588000D02*
X148036000Y-108588000D01*
X149336000Y-106488000D02*
X149336000Y-107888000D01*
X147336000Y-107888000D02*
G75*
G03*
X148036000Y-108588000I699999J-1D01*
G01*
X148036000Y-105788000D02*
G75*
G03*
X147336000Y-106488000I0J-700000D01*
G01*
X149336000Y-106488000D02*
G75*
G03*
X148636000Y-105788000I-700000J0D01*
G01*
X148636000Y-108588000D02*
G75*
G03*
X149336000Y-107888000I1J699999D01*
G01*
%TO.C,C7*%
X147968580Y-91696000D02*
X147687420Y-91696000D01*
X147968580Y-90676000D02*
X147687420Y-90676000D01*
%TO.C,U1*%
X110690562Y-119429695D02*
X110690562Y-92759695D01*
X118310562Y-125959695D02*
X127610562Y-125959695D01*
X135230562Y-119429695D02*
X127610562Y-125959695D01*
X110690562Y-92759695D02*
X135230562Y-92759695D01*
X135230562Y-92759695D02*
X135230562Y-119429695D01*
X110690562Y-119429695D02*
X118310562Y-125959695D01*
%TO.C,R11*%
X172120000Y-91710742D02*
X172120000Y-92185258D01*
X171075000Y-91710742D02*
X171075000Y-92185258D01*
%TO.C,Q1*%
X162458062Y-88150695D02*
X162458062Y-91600695D01*
X167578062Y-88150695D02*
X167578062Y-90100695D01*
X162458062Y-88150695D02*
X162458062Y-86200695D01*
X167578062Y-88150695D02*
X167578062Y-86200695D01*
%TO.C,U8*%
X201964600Y-87515700D02*
X201964600Y-89465700D01*
X210834600Y-87515700D02*
X210834600Y-89465700D01*
X210834600Y-87515700D02*
X210834600Y-84065700D01*
X201964600Y-87515700D02*
X201964600Y-85565700D01*
%TO.C,C4*%
X181012982Y-87854695D02*
X181294142Y-87854695D01*
X181012982Y-88874695D02*
X181294142Y-88874695D01*
%TO.C,C14*%
X139103142Y-85104695D02*
X138821982Y-85104695D01*
X139103142Y-84084695D02*
X138821982Y-84084695D01*
%TO.C,R16*%
X204382100Y-82393958D02*
X204382100Y-81919442D01*
X203337100Y-82393958D02*
X203337100Y-81919442D01*
%TO.C,C12*%
X117473000Y-87235420D02*
X117473000Y-87516580D01*
X118493000Y-87235420D02*
X118493000Y-87516580D01*
%TO.C,JP4*%
X142256000Y-111952000D02*
X142256000Y-110552000D01*
X143556000Y-112652000D02*
X142956000Y-112652000D01*
X142956000Y-109852000D02*
X143556000Y-109852000D01*
X144256000Y-110552000D02*
X144256000Y-111952000D01*
X143556000Y-112652000D02*
G75*
G03*
X144256000Y-111952000I0J700000D01*
G01*
X142256000Y-111952000D02*
G75*
G03*
X142956000Y-112652000I700000J0D01*
G01*
X142956000Y-109852000D02*
G75*
G03*
X142256000Y-110552000I-1J-699999D01*
G01*
X144256000Y-110552000D02*
G75*
G03*
X143556000Y-109852000I-699999J1D01*
G01*
%TO.C,L1*%
X185599562Y-85404695D02*
X185599562Y-78624695D01*
X185599562Y-78624695D02*
X179129562Y-78624695D01*
X185599562Y-85404695D02*
X179129562Y-85404695D01*
%TO.C,J1*%
X198410000Y-83310000D02*
X189690000Y-83310000D01*
X200110000Y-82010000D02*
X198410000Y-83310000D01*
X200110000Y-82010000D02*
X200110000Y-79190000D01*
X198410000Y-77890000D02*
X189690000Y-77890000D01*
X200110000Y-79190000D02*
X198410000Y-77890000D01*
X189690000Y-83310000D02*
X189690000Y-77890000D01*
%TO.C,C5*%
X181025982Y-87223695D02*
X181307142Y-87223695D01*
X181025982Y-86203695D02*
X181307142Y-86203695D01*
%TD*%
M02*
