%TF.GenerationSoftware,KiCad,Pcbnew,(6.0.0)*%
%TF.CreationDate,2022-11-29T18:54:42-05:00*%
%TF.ProjectId,motherboard_2022_2023,6d6f7468-6572-4626-9f61-72645f323032,rev?*%
%TF.SameCoordinates,Original*%
%TF.FileFunction,Legend,Bot*%
%TF.FilePolarity,Positive*%
%FSLAX46Y46*%
G04 Gerber Fmt 4.6, Leading zero omitted, Abs format (unit mm)*
G04 Created by KiCad (PCBNEW (6.0.0)) date 2022-11-29 18:54:42*
%MOMM*%
%LPD*%
G01*
G04 APERTURE LIST*
%ADD10C,0.015874*%
%ADD11C,0.015118*%
%ADD12C,0.030237*%
%ADD13C,0.150000*%
G04 APERTURE END LIST*
D10*
X182798375Y-115480211D02*
X182485176Y-115476516D01*
X182846359Y-119350274D02*
X182862977Y-119365778D01*
X183284529Y-106580000D02*
X182839079Y-106634757D01*
X187246979Y-119259827D02*
X188722877Y-115470465D01*
D11*
X179346035Y-124339188D02*
X179391048Y-124232467D01*
X179391048Y-124232467D02*
X179427174Y-124144337D01*
X179427174Y-124144337D02*
X179450737Y-124083943D01*
X179450737Y-124083943D02*
X179456659Y-124067005D01*
X179456659Y-124067005D02*
X179457953Y-124062351D01*
X179457953Y-124062351D02*
X179458061Y-124060431D01*
X179458061Y-124060431D02*
X179456601Y-124059690D01*
X179456601Y-124059690D02*
X179453294Y-124058493D01*
X179453294Y-124058493D02*
X179441533Y-124054837D01*
X179441533Y-124054837D02*
X179423559Y-124049678D01*
X179423559Y-124049678D02*
X179400152Y-124043226D01*
X179400152Y-124043226D02*
X179340160Y-124027293D01*
X179340160Y-124027293D02*
X179267800Y-124008737D01*
X179267800Y-124008737D02*
X179039028Y-123947855D01*
X179039028Y-123947855D02*
X178811902Y-123881144D01*
X178811902Y-123881144D02*
X178586478Y-123808632D01*
X178586478Y-123808632D02*
X178362811Y-123730346D01*
X178362811Y-123730346D02*
X178140956Y-123646311D01*
X178140956Y-123646311D02*
X177920969Y-123556556D01*
X177920969Y-123556556D02*
X177702904Y-123461106D01*
X177702904Y-123461106D02*
X177486818Y-123359988D01*
X177486818Y-123359988D02*
X177272766Y-123253230D01*
X177272766Y-123253230D02*
X177060803Y-123140857D01*
X177060803Y-123140857D02*
X176850985Y-123022898D01*
X176850985Y-123022898D02*
X176643366Y-122899377D01*
X176643366Y-122899377D02*
X176438003Y-122770323D01*
X176438003Y-122770323D02*
X176234951Y-122635761D01*
X176234951Y-122635761D02*
X176034264Y-122495720D01*
X176034264Y-122495720D02*
X175835999Y-122350225D01*
X175835999Y-122350225D02*
X175736582Y-122275907D01*
X175736582Y-122275907D02*
X175652897Y-122214222D01*
X175652897Y-122214222D02*
X175593741Y-122171595D01*
X175593741Y-122171595D02*
X175576110Y-122159436D01*
X175576110Y-122159436D02*
X175567910Y-122154450D01*
X175567910Y-122154450D02*
X175566720Y-122154855D01*
X175566720Y-122154855D02*
X175564723Y-122156612D01*
X175564723Y-122156612D02*
X175558393Y-122164054D01*
X175558393Y-122164054D02*
X175549091Y-122176509D01*
X175549091Y-122176509D02*
X175536987Y-122193710D01*
X175536987Y-122193710D02*
X175505058Y-122241290D01*
X175505058Y-122241290D02*
X175463969Y-122304663D01*
X175463969Y-122304663D02*
X175415084Y-122381701D01*
X175415084Y-122381701D02*
X175359768Y-122470276D01*
X175359768Y-122470276D02*
X175299385Y-122568258D01*
X175299385Y-122568258D02*
X175235299Y-122673517D01*
X175235299Y-122673517D02*
X174295625Y-124230885D01*
X174295625Y-124230885D02*
X174127294Y-124516904D01*
X174127294Y-124516904D02*
X174094685Y-124576643D01*
X174094685Y-124576643D02*
X174087371Y-124596066D01*
X174087371Y-124596066D02*
X174293366Y-124599874D01*
X174293366Y-124599874D02*
X174847595Y-124603593D01*
X174847595Y-124603593D02*
X176662738Y-124609056D01*
X176662738Y-124609056D02*
X179229108Y-124613047D01*
X179229108Y-124613047D02*
X179346035Y-124339188D01*
X179346035Y-124339188D02*
X179346035Y-124339188D01*
G36*
X175576110Y-122159436D02*
G01*
X175593741Y-122171595D01*
X175652897Y-122214222D01*
X175736582Y-122275907D01*
X175835999Y-122350225D01*
X176034264Y-122495720D01*
X176234951Y-122635761D01*
X176438003Y-122770323D01*
X176643366Y-122899377D01*
X176850985Y-123022898D01*
X177060803Y-123140857D01*
X177272766Y-123253230D01*
X177486818Y-123359988D01*
X177702904Y-123461106D01*
X177920969Y-123556556D01*
X178140956Y-123646311D01*
X178362811Y-123730346D01*
X178586478Y-123808632D01*
X178811902Y-123881144D01*
X179039028Y-123947855D01*
X179267800Y-124008737D01*
X179340160Y-124027293D01*
X179400152Y-124043226D01*
X179423559Y-124049678D01*
X179441533Y-124054837D01*
X179453294Y-124058493D01*
X179456601Y-124059690D01*
X179458061Y-124060431D01*
X179457953Y-124062351D01*
X179456659Y-124067005D01*
X179450737Y-124083943D01*
X179427174Y-124144337D01*
X179391048Y-124232467D01*
X179346035Y-124339188D01*
X179229108Y-124613047D01*
X176662738Y-124609056D01*
X174847595Y-124603593D01*
X174293366Y-124599874D01*
X174087371Y-124596066D01*
X174094685Y-124576643D01*
X174127294Y-124516904D01*
X174295625Y-124230885D01*
X175235299Y-122673517D01*
X175299385Y-122568258D01*
X175359768Y-122470276D01*
X175415084Y-122381701D01*
X175463969Y-122304663D01*
X175505058Y-122241290D01*
X175536987Y-122193710D01*
X175549091Y-122176509D01*
X175558393Y-122164054D01*
X175564723Y-122156612D01*
X175566720Y-122154855D01*
X175567910Y-122154450D01*
X175576110Y-122159436D01*
G37*
X175576110Y-122159436D02*
X175593741Y-122171595D01*
X175652897Y-122214222D01*
X175736582Y-122275907D01*
X175835999Y-122350225D01*
X176034264Y-122495720D01*
X176234951Y-122635761D01*
X176438003Y-122770323D01*
X176643366Y-122899377D01*
X176850985Y-123022898D01*
X177060803Y-123140857D01*
X177272766Y-123253230D01*
X177486818Y-123359988D01*
X177702904Y-123461106D01*
X177920969Y-123556556D01*
X178140956Y-123646311D01*
X178362811Y-123730346D01*
X178586478Y-123808632D01*
X178811902Y-123881144D01*
X179039028Y-123947855D01*
X179267800Y-124008737D01*
X179340160Y-124027293D01*
X179400152Y-124043226D01*
X179423559Y-124049678D01*
X179441533Y-124054837D01*
X179453294Y-124058493D01*
X179456601Y-124059690D01*
X179458061Y-124060431D01*
X179457953Y-124062351D01*
X179456659Y-124067005D01*
X179450737Y-124083943D01*
X179427174Y-124144337D01*
X179391048Y-124232467D01*
X179346035Y-124339188D01*
X179229108Y-124613047D01*
X176662738Y-124609056D01*
X174847595Y-124603593D01*
X174293366Y-124599874D01*
X174087371Y-124596066D01*
X174094685Y-124576643D01*
X174127294Y-124516904D01*
X174295625Y-124230885D01*
X175235299Y-122673517D01*
X175299385Y-122568258D01*
X175359768Y-122470276D01*
X175415084Y-122381701D01*
X175463969Y-122304663D01*
X175505058Y-122241290D01*
X175536987Y-122193710D01*
X175549091Y-122176509D01*
X175558393Y-122164054D01*
X175564723Y-122156612D01*
X175566720Y-122154855D01*
X175567910Y-122154450D01*
X175576110Y-122159436D01*
D10*
X181497575Y-115525860D02*
X181262763Y-115552458D01*
X182546313Y-119262984D02*
X182590565Y-119266040D01*
X181859729Y-119485510D02*
X181914547Y-119446771D01*
X181805535Y-119528630D02*
X181859729Y-119485510D01*
X179677452Y-116068987D02*
X179614634Y-116110682D01*
X182080690Y-119355173D02*
X182135951Y-119332292D01*
X187308033Y-106970561D02*
X187308033Y-106970561D01*
X187286888Y-115470465D02*
X187286888Y-115470465D01*
X187214384Y-106936671D02*
X186947049Y-106861049D01*
X182451883Y-119263685D02*
X182500018Y-119262143D01*
X181025364Y-115586856D02*
X180789597Y-115630009D01*
X185652833Y-106618768D02*
X185307115Y-106580898D01*
X182348256Y-106660586D02*
X182322443Y-110767893D01*
X182322443Y-110767893D02*
X182196972Y-110762582D01*
X182196972Y-110762582D02*
X182052839Y-110762182D01*
X182052839Y-110762182D02*
X181865734Y-110768830D01*
X181865734Y-110768830D02*
X181644128Y-110786683D01*
X181644128Y-110786683D02*
X181396489Y-110819901D01*
X181396489Y-110819901D02*
X181131289Y-110872642D01*
X181131289Y-110872642D02*
X180994751Y-110907633D01*
X180994751Y-110907633D02*
X180856998Y-110949064D01*
X180856998Y-110949064D02*
X180719090Y-110997455D01*
X180719090Y-110997455D02*
X180582085Y-111053326D01*
X180582085Y-111053326D02*
X180447043Y-111117196D01*
X180447043Y-111117196D02*
X180315021Y-111189586D01*
X180315021Y-111189586D02*
X180187079Y-111271014D01*
X180187079Y-111271014D02*
X180064276Y-111362002D01*
X180064276Y-111362002D02*
X179947670Y-111463068D01*
X179947670Y-111463068D02*
X179838320Y-111574732D01*
X179838320Y-111574732D02*
X179737284Y-111697515D01*
X179737284Y-111697515D02*
X179645622Y-111831936D01*
X179645622Y-111831936D02*
X179564393Y-111978515D01*
X179564393Y-111978515D02*
X179494654Y-112137771D01*
X179494654Y-112137771D02*
X179437465Y-112310225D01*
X179437465Y-112310225D02*
X179393885Y-112496397D01*
X179393885Y-112496397D02*
X179364972Y-112696805D01*
X179364972Y-112696805D02*
X179351785Y-112911970D01*
X179351785Y-112911970D02*
X179352749Y-113145280D01*
X179352749Y-113145280D02*
X179365913Y-113360710D01*
X179365913Y-113360710D02*
X179390340Y-113559532D01*
X179390340Y-113559532D02*
X179425096Y-113743017D01*
X179425096Y-113743017D02*
X179469246Y-113912434D01*
X179469246Y-113912434D02*
X179521854Y-114069055D01*
X179521854Y-114069055D02*
X179581987Y-114214150D01*
X179581987Y-114214150D02*
X179648708Y-114348990D01*
X179648708Y-114348990D02*
X179721082Y-114474847D01*
X179721082Y-114474847D02*
X179798175Y-114592990D01*
X179798175Y-114592990D02*
X179879052Y-114704691D01*
X179879052Y-114704691D02*
X179962777Y-114811220D01*
X179962777Y-114811220D02*
X180135032Y-115013846D01*
X180135032Y-115013846D02*
X180307460Y-115211035D01*
X180307460Y-115211035D02*
X180274056Y-115215834D01*
X180274056Y-115215834D02*
X180180815Y-115234080D01*
X180180815Y-115234080D02*
X180115021Y-115250049D01*
X180115021Y-115250049D02*
X180038188Y-115271544D01*
X180038188Y-115271544D02*
X179951622Y-115299286D01*
X179951622Y-115299286D02*
X179856630Y-115333997D01*
X179856630Y-115333997D02*
X179754518Y-115376398D01*
X179754518Y-115376398D02*
X179646593Y-115427210D01*
X179646593Y-115427210D02*
X179590859Y-115455996D01*
X179590859Y-115455996D02*
X179534162Y-115487156D01*
X179534162Y-115487156D02*
X179476665Y-115520779D01*
X179476665Y-115520779D02*
X179418531Y-115556955D01*
X179418531Y-115556955D02*
X179359925Y-115595776D01*
X179359925Y-115595776D02*
X179301008Y-115637331D01*
X179301008Y-115637331D02*
X179241945Y-115681710D01*
X179241945Y-115681710D02*
X179182898Y-115729004D01*
X179182898Y-115729004D02*
X179124032Y-115779302D01*
X179124032Y-115779302D02*
X179065509Y-115832696D01*
X179065509Y-115832696D02*
X179007493Y-115889274D01*
X179007493Y-115889274D02*
X178950147Y-115949127D01*
X178950147Y-115949127D02*
X178796681Y-116120413D01*
X178796681Y-116120413D02*
X178648663Y-116295988D01*
X178648663Y-116295988D02*
X178506473Y-116474118D01*
X178506473Y-116474118D02*
X178370496Y-116653070D01*
X178370496Y-116653070D02*
X178241114Y-116831109D01*
X178241114Y-116831109D02*
X178118709Y-117006502D01*
X178118709Y-117006502D02*
X177896364Y-117342412D01*
X177896364Y-117342412D02*
X177706524Y-117646929D01*
X177706524Y-117646929D02*
X177552249Y-117906179D01*
X177552249Y-117906179D02*
X177362646Y-118233397D01*
X177362646Y-118233397D02*
X177197353Y-118117279D01*
X177197353Y-118117279D02*
X177002880Y-117952694D01*
X177002880Y-117952694D02*
X176786376Y-117741030D01*
X176786376Y-117741030D02*
X176554986Y-117483673D01*
X176554986Y-117483673D02*
X176315857Y-117182010D01*
X176315857Y-117182010D02*
X176195624Y-117014997D01*
X176195624Y-117014997D02*
X176076135Y-116837428D01*
X176076135Y-116837428D02*
X175958286Y-116649476D01*
X175958286Y-116649476D02*
X175842968Y-116451314D01*
X175842968Y-116451314D02*
X175731075Y-116243116D01*
X175731075Y-116243116D02*
X175623501Y-116025056D01*
X175623501Y-116025056D02*
X175521138Y-115797305D01*
X175521138Y-115797305D02*
X175424881Y-115560039D01*
X175424881Y-115560039D02*
X175335622Y-115313430D01*
X175335622Y-115313430D02*
X175254255Y-115057651D01*
X175254255Y-115057651D02*
X175181672Y-114792876D01*
X175181672Y-114792876D02*
X175118769Y-114519279D01*
X175118769Y-114519279D02*
X175066436Y-114237033D01*
X175066436Y-114237033D02*
X175025569Y-113946310D01*
X175025569Y-113946310D02*
X174997061Y-113647285D01*
X174997061Y-113647285D02*
X174981803Y-113340131D01*
X174981803Y-113340131D02*
X174980691Y-113025021D01*
X174980691Y-113025021D02*
X174994617Y-112702128D01*
X174994617Y-112702128D02*
X175024475Y-112371627D01*
X175024475Y-112371627D02*
X175071158Y-112033690D01*
X175071158Y-112033690D02*
X175135558Y-111688490D01*
X175135558Y-111688490D02*
X175218571Y-111336202D01*
X175218571Y-111336202D02*
X175362149Y-110844581D01*
X175362149Y-110844581D02*
X175528272Y-110388443D01*
X175528272Y-110388443D02*
X175715197Y-109966469D01*
X175715197Y-109966469D02*
X175921180Y-109577339D01*
X175921180Y-109577339D02*
X176144477Y-109219735D01*
X176144477Y-109219735D02*
X176383346Y-108892336D01*
X176383346Y-108892336D02*
X176636043Y-108593825D01*
X176636043Y-108593825D02*
X176900825Y-108322881D01*
X176900825Y-108322881D02*
X177175948Y-108078185D01*
X177175948Y-108078185D02*
X177459669Y-107858419D01*
X177459669Y-107858419D02*
X177750245Y-107662262D01*
X177750245Y-107662262D02*
X178045931Y-107488397D01*
X178045931Y-107488397D02*
X178344986Y-107335503D01*
X178344986Y-107335503D02*
X178645665Y-107202261D01*
X178645665Y-107202261D02*
X178946226Y-107087353D01*
X178946226Y-107087353D02*
X179244924Y-106989459D01*
X179244924Y-106989459D02*
X179829760Y-106839435D01*
X179829760Y-106839435D02*
X180386227Y-106741637D01*
X180386227Y-106741637D02*
X180900379Y-106685511D01*
X180900379Y-106685511D02*
X181358267Y-106660504D01*
X181358267Y-106660504D02*
X182348256Y-106660586D01*
X182348256Y-106660586D02*
X182348256Y-106660586D01*
G36*
X182348256Y-106660586D02*
G01*
X182322443Y-110767893D01*
X182196972Y-110762582D01*
X182052839Y-110762182D01*
X181865734Y-110768830D01*
X181644128Y-110786683D01*
X181396489Y-110819901D01*
X181131289Y-110872642D01*
X180994751Y-110907633D01*
X180856998Y-110949064D01*
X180719090Y-110997455D01*
X180582085Y-111053326D01*
X180447043Y-111117196D01*
X180315021Y-111189586D01*
X180187079Y-111271014D01*
X180064276Y-111362002D01*
X179947670Y-111463068D01*
X179838320Y-111574732D01*
X179737284Y-111697515D01*
X179645622Y-111831936D01*
X179564393Y-111978515D01*
X179494654Y-112137771D01*
X179437465Y-112310225D01*
X179393885Y-112496397D01*
X179364972Y-112696805D01*
X179351785Y-112911970D01*
X179352749Y-113145280D01*
X179365913Y-113360710D01*
X179390340Y-113559532D01*
X179425096Y-113743017D01*
X179469246Y-113912434D01*
X179521854Y-114069055D01*
X179581987Y-114214150D01*
X179648708Y-114348990D01*
X179721082Y-114474847D01*
X179798175Y-114592990D01*
X179879052Y-114704691D01*
X179962777Y-114811220D01*
X180135032Y-115013846D01*
X180307460Y-115211035D01*
X180274056Y-115215834D01*
X180180815Y-115234080D01*
X180115021Y-115250049D01*
X180038188Y-115271544D01*
X179951622Y-115299286D01*
X179856630Y-115333997D01*
X179754518Y-115376398D01*
X179646593Y-115427210D01*
X179590859Y-115455996D01*
X179534162Y-115487156D01*
X179476665Y-115520779D01*
X179418531Y-115556955D01*
X179359925Y-115595776D01*
X179301008Y-115637331D01*
X179241945Y-115681710D01*
X179182898Y-115729004D01*
X179124032Y-115779302D01*
X179065509Y-115832696D01*
X179007493Y-115889274D01*
X178950147Y-115949127D01*
X178796681Y-116120413D01*
X178648663Y-116295988D01*
X178506473Y-116474118D01*
X178370496Y-116653070D01*
X178241114Y-116831109D01*
X178118709Y-117006502D01*
X177896364Y-117342412D01*
X177706524Y-117646929D01*
X177552249Y-117906179D01*
X177362646Y-118233397D01*
X177197353Y-118117279D01*
X177002880Y-117952694D01*
X176786376Y-117741030D01*
X176554986Y-117483673D01*
X176315857Y-117182010D01*
X176195624Y-117014997D01*
X176076135Y-116837428D01*
X175958286Y-116649476D01*
X175842968Y-116451314D01*
X175731075Y-116243116D01*
X175623501Y-116025056D01*
X175521138Y-115797305D01*
X175424881Y-115560039D01*
X175335622Y-115313430D01*
X175254255Y-115057651D01*
X175181672Y-114792876D01*
X175118769Y-114519279D01*
X175066436Y-114237033D01*
X175025569Y-113946310D01*
X174997061Y-113647285D01*
X174981803Y-113340131D01*
X174980691Y-113025021D01*
X174994617Y-112702128D01*
X175024475Y-112371627D01*
X175071158Y-112033690D01*
X175135558Y-111688490D01*
X175218571Y-111336202D01*
X175362149Y-110844581D01*
X175528272Y-110388443D01*
X175715197Y-109966469D01*
X175921180Y-109577339D01*
X176144477Y-109219735D01*
X176383346Y-108892336D01*
X176636043Y-108593825D01*
X176900825Y-108322881D01*
X177175948Y-108078185D01*
X177459669Y-107858419D01*
X177750245Y-107662262D01*
X178045931Y-107488397D01*
X178344986Y-107335503D01*
X178645665Y-107202261D01*
X178946226Y-107087353D01*
X179244924Y-106989459D01*
X179829760Y-106839435D01*
X180386227Y-106741637D01*
X180900379Y-106685511D01*
X181358267Y-106660504D01*
X182348256Y-106660586D01*
G37*
X182348256Y-106660586D02*
X182322443Y-110767893D01*
X182196972Y-110762582D01*
X182052839Y-110762182D01*
X181865734Y-110768830D01*
X181644128Y-110786683D01*
X181396489Y-110819901D01*
X181131289Y-110872642D01*
X180994751Y-110907633D01*
X180856998Y-110949064D01*
X180719090Y-110997455D01*
X180582085Y-111053326D01*
X180447043Y-111117196D01*
X180315021Y-111189586D01*
X180187079Y-111271014D01*
X180064276Y-111362002D01*
X179947670Y-111463068D01*
X179838320Y-111574732D01*
X179737284Y-111697515D01*
X179645622Y-111831936D01*
X179564393Y-111978515D01*
X179494654Y-112137771D01*
X179437465Y-112310225D01*
X179393885Y-112496397D01*
X179364972Y-112696805D01*
X179351785Y-112911970D01*
X179352749Y-113145280D01*
X179365913Y-113360710D01*
X179390340Y-113559532D01*
X179425096Y-113743017D01*
X179469246Y-113912434D01*
X179521854Y-114069055D01*
X179581987Y-114214150D01*
X179648708Y-114348990D01*
X179721082Y-114474847D01*
X179798175Y-114592990D01*
X179879052Y-114704691D01*
X179962777Y-114811220D01*
X180135032Y-115013846D01*
X180307460Y-115211035D01*
X180274056Y-115215834D01*
X180180815Y-115234080D01*
X180115021Y-115250049D01*
X180038188Y-115271544D01*
X179951622Y-115299286D01*
X179856630Y-115333997D01*
X179754518Y-115376398D01*
X179646593Y-115427210D01*
X179590859Y-115455996D01*
X179534162Y-115487156D01*
X179476665Y-115520779D01*
X179418531Y-115556955D01*
X179359925Y-115595776D01*
X179301008Y-115637331D01*
X179241945Y-115681710D01*
X179182898Y-115729004D01*
X179124032Y-115779302D01*
X179065509Y-115832696D01*
X179007493Y-115889274D01*
X178950147Y-115949127D01*
X178796681Y-116120413D01*
X178648663Y-116295988D01*
X178506473Y-116474118D01*
X178370496Y-116653070D01*
X178241114Y-116831109D01*
X178118709Y-117006502D01*
X177896364Y-117342412D01*
X177706524Y-117646929D01*
X177552249Y-117906179D01*
X177362646Y-118233397D01*
X177197353Y-118117279D01*
X177002880Y-117952694D01*
X176786376Y-117741030D01*
X176554986Y-117483673D01*
X176315857Y-117182010D01*
X176195624Y-117014997D01*
X176076135Y-116837428D01*
X175958286Y-116649476D01*
X175842968Y-116451314D01*
X175731075Y-116243116D01*
X175623501Y-116025056D01*
X175521138Y-115797305D01*
X175424881Y-115560039D01*
X175335622Y-115313430D01*
X175254255Y-115057651D01*
X175181672Y-114792876D01*
X175118769Y-114519279D01*
X175066436Y-114237033D01*
X175025569Y-113946310D01*
X174997061Y-113647285D01*
X174981803Y-113340131D01*
X174980691Y-113025021D01*
X174994617Y-112702128D01*
X175024475Y-112371627D01*
X175071158Y-112033690D01*
X175135558Y-111688490D01*
X175218571Y-111336202D01*
X175362149Y-110844581D01*
X175528272Y-110388443D01*
X175715197Y-109966469D01*
X175921180Y-109577339D01*
X176144477Y-109219735D01*
X176383346Y-108892336D01*
X176636043Y-108593825D01*
X176900825Y-108322881D01*
X177175948Y-108078185D01*
X177459669Y-107858419D01*
X177750245Y-107662262D01*
X178045931Y-107488397D01*
X178344986Y-107335503D01*
X178645665Y-107202261D01*
X178946226Y-107087353D01*
X179244924Y-106989459D01*
X179829760Y-106839435D01*
X180386227Y-106741637D01*
X180900379Y-106685511D01*
X181358267Y-106660504D01*
X182348256Y-106660586D01*
X182887433Y-124611766D02*
X182887433Y-124611766D01*
X182298498Y-119284270D02*
X182350918Y-119274582D01*
X182798375Y-115480211D02*
X182485176Y-115476516D01*
X182887433Y-119414927D02*
X182887433Y-119414927D01*
X182887433Y-119414927D02*
X182887433Y-119414927D01*
X182743024Y-119297092D02*
X182773977Y-119308729D01*
X182839079Y-106634757D02*
X182849542Y-108291715D01*
X182887433Y-124611766D02*
X187207101Y-124604939D01*
X183936200Y-110404562D02*
X170812751Y-114313685D01*
X170812751Y-114313685D02*
X170953465Y-114724424D01*
X170953465Y-114724424D02*
X171104757Y-115123364D01*
X171104757Y-115123364D02*
X171437388Y-115886431D01*
X171437388Y-115886431D02*
X171807272Y-116604058D01*
X171807272Y-116604058D02*
X172211036Y-117277417D01*
X172211036Y-117277417D02*
X172645308Y-117907681D01*
X172645308Y-117907681D02*
X173106715Y-118496019D01*
X173106715Y-118496019D02*
X173591886Y-119043606D01*
X173591886Y-119043606D02*
X174097447Y-119551612D01*
X174097447Y-119551612D02*
X174620027Y-120021210D01*
X174620027Y-120021210D02*
X175156253Y-120453570D01*
X175156253Y-120453570D02*
X175702752Y-120849866D01*
X175702752Y-120849866D02*
X176256154Y-121211269D01*
X176256154Y-121211269D02*
X176813084Y-121538950D01*
X176813084Y-121538950D02*
X177370171Y-121834083D01*
X177370171Y-121834083D02*
X177924042Y-122097837D01*
X177924042Y-122097837D02*
X178471326Y-122331387D01*
X178471326Y-122331387D02*
X179019333Y-122520154D01*
X179019333Y-122520154D02*
X179666599Y-122683599D01*
X179666599Y-122683599D02*
X180396853Y-122813491D01*
X180396853Y-122813491D02*
X181193825Y-122901601D01*
X181193825Y-122901601D02*
X182041245Y-122939699D01*
X182041245Y-122939699D02*
X182922844Y-122919554D01*
X182922844Y-122919554D02*
X183822351Y-122832939D01*
X183822351Y-122832939D02*
X184723496Y-122671622D01*
X184723496Y-122671622D02*
X185169598Y-122560378D01*
X185169598Y-122560378D02*
X185610009Y-122427373D01*
X185610009Y-122427373D02*
X186042694Y-122271578D01*
X186042694Y-122271578D02*
X186465619Y-122091963D01*
X186465619Y-122091963D02*
X186876752Y-121887501D01*
X186876752Y-121887501D02*
X187274058Y-121657163D01*
X187274058Y-121657163D02*
X187655503Y-121399919D01*
X187655503Y-121399919D02*
X188019054Y-121114742D01*
X188019054Y-121114742D02*
X188362677Y-120800601D01*
X188362677Y-120800601D02*
X188684338Y-120456470D01*
X188684338Y-120456470D02*
X188982003Y-120081318D01*
X188982003Y-120081318D02*
X189253639Y-119674117D01*
X189253639Y-119674117D02*
X189497212Y-119233839D01*
X189497212Y-119233839D02*
X189710688Y-118759455D01*
X189710688Y-118759455D02*
X189892033Y-118249936D01*
X189892033Y-118249936D02*
X190039214Y-117704253D01*
X190039214Y-117704253D02*
X190115639Y-117310025D01*
X190115639Y-117310025D02*
X190164241Y-116920721D01*
X190164241Y-116920721D02*
X190186803Y-116537361D01*
X190186803Y-116537361D02*
X190185110Y-116160965D01*
X190185110Y-116160965D02*
X190160946Y-115792552D01*
X190160946Y-115792552D02*
X190116095Y-115433143D01*
X190116095Y-115433143D02*
X190052342Y-115083756D01*
X190052342Y-115083756D02*
X189971469Y-114745412D01*
X189971469Y-114745412D02*
X189875263Y-114419130D01*
X189875263Y-114419130D02*
X189765505Y-114105930D01*
X189765505Y-114105930D02*
X189643982Y-113806833D01*
X189643982Y-113806833D02*
X189512476Y-113522856D01*
X189512476Y-113522856D02*
X189372773Y-113255021D01*
X189372773Y-113255021D02*
X189226655Y-113004347D01*
X189226655Y-113004347D02*
X189075908Y-112771854D01*
X189075908Y-112771854D02*
X188922315Y-112558561D01*
X188922315Y-112558561D02*
X188800276Y-112413698D01*
X188800276Y-112413698D02*
X188641453Y-112253960D01*
X188641453Y-112253960D02*
X188446568Y-112083092D01*
X188446568Y-112083092D02*
X188216343Y-111904837D01*
X188216343Y-111904837D02*
X187951500Y-111722938D01*
X187951500Y-111722938D02*
X187652761Y-111541140D01*
X187652761Y-111541140D02*
X187320848Y-111363187D01*
X187320848Y-111363187D02*
X187142677Y-111276821D01*
X187142677Y-111276821D02*
X186956484Y-111192821D01*
X186956484Y-111192821D02*
X186762359Y-111111654D01*
X186762359Y-111111654D02*
X186560391Y-111033788D01*
X186560391Y-111033788D02*
X186350672Y-110959690D01*
X186350672Y-110959690D02*
X186133291Y-110889830D01*
X186133291Y-110889830D02*
X185908339Y-110824674D01*
X185908339Y-110824674D02*
X185675906Y-110764692D01*
X185675906Y-110764692D02*
X185436082Y-110710350D01*
X185436082Y-110710350D02*
X185188958Y-110662117D01*
X185188958Y-110662117D02*
X184934624Y-110620460D01*
X184934624Y-110620460D02*
X184673170Y-110585849D01*
X184673170Y-110585849D02*
X184404686Y-110558750D01*
X184404686Y-110558750D02*
X184129263Y-110539632D01*
X184129263Y-110539632D02*
X183846991Y-110528963D01*
X183846991Y-110528963D02*
X183557960Y-110527210D01*
X183557960Y-110527210D02*
X183262260Y-110534842D01*
X183262260Y-110534842D02*
X182959983Y-110552327D01*
X182959983Y-110552327D02*
X183026260Y-106741438D01*
X183026260Y-106741438D02*
X183288772Y-106704884D01*
X183288772Y-106704884D02*
X183597142Y-106673965D01*
X183597142Y-106673965D02*
X184006012Y-106647749D01*
X184006012Y-106647749D02*
X184502203Y-106636085D01*
X184502203Y-106636085D02*
X185072535Y-106648822D01*
X185072535Y-106648822D02*
X185703825Y-106695809D01*
X185703825Y-106695809D02*
X186382894Y-106786894D01*
X186382894Y-106786894D02*
X186736227Y-106852051D01*
X186736227Y-106852051D02*
X187096561Y-106931926D01*
X187096561Y-106931926D02*
X187462250Y-107027750D01*
X187462250Y-107027750D02*
X187831646Y-107140754D01*
X187831646Y-107140754D02*
X188203101Y-107272169D01*
X188203101Y-107272169D02*
X188574968Y-107423226D01*
X188574968Y-107423226D02*
X188945598Y-107595156D01*
X188945598Y-107595156D02*
X189313345Y-107789191D01*
X189313345Y-107789191D02*
X189676561Y-108006562D01*
X189676561Y-108006562D02*
X190033599Y-108248499D01*
X190033599Y-108248499D02*
X190382810Y-108516233D01*
X190382810Y-108516233D02*
X190722547Y-108810997D01*
X190722547Y-108810997D02*
X191051162Y-109134020D01*
X191051162Y-109134020D02*
X191367009Y-109486534D01*
X191367009Y-109486534D02*
X191668439Y-109869770D01*
X191668439Y-109869770D02*
X191953805Y-110284960D01*
X191953805Y-110284960D02*
X192340039Y-110936731D01*
X192340039Y-110936731D02*
X192670717Y-111597063D01*
X192670717Y-111597063D02*
X192947633Y-112262738D01*
X192947633Y-112262738D02*
X193172584Y-112930537D01*
X193172584Y-112930537D02*
X193347367Y-113597240D01*
X193347367Y-113597240D02*
X193473776Y-114259629D01*
X193473776Y-114259629D02*
X193553607Y-114914485D01*
X193553607Y-114914485D02*
X193588658Y-115558589D01*
X193588658Y-115558589D02*
X193580723Y-116188722D01*
X193580723Y-116188722D02*
X193531598Y-116801664D01*
X193531598Y-116801664D02*
X193443080Y-117394198D01*
X193443080Y-117394198D02*
X193316964Y-117963104D01*
X193316964Y-117963104D02*
X193155046Y-118505163D01*
X193155046Y-118505163D02*
X192959122Y-119017157D01*
X192959122Y-119017157D02*
X192730989Y-119495865D01*
X192730989Y-119495865D02*
X192472441Y-119938070D01*
X192472441Y-119938070D02*
X192273828Y-120231798D01*
X192273828Y-120231798D02*
X192065278Y-120513822D01*
X192065278Y-120513822D02*
X191847086Y-120784310D01*
X191847086Y-120784310D02*
X191619551Y-121043430D01*
X191619551Y-121043430D02*
X191382969Y-121291351D01*
X191382969Y-121291351D02*
X191137636Y-121528240D01*
X191137636Y-121528240D02*
X190883849Y-121754266D01*
X190883849Y-121754266D02*
X190621905Y-121969596D01*
X190621905Y-121969596D02*
X190352101Y-122174398D01*
X190352101Y-122174398D02*
X190074733Y-122368842D01*
X190074733Y-122368842D02*
X189790099Y-122553093D01*
X189790099Y-122553093D02*
X189498495Y-122727322D01*
X189498495Y-122727322D02*
X188895564Y-123046380D01*
X188895564Y-123046380D02*
X188268314Y-123327362D01*
X188268314Y-123327362D02*
X187619120Y-123571611D01*
X187619120Y-123571611D02*
X186950355Y-123780472D01*
X186950355Y-123780472D02*
X186264394Y-123955289D01*
X186264394Y-123955289D02*
X185563611Y-124097406D01*
X185563611Y-124097406D02*
X184850380Y-124208168D01*
X184850380Y-124208168D02*
X184127075Y-124288919D01*
X184127075Y-124288919D02*
X183396070Y-124341003D01*
X183396070Y-124341003D02*
X182659739Y-124365765D01*
X182659739Y-124365765D02*
X181926587Y-124360449D01*
X181926587Y-124360449D02*
X181237341Y-124322494D01*
X181237341Y-124322494D02*
X180590007Y-124254346D01*
X180590007Y-124254346D02*
X179982589Y-124158448D01*
X179982589Y-124158448D02*
X179413093Y-124037247D01*
X179413093Y-124037247D02*
X178879523Y-123893185D01*
X178879523Y-123893185D02*
X178379885Y-123728708D01*
X178379885Y-123728708D02*
X177912183Y-123546259D01*
X177912183Y-123546259D02*
X177474424Y-123348285D01*
X177474424Y-123348285D02*
X177064611Y-123137228D01*
X177064611Y-123137228D02*
X176680750Y-122915533D01*
X176680750Y-122915533D02*
X176320846Y-122685646D01*
X176320846Y-122685646D02*
X175982905Y-122450010D01*
X175982905Y-122450010D02*
X175664930Y-122211070D01*
X175664930Y-122211070D02*
X175080903Y-121733057D01*
X175080903Y-121733057D02*
X174614415Y-121276213D01*
X174614415Y-121276213D02*
X174186258Y-120826754D01*
X174186258Y-120826754D02*
X173793925Y-120382902D01*
X173793925Y-120382902D02*
X173434909Y-119942877D01*
X173434909Y-119942877D02*
X173106702Y-119504901D01*
X173106702Y-119504901D02*
X172806796Y-119067196D01*
X172806796Y-119067196D02*
X172532686Y-118627982D01*
X172532686Y-118627982D02*
X172281863Y-118185480D01*
X172281863Y-118185480D02*
X172051820Y-117737913D01*
X172051820Y-117737913D02*
X171840050Y-117283501D01*
X171840050Y-117283501D02*
X171644046Y-116820466D01*
X171644046Y-116820466D02*
X171461299Y-116347029D01*
X171461299Y-116347029D02*
X171289304Y-115861411D01*
X171289304Y-115861411D02*
X171125552Y-115361833D01*
X171125552Y-115361833D02*
X170812751Y-114313685D01*
X170812751Y-114313685D02*
X183936200Y-110404562D01*
X183936200Y-110404562D02*
X183936200Y-110404562D01*
G36*
X185072535Y-106648822D02*
G01*
X185703825Y-106695809D01*
X186382894Y-106786894D01*
X186736227Y-106852051D01*
X187096561Y-106931926D01*
X187462250Y-107027750D01*
X187831646Y-107140754D01*
X188203101Y-107272169D01*
X188574968Y-107423226D01*
X188945598Y-107595156D01*
X189313345Y-107789191D01*
X189676561Y-108006562D01*
X190033599Y-108248499D01*
X190382810Y-108516233D01*
X190722547Y-108810997D01*
X191051162Y-109134020D01*
X191367009Y-109486534D01*
X191668439Y-109869770D01*
X191953805Y-110284960D01*
X192340039Y-110936731D01*
X192670717Y-111597063D01*
X192947633Y-112262738D01*
X193172584Y-112930537D01*
X193347367Y-113597240D01*
X193473776Y-114259629D01*
X193553607Y-114914485D01*
X193588658Y-115558589D01*
X193580723Y-116188722D01*
X193531598Y-116801664D01*
X193443080Y-117394198D01*
X193316964Y-117963104D01*
X193155046Y-118505163D01*
X192959122Y-119017157D01*
X192730989Y-119495865D01*
X192472441Y-119938070D01*
X192273828Y-120231798D01*
X192065278Y-120513822D01*
X191847086Y-120784310D01*
X191619551Y-121043430D01*
X191382969Y-121291351D01*
X191137636Y-121528240D01*
X190883849Y-121754266D01*
X190621905Y-121969596D01*
X190352101Y-122174398D01*
X190074733Y-122368842D01*
X189790099Y-122553093D01*
X189498495Y-122727322D01*
X188895564Y-123046380D01*
X188268314Y-123327362D01*
X187619120Y-123571611D01*
X186950355Y-123780472D01*
X186264394Y-123955289D01*
X185563611Y-124097406D01*
X184850380Y-124208168D01*
X184127075Y-124288919D01*
X183396070Y-124341003D01*
X182659739Y-124365765D01*
X181926587Y-124360449D01*
X181237341Y-124322494D01*
X180590007Y-124254346D01*
X179982589Y-124158448D01*
X179413093Y-124037247D01*
X178879523Y-123893185D01*
X178379885Y-123728708D01*
X177912183Y-123546259D01*
X177474424Y-123348285D01*
X177064611Y-123137228D01*
X176680750Y-122915533D01*
X176320846Y-122685646D01*
X175982905Y-122450010D01*
X175664930Y-122211070D01*
X175080903Y-121733057D01*
X174614415Y-121276213D01*
X174186258Y-120826754D01*
X173793925Y-120382902D01*
X173434909Y-119942877D01*
X173106702Y-119504901D01*
X172806796Y-119067196D01*
X172532686Y-118627982D01*
X172281863Y-118185480D01*
X172051820Y-117737913D01*
X171840050Y-117283501D01*
X171644046Y-116820466D01*
X171461299Y-116347029D01*
X171289304Y-115861411D01*
X171125552Y-115361833D01*
X170812751Y-114313685D01*
X170953465Y-114724424D01*
X171104757Y-115123364D01*
X171437388Y-115886431D01*
X171807272Y-116604058D01*
X172211036Y-117277417D01*
X172645308Y-117907681D01*
X173106715Y-118496019D01*
X173591886Y-119043606D01*
X174097447Y-119551612D01*
X174620027Y-120021210D01*
X175156253Y-120453570D01*
X175702752Y-120849866D01*
X176256154Y-121211269D01*
X176813084Y-121538950D01*
X177370171Y-121834083D01*
X177924042Y-122097837D01*
X178471326Y-122331387D01*
X179019333Y-122520154D01*
X179666599Y-122683599D01*
X180396853Y-122813491D01*
X181193825Y-122901601D01*
X182041245Y-122939699D01*
X182922844Y-122919554D01*
X183822351Y-122832939D01*
X184723496Y-122671622D01*
X185169598Y-122560378D01*
X185610009Y-122427373D01*
X186042694Y-122271578D01*
X186465619Y-122091963D01*
X186876752Y-121887501D01*
X187274058Y-121657163D01*
X187655503Y-121399919D01*
X188019054Y-121114742D01*
X188362677Y-120800601D01*
X188684338Y-120456470D01*
X188982003Y-120081318D01*
X189253639Y-119674117D01*
X189497212Y-119233839D01*
X189710688Y-118759455D01*
X189892033Y-118249936D01*
X190039214Y-117704253D01*
X190115639Y-117310025D01*
X190164241Y-116920721D01*
X190186803Y-116537361D01*
X190185110Y-116160965D01*
X190160946Y-115792552D01*
X190116095Y-115433143D01*
X190052342Y-115083756D01*
X189971469Y-114745412D01*
X189875263Y-114419130D01*
X189765505Y-114105930D01*
X189643982Y-113806833D01*
X189512476Y-113522856D01*
X189372773Y-113255021D01*
X189226655Y-113004347D01*
X189075908Y-112771854D01*
X188922315Y-112558561D01*
X188800276Y-112413698D01*
X188641453Y-112253960D01*
X188446568Y-112083092D01*
X188216343Y-111904837D01*
X187951500Y-111722938D01*
X187652761Y-111541140D01*
X187320848Y-111363187D01*
X187142677Y-111276821D01*
X186956484Y-111192821D01*
X186762359Y-111111654D01*
X186560391Y-111033788D01*
X186350672Y-110959690D01*
X186133291Y-110889830D01*
X185908339Y-110824674D01*
X185675906Y-110764692D01*
X185436082Y-110710350D01*
X185188958Y-110662117D01*
X184934624Y-110620460D01*
X184673170Y-110585849D01*
X184404686Y-110558750D01*
X184129263Y-110539632D01*
X183846991Y-110528963D01*
X183557960Y-110527210D01*
X183262260Y-110534842D01*
X182959983Y-110552327D01*
X183026260Y-106741438D01*
X183288772Y-106704884D01*
X183597142Y-106673965D01*
X184006012Y-106647749D01*
X184502203Y-106636085D01*
X185072535Y-106648822D01*
G37*
X185072535Y-106648822D02*
X185703825Y-106695809D01*
X186382894Y-106786894D01*
X186736227Y-106852051D01*
X187096561Y-106931926D01*
X187462250Y-107027750D01*
X187831646Y-107140754D01*
X188203101Y-107272169D01*
X188574968Y-107423226D01*
X188945598Y-107595156D01*
X189313345Y-107789191D01*
X189676561Y-108006562D01*
X190033599Y-108248499D01*
X190382810Y-108516233D01*
X190722547Y-108810997D01*
X191051162Y-109134020D01*
X191367009Y-109486534D01*
X191668439Y-109869770D01*
X191953805Y-110284960D01*
X192340039Y-110936731D01*
X192670717Y-111597063D01*
X192947633Y-112262738D01*
X193172584Y-112930537D01*
X193347367Y-113597240D01*
X193473776Y-114259629D01*
X193553607Y-114914485D01*
X193588658Y-115558589D01*
X193580723Y-116188722D01*
X193531598Y-116801664D01*
X193443080Y-117394198D01*
X193316964Y-117963104D01*
X193155046Y-118505163D01*
X192959122Y-119017157D01*
X192730989Y-119495865D01*
X192472441Y-119938070D01*
X192273828Y-120231798D01*
X192065278Y-120513822D01*
X191847086Y-120784310D01*
X191619551Y-121043430D01*
X191382969Y-121291351D01*
X191137636Y-121528240D01*
X190883849Y-121754266D01*
X190621905Y-121969596D01*
X190352101Y-122174398D01*
X190074733Y-122368842D01*
X189790099Y-122553093D01*
X189498495Y-122727322D01*
X188895564Y-123046380D01*
X188268314Y-123327362D01*
X187619120Y-123571611D01*
X186950355Y-123780472D01*
X186264394Y-123955289D01*
X185563611Y-124097406D01*
X184850380Y-124208168D01*
X184127075Y-124288919D01*
X183396070Y-124341003D01*
X182659739Y-124365765D01*
X181926587Y-124360449D01*
X181237341Y-124322494D01*
X180590007Y-124254346D01*
X179982589Y-124158448D01*
X179413093Y-124037247D01*
X178879523Y-123893185D01*
X178379885Y-123728708D01*
X177912183Y-123546259D01*
X177474424Y-123348285D01*
X177064611Y-123137228D01*
X176680750Y-122915533D01*
X176320846Y-122685646D01*
X175982905Y-122450010D01*
X175664930Y-122211070D01*
X175080903Y-121733057D01*
X174614415Y-121276213D01*
X174186258Y-120826754D01*
X173793925Y-120382902D01*
X173434909Y-119942877D01*
X173106702Y-119504901D01*
X172806796Y-119067196D01*
X172532686Y-118627982D01*
X172281863Y-118185480D01*
X172051820Y-117737913D01*
X171840050Y-117283501D01*
X171644046Y-116820466D01*
X171461299Y-116347029D01*
X171289304Y-115861411D01*
X171125552Y-115361833D01*
X170812751Y-114313685D01*
X170953465Y-114724424D01*
X171104757Y-115123364D01*
X171437388Y-115886431D01*
X171807272Y-116604058D01*
X172211036Y-117277417D01*
X172645308Y-117907681D01*
X173106715Y-118496019D01*
X173591886Y-119043606D01*
X174097447Y-119551612D01*
X174620027Y-120021210D01*
X175156253Y-120453570D01*
X175702752Y-120849866D01*
X176256154Y-121211269D01*
X176813084Y-121538950D01*
X177370171Y-121834083D01*
X177924042Y-122097837D01*
X178471326Y-122331387D01*
X179019333Y-122520154D01*
X179666599Y-122683599D01*
X180396853Y-122813491D01*
X181193825Y-122901601D01*
X182041245Y-122939699D01*
X182922844Y-122919554D01*
X183822351Y-122832939D01*
X184723496Y-122671622D01*
X185169598Y-122560378D01*
X185610009Y-122427373D01*
X186042694Y-122271578D01*
X186465619Y-122091963D01*
X186876752Y-121887501D01*
X187274058Y-121657163D01*
X187655503Y-121399919D01*
X188019054Y-121114742D01*
X188362677Y-120800601D01*
X188684338Y-120456470D01*
X188982003Y-120081318D01*
X189253639Y-119674117D01*
X189497212Y-119233839D01*
X189710688Y-118759455D01*
X189892033Y-118249936D01*
X190039214Y-117704253D01*
X190115639Y-117310025D01*
X190164241Y-116920721D01*
X190186803Y-116537361D01*
X190185110Y-116160965D01*
X190160946Y-115792552D01*
X190116095Y-115433143D01*
X190052342Y-115083756D01*
X189971469Y-114745412D01*
X189875263Y-114419130D01*
X189765505Y-114105930D01*
X189643982Y-113806833D01*
X189512476Y-113522856D01*
X189372773Y-113255021D01*
X189226655Y-113004347D01*
X189075908Y-112771854D01*
X188922315Y-112558561D01*
X188800276Y-112413698D01*
X188641453Y-112253960D01*
X188446568Y-112083092D01*
X188216343Y-111904837D01*
X187951500Y-111722938D01*
X187652761Y-111541140D01*
X187320848Y-111363187D01*
X187142677Y-111276821D01*
X186956484Y-111192821D01*
X186762359Y-111111654D01*
X186560391Y-111033788D01*
X186350672Y-110959690D01*
X186133291Y-110889830D01*
X185908339Y-110824674D01*
X185675906Y-110764692D01*
X185436082Y-110710350D01*
X185188958Y-110662117D01*
X184934624Y-110620460D01*
X184673170Y-110585849D01*
X184404686Y-110558750D01*
X184129263Y-110539632D01*
X183846991Y-110528963D01*
X183557960Y-110527210D01*
X183262260Y-110534842D01*
X182959983Y-110552327D01*
X183026260Y-106741438D01*
X183288772Y-106704884D01*
X183597142Y-106673965D01*
X184006012Y-106647749D01*
X184502203Y-106636085D01*
X185072535Y-106648822D01*
X179554149Y-116152533D02*
X179496240Y-116194267D01*
X182875500Y-119381833D02*
X182883720Y-119398271D01*
X181752171Y-119576297D02*
X181805535Y-119528630D01*
X188722877Y-115470465D02*
X188722877Y-115470465D01*
D12*
X187215009Y-121926482D02*
X187237267Y-119247898D01*
X187237267Y-119247898D02*
X187969433Y-117368230D01*
X187969433Y-117368230D02*
X188701600Y-115488560D01*
X188701600Y-115488560D02*
X187989240Y-115480480D01*
X187989240Y-115480480D02*
X187276881Y-115472400D01*
X187276881Y-115472400D02*
X187288012Y-111226862D01*
X187288012Y-111226862D02*
X187299143Y-106981323D01*
X187299143Y-106981323D02*
X187091654Y-106917100D01*
X187091654Y-106917100D02*
X186969585Y-106882921D01*
X186969585Y-106882921D02*
X186814043Y-106844991D01*
X186814043Y-106844991D02*
X186633090Y-106804905D01*
X186633090Y-106804905D02*
X186434787Y-106764256D01*
X186434787Y-106764256D02*
X186227198Y-106724639D01*
X186227198Y-106724639D02*
X186018383Y-106687648D01*
X186018383Y-106687648D02*
X185816404Y-106654878D01*
X185816404Y-106654878D02*
X185629324Y-106627922D01*
X185629324Y-106627922D02*
X185333351Y-106597204D01*
X185333351Y-106597204D02*
X184988532Y-106575544D01*
X184988532Y-106575544D02*
X184613653Y-106562901D01*
X184613653Y-106562901D02*
X184227497Y-106559236D01*
X184227497Y-106559236D02*
X183848848Y-106564510D01*
X183848848Y-106564510D02*
X183496489Y-106578682D01*
X183496489Y-106578682D02*
X183189204Y-106601714D01*
X183189204Y-106601714D02*
X183058335Y-106616540D01*
X183058335Y-106616540D02*
X182945777Y-106633566D01*
X182945777Y-106633566D02*
X182847505Y-106650923D01*
X182847505Y-106650923D02*
X182843234Y-109663715D01*
X182843234Y-109663715D02*
X182834810Y-112204520D01*
X182834810Y-112204520D02*
X182820556Y-114082534D01*
X182820556Y-114082534D02*
X182802150Y-115488561D01*
X182802150Y-115488561D02*
X182152051Y-115507876D01*
X182152051Y-115507876D02*
X181924600Y-115516435D01*
X181924600Y-115516435D02*
X181709385Y-115528333D01*
X181709385Y-115528333D02*
X181505720Y-115543739D01*
X181505720Y-115543739D02*
X181312920Y-115562824D01*
X181312920Y-115562824D02*
X181130297Y-115585758D01*
X181130297Y-115585758D02*
X180957168Y-115612710D01*
X180957168Y-115612710D02*
X180792844Y-115643850D01*
X180792844Y-115643850D02*
X180636641Y-115679348D01*
X180636641Y-115679348D02*
X180487873Y-115719374D01*
X180487873Y-115719374D02*
X180345852Y-115764098D01*
X180345852Y-115764098D02*
X180209895Y-115813690D01*
X180209895Y-115813690D02*
X180079314Y-115868320D01*
X180079314Y-115868320D02*
X179953423Y-115928157D01*
X179953423Y-115928157D02*
X179831538Y-115993371D01*
X179831538Y-115993371D02*
X179712971Y-116064133D01*
X179712971Y-116064133D02*
X179597036Y-116140612D01*
X179597036Y-116140612D02*
X179535558Y-116184200D01*
X179535558Y-116184200D02*
X179477160Y-116228101D01*
X179477160Y-116228101D02*
X179421056Y-116273260D01*
X179421056Y-116273260D02*
X179366456Y-116320618D01*
X179366456Y-116320618D02*
X179312572Y-116371121D01*
X179312572Y-116371121D02*
X179258617Y-116425713D01*
X179258617Y-116425713D02*
X179203801Y-116485336D01*
X179203801Y-116485336D02*
X179147336Y-116550935D01*
X179147336Y-116550935D02*
X179088434Y-116623453D01*
X179088434Y-116623453D02*
X179026307Y-116703834D01*
X179026307Y-116703834D02*
X178960167Y-116793022D01*
X178960167Y-116793022D02*
X178889224Y-116891961D01*
X178889224Y-116891961D02*
X178812692Y-117001595D01*
X178812692Y-117001595D02*
X178729781Y-117122866D01*
X178729781Y-117122866D02*
X178541670Y-117404099D01*
X178541670Y-117404099D02*
X177912401Y-118377047D01*
X177912401Y-118377047D02*
X177135030Y-119604569D01*
X177135030Y-119604569D02*
X176474395Y-120665250D01*
X176474395Y-120665250D02*
X176270614Y-121001332D01*
X176270614Y-121001332D02*
X176195330Y-121137673D01*
X176195330Y-121137673D02*
X176195663Y-121138709D01*
X176195663Y-121138709D02*
X176196650Y-121140130D01*
X176196650Y-121140130D02*
X176200523Y-121144082D01*
X176200523Y-121144082D02*
X176206817Y-121149443D01*
X176206817Y-121149443D02*
X176215403Y-121156125D01*
X176215403Y-121156125D02*
X176226151Y-121164040D01*
X176226151Y-121164040D02*
X176238929Y-121173103D01*
X176238929Y-121173103D02*
X176270057Y-121194319D01*
X176270057Y-121194319D02*
X176307743Y-121219076D01*
X176307743Y-121219076D02*
X176350944Y-121246678D01*
X176350944Y-121246678D02*
X176398617Y-121276427D01*
X176398617Y-121276427D02*
X176449717Y-121307626D01*
X176449717Y-121307626D02*
X176679522Y-121442137D01*
X176679522Y-121442137D02*
X176928526Y-121580057D01*
X176928526Y-121580057D02*
X177191234Y-121718675D01*
X177191234Y-121718675D02*
X177462147Y-121855282D01*
X177462147Y-121855282D02*
X177735770Y-121987167D01*
X177735770Y-121987167D02*
X178006605Y-122111620D01*
X178006605Y-122111620D02*
X178269158Y-122225930D01*
X178269158Y-122225930D02*
X178517930Y-122327388D01*
X178517930Y-122327388D02*
X178673063Y-122383822D01*
X178673063Y-122383822D02*
X178858895Y-122444513D01*
X178858895Y-122444513D02*
X179062861Y-122506046D01*
X179062861Y-122506046D02*
X179272395Y-122565009D01*
X179272395Y-122565009D02*
X179474929Y-122617986D01*
X179474929Y-122617986D02*
X179657896Y-122661564D01*
X179657896Y-122661564D02*
X179808732Y-122692330D01*
X179808732Y-122692330D02*
X179868173Y-122701842D01*
X179868173Y-122701842D02*
X179914869Y-122706870D01*
X179914869Y-122706870D02*
X180040888Y-122715242D01*
X180040888Y-122715242D02*
X180409565Y-121929075D01*
X180409565Y-121929075D02*
X180627009Y-121472374D01*
X180627009Y-121472374D02*
X180828299Y-121064122D01*
X180828299Y-121064122D02*
X181013665Y-120703913D01*
X181013665Y-120703913D02*
X181183334Y-120391338D01*
X181183334Y-120391338D02*
X181337534Y-120125992D01*
X181337534Y-120125992D02*
X181476493Y-119907467D01*
X181476493Y-119907467D02*
X181600439Y-119735357D01*
X181600439Y-119735357D02*
X181656854Y-119666580D01*
X181656854Y-119666580D02*
X181709600Y-119609255D01*
X181709600Y-119609255D02*
X181726532Y-119592561D01*
X181726532Y-119592561D02*
X181744735Y-119575485D01*
X181744735Y-119575485D02*
X181764040Y-119558152D01*
X181764040Y-119558152D02*
X181784279Y-119540686D01*
X181784279Y-119540686D02*
X181826884Y-119505857D01*
X181826884Y-119505857D02*
X181871199Y-119471993D01*
X181871199Y-119471993D02*
X181915877Y-119440092D01*
X181915877Y-119440092D02*
X181937929Y-119425189D01*
X181937929Y-119425189D02*
X181959566Y-119411151D01*
X181959566Y-119411151D02*
X181980619Y-119398102D01*
X181980619Y-119398102D02*
X182000919Y-119386167D01*
X182000919Y-119386167D02*
X182020298Y-119375471D01*
X182020298Y-119375471D02*
X182038586Y-119366138D01*
X182038586Y-119366138D02*
X182093181Y-119341670D01*
X182093181Y-119341670D02*
X182149873Y-119320226D01*
X182149873Y-119320226D02*
X182208099Y-119301819D01*
X182208099Y-119301819D02*
X182267299Y-119286465D01*
X182267299Y-119286465D02*
X182326911Y-119274177D01*
X182326911Y-119274177D02*
X182386373Y-119264969D01*
X182386373Y-119264969D02*
X182445124Y-119258857D01*
X182445124Y-119258857D02*
X182502601Y-119255854D01*
X182502601Y-119255854D02*
X182558244Y-119255975D01*
X182558244Y-119255975D02*
X182611490Y-119259233D01*
X182611490Y-119259233D02*
X182661779Y-119265644D01*
X182661779Y-119265644D02*
X182708547Y-119275222D01*
X182708547Y-119275222D02*
X182751235Y-119287980D01*
X182751235Y-119287980D02*
X182789279Y-119303934D01*
X182789279Y-119303934D02*
X182806385Y-119313113D01*
X182806385Y-119313113D02*
X182822120Y-119323097D01*
X182822120Y-119323097D02*
X182836413Y-119333887D01*
X182836413Y-119333887D02*
X182849194Y-119345484D01*
X182849194Y-119345484D02*
X182854405Y-119350960D01*
X182854405Y-119350960D02*
X182859299Y-119356940D01*
X182859299Y-119356940D02*
X182863886Y-119363876D01*
X182863886Y-119363876D02*
X182866067Y-119367843D01*
X182866067Y-119367843D02*
X182868175Y-119372218D01*
X182868175Y-119372218D02*
X182870211Y-119377056D01*
X182870211Y-119377056D02*
X182872177Y-119382415D01*
X182872177Y-119382415D02*
X182875902Y-119394919D01*
X182875902Y-119394919D02*
X182879359Y-119410179D01*
X182879359Y-119410179D02*
X182882559Y-119428646D01*
X182882559Y-119428646D02*
X182885511Y-119450771D01*
X182885511Y-119450771D02*
X182888225Y-119477002D01*
X182888225Y-119477002D02*
X182890712Y-119507792D01*
X182890712Y-119507792D02*
X182892981Y-119543589D01*
X182892981Y-119543589D02*
X182895043Y-119584844D01*
X182895043Y-119584844D02*
X182896906Y-119632009D01*
X182896906Y-119632009D02*
X182898582Y-119685532D01*
X182898582Y-119685532D02*
X182900080Y-119745864D01*
X182900080Y-119745864D02*
X182901410Y-119813456D01*
X182901410Y-119813456D02*
X182902582Y-119888757D01*
X182902582Y-119888757D02*
X182904493Y-120064290D01*
X182904493Y-120064290D02*
X182905891Y-120276066D01*
X182905891Y-120276066D02*
X182906856Y-120527687D01*
X182906856Y-120527687D02*
X182907468Y-120822756D01*
X182907468Y-120822756D02*
X182907806Y-121164874D01*
X182907806Y-121164874D02*
X182907981Y-122004668D01*
X182907981Y-122004668D02*
X182907981Y-124605064D01*
X182907981Y-124605064D02*
X185050366Y-124605064D01*
X185050366Y-124605064D02*
X187192752Y-124605064D01*
X187192752Y-124605064D02*
X187215009Y-121926482D01*
X187215009Y-121926482D02*
X187215009Y-121926482D01*
G36*
X184613653Y-106562901D02*
G01*
X184988532Y-106575544D01*
X185333351Y-106597204D01*
X185629324Y-106627922D01*
X185816404Y-106654878D01*
X186018383Y-106687648D01*
X186227198Y-106724639D01*
X186434787Y-106764256D01*
X186633090Y-106804905D01*
X186814043Y-106844991D01*
X186969585Y-106882921D01*
X187091654Y-106917100D01*
X187299143Y-106981323D01*
X187288012Y-111226862D01*
X187276881Y-115472400D01*
X187989240Y-115480480D01*
X188701600Y-115488560D01*
X187969433Y-117368230D01*
X187237267Y-119247898D01*
X187215009Y-121926482D01*
X187192752Y-124605064D01*
X182907981Y-124605064D01*
X182907981Y-122004668D01*
X182907806Y-121164874D01*
X182907468Y-120822756D01*
X182906856Y-120527687D01*
X182905891Y-120276066D01*
X182904493Y-120064290D01*
X182902582Y-119888757D01*
X182901410Y-119813456D01*
X182900080Y-119745864D01*
X182898582Y-119685532D01*
X182896906Y-119632009D01*
X182895043Y-119584844D01*
X182892981Y-119543589D01*
X182890712Y-119507792D01*
X182888225Y-119477002D01*
X182885511Y-119450771D01*
X182882559Y-119428646D01*
X182879359Y-119410179D01*
X182875902Y-119394919D01*
X182872177Y-119382415D01*
X182870211Y-119377056D01*
X182868175Y-119372218D01*
X182866067Y-119367843D01*
X182863886Y-119363876D01*
X182859299Y-119356940D01*
X182854405Y-119350960D01*
X182849194Y-119345484D01*
X182836413Y-119333887D01*
X182822120Y-119323097D01*
X182806385Y-119313113D01*
X182789279Y-119303934D01*
X182751235Y-119287980D01*
X182708547Y-119275222D01*
X182661779Y-119265644D01*
X182611490Y-119259233D01*
X182558244Y-119255975D01*
X182502601Y-119255854D01*
X182445124Y-119258857D01*
X182386373Y-119264969D01*
X182326911Y-119274177D01*
X182267299Y-119286465D01*
X182208099Y-119301819D01*
X182149873Y-119320226D01*
X182093181Y-119341670D01*
X182038586Y-119366138D01*
X182020298Y-119375471D01*
X182000919Y-119386167D01*
X181980619Y-119398102D01*
X181959566Y-119411151D01*
X181937929Y-119425189D01*
X181915877Y-119440092D01*
X181871199Y-119471993D01*
X181826884Y-119505857D01*
X181784279Y-119540686D01*
X181764040Y-119558152D01*
X181744735Y-119575485D01*
X181726532Y-119592561D01*
X181709600Y-119609255D01*
X181656854Y-119666580D01*
X181600439Y-119735357D01*
X181476493Y-119907467D01*
X181337534Y-120125992D01*
X181183334Y-120391338D01*
X181013665Y-120703913D01*
X180828299Y-121064122D01*
X180627009Y-121472374D01*
X180409565Y-121929075D01*
X180040888Y-122715242D01*
X179914869Y-122706870D01*
X179868173Y-122701842D01*
X179808732Y-122692330D01*
X179657896Y-122661564D01*
X179474929Y-122617986D01*
X179272395Y-122565009D01*
X179062861Y-122506046D01*
X178858895Y-122444513D01*
X178673063Y-122383822D01*
X178517930Y-122327388D01*
X178269158Y-122225930D01*
X178006605Y-122111620D01*
X177735770Y-121987167D01*
X177462147Y-121855282D01*
X177191234Y-121718675D01*
X176928526Y-121580057D01*
X176679522Y-121442137D01*
X176449717Y-121307626D01*
X176398617Y-121276427D01*
X176350944Y-121246678D01*
X176307743Y-121219076D01*
X176270057Y-121194319D01*
X176238929Y-121173103D01*
X176226151Y-121164040D01*
X176215403Y-121156125D01*
X176206817Y-121149443D01*
X176200523Y-121144082D01*
X176196650Y-121140130D01*
X176195663Y-121138709D01*
X176195330Y-121137673D01*
X176270614Y-121001332D01*
X176474395Y-120665250D01*
X177135030Y-119604569D01*
X177912401Y-118377047D01*
X178541670Y-117404099D01*
X178729781Y-117122866D01*
X178812692Y-117001595D01*
X178889224Y-116891961D01*
X178960167Y-116793022D01*
X179026307Y-116703834D01*
X179088434Y-116623453D01*
X179147336Y-116550935D01*
X179203801Y-116485336D01*
X179258617Y-116425713D01*
X179312572Y-116371121D01*
X179366456Y-116320618D01*
X179421056Y-116273260D01*
X179477160Y-116228101D01*
X179535558Y-116184200D01*
X179597036Y-116140612D01*
X179712971Y-116064133D01*
X179831538Y-115993371D01*
X179953423Y-115928157D01*
X180079314Y-115868320D01*
X180209895Y-115813690D01*
X180345852Y-115764098D01*
X180487873Y-115719374D01*
X180636641Y-115679348D01*
X180792844Y-115643850D01*
X180957168Y-115612710D01*
X181130297Y-115585758D01*
X181312920Y-115562824D01*
X181505720Y-115543739D01*
X181709385Y-115528333D01*
X181924600Y-115516435D01*
X182152051Y-115507876D01*
X182802150Y-115488561D01*
X182820556Y-114082534D01*
X182834810Y-112204520D01*
X182843234Y-109663715D01*
X182847505Y-106650923D01*
X182945777Y-106633566D01*
X183058335Y-106616540D01*
X183189204Y-106601714D01*
X183496489Y-106578682D01*
X183848848Y-106564510D01*
X184227497Y-106559236D01*
X184613653Y-106562901D01*
G37*
X184613653Y-106562901D02*
X184988532Y-106575544D01*
X185333351Y-106597204D01*
X185629324Y-106627922D01*
X185816404Y-106654878D01*
X186018383Y-106687648D01*
X186227198Y-106724639D01*
X186434787Y-106764256D01*
X186633090Y-106804905D01*
X186814043Y-106844991D01*
X186969585Y-106882921D01*
X187091654Y-106917100D01*
X187299143Y-106981323D01*
X187288012Y-111226862D01*
X187276881Y-115472400D01*
X187989240Y-115480480D01*
X188701600Y-115488560D01*
X187969433Y-117368230D01*
X187237267Y-119247898D01*
X187215009Y-121926482D01*
X187192752Y-124605064D01*
X182907981Y-124605064D01*
X182907981Y-122004668D01*
X182907806Y-121164874D01*
X182907468Y-120822756D01*
X182906856Y-120527687D01*
X182905891Y-120276066D01*
X182904493Y-120064290D01*
X182902582Y-119888757D01*
X182901410Y-119813456D01*
X182900080Y-119745864D01*
X182898582Y-119685532D01*
X182896906Y-119632009D01*
X182895043Y-119584844D01*
X182892981Y-119543589D01*
X182890712Y-119507792D01*
X182888225Y-119477002D01*
X182885511Y-119450771D01*
X182882559Y-119428646D01*
X182879359Y-119410179D01*
X182875902Y-119394919D01*
X182872177Y-119382415D01*
X182870211Y-119377056D01*
X182868175Y-119372218D01*
X182866067Y-119367843D01*
X182863886Y-119363876D01*
X182859299Y-119356940D01*
X182854405Y-119350960D01*
X182849194Y-119345484D01*
X182836413Y-119333887D01*
X182822120Y-119323097D01*
X182806385Y-119313113D01*
X182789279Y-119303934D01*
X182751235Y-119287980D01*
X182708547Y-119275222D01*
X182661779Y-119265644D01*
X182611490Y-119259233D01*
X182558244Y-119255975D01*
X182502601Y-119255854D01*
X182445124Y-119258857D01*
X182386373Y-119264969D01*
X182326911Y-119274177D01*
X182267299Y-119286465D01*
X182208099Y-119301819D01*
X182149873Y-119320226D01*
X182093181Y-119341670D01*
X182038586Y-119366138D01*
X182020298Y-119375471D01*
X182000919Y-119386167D01*
X181980619Y-119398102D01*
X181959566Y-119411151D01*
X181937929Y-119425189D01*
X181915877Y-119440092D01*
X181871199Y-119471993D01*
X181826884Y-119505857D01*
X181784279Y-119540686D01*
X181764040Y-119558152D01*
X181744735Y-119575485D01*
X181726532Y-119592561D01*
X181709600Y-119609255D01*
X181656854Y-119666580D01*
X181600439Y-119735357D01*
X181476493Y-119907467D01*
X181337534Y-120125992D01*
X181183334Y-120391338D01*
X181013665Y-120703913D01*
X180828299Y-121064122D01*
X180627009Y-121472374D01*
X180409565Y-121929075D01*
X180040888Y-122715242D01*
X179914869Y-122706870D01*
X179868173Y-122701842D01*
X179808732Y-122692330D01*
X179657896Y-122661564D01*
X179474929Y-122617986D01*
X179272395Y-122565009D01*
X179062861Y-122506046D01*
X178858895Y-122444513D01*
X178673063Y-122383822D01*
X178517930Y-122327388D01*
X178269158Y-122225930D01*
X178006605Y-122111620D01*
X177735770Y-121987167D01*
X177462147Y-121855282D01*
X177191234Y-121718675D01*
X176928526Y-121580057D01*
X176679522Y-121442137D01*
X176449717Y-121307626D01*
X176398617Y-121276427D01*
X176350944Y-121246678D01*
X176307743Y-121219076D01*
X176270057Y-121194319D01*
X176238929Y-121173103D01*
X176226151Y-121164040D01*
X176215403Y-121156125D01*
X176206817Y-121149443D01*
X176200523Y-121144082D01*
X176196650Y-121140130D01*
X176195663Y-121138709D01*
X176195330Y-121137673D01*
X176270614Y-121001332D01*
X176474395Y-120665250D01*
X177135030Y-119604569D01*
X177912401Y-118377047D01*
X178541670Y-117404099D01*
X178729781Y-117122866D01*
X178812692Y-117001595D01*
X178889224Y-116891961D01*
X178960167Y-116793022D01*
X179026307Y-116703834D01*
X179088434Y-116623453D01*
X179147336Y-116550935D01*
X179203801Y-116485336D01*
X179258617Y-116425713D01*
X179312572Y-116371121D01*
X179366456Y-116320618D01*
X179421056Y-116273260D01*
X179477160Y-116228101D01*
X179535558Y-116184200D01*
X179597036Y-116140612D01*
X179712971Y-116064133D01*
X179831538Y-115993371D01*
X179953423Y-115928157D01*
X180079314Y-115868320D01*
X180209895Y-115813690D01*
X180345852Y-115764098D01*
X180487873Y-115719374D01*
X180636641Y-115679348D01*
X180792844Y-115643850D01*
X180957168Y-115612710D01*
X181130297Y-115585758D01*
X181312920Y-115562824D01*
X181505720Y-115543739D01*
X181709385Y-115528333D01*
X181924600Y-115516435D01*
X182152051Y-115507876D01*
X182802150Y-115488561D01*
X182820556Y-114082534D01*
X182834810Y-112204520D01*
X182843234Y-109663715D01*
X182847505Y-106650923D01*
X182945777Y-106633566D01*
X183058335Y-106616540D01*
X183189204Y-106601714D01*
X183496489Y-106578682D01*
X183848848Y-106564510D01*
X184227497Y-106559236D01*
X184613653Y-106562901D01*
D10*
X181914547Y-119446771D02*
X181969783Y-119412246D01*
X185972996Y-106663451D02*
X185652833Y-106618768D01*
X182801653Y-119321583D02*
X182825849Y-119335487D01*
X182883720Y-119398271D02*
X182887433Y-119414927D01*
X178650154Y-117198987D02*
X177951650Y-118271380D01*
X181969783Y-119412246D02*
X182025232Y-119381769D01*
X181599104Y-119748248D02*
X181648750Y-119685940D01*
X180848005Y-121061375D02*
X181219390Y-120358625D01*
X182402115Y-119267776D02*
X182451883Y-119263685D01*
X179482961Y-124039491D02*
X180089667Y-122660194D01*
X179154762Y-116491181D02*
X179130932Y-116519580D01*
X181699841Y-119628678D02*
X181752171Y-119576297D01*
X179496240Y-116194267D02*
X179441150Y-116235611D01*
X182080690Y-119355173D02*
X182135951Y-119332292D01*
X168991731Y-107646534D02*
X169030380Y-107851699D01*
X169030380Y-107851699D02*
X169116795Y-108405128D01*
X169116795Y-108405128D02*
X169164909Y-108782792D01*
X169164909Y-108782792D02*
X169209358Y-109211941D01*
X169209358Y-109211941D02*
X169244938Y-109680717D01*
X169244938Y-109680717D02*
X169266447Y-110177257D01*
X169266447Y-110177257D02*
X169268683Y-110689704D01*
X169268683Y-110689704D02*
X169246443Y-111206195D01*
X169246443Y-111206195D02*
X169194525Y-111714872D01*
X169194525Y-111714872D02*
X169155811Y-111962574D01*
X169155811Y-111962574D02*
X169107727Y-112203874D01*
X169107727Y-112203874D02*
X169049621Y-112437291D01*
X169049621Y-112437291D02*
X168980845Y-112661341D01*
X168980845Y-112661341D02*
X168900747Y-112874542D01*
X168900747Y-112874542D02*
X168808678Y-113075412D01*
X168808678Y-113075412D02*
X168703986Y-113262469D01*
X168703986Y-113262469D02*
X168586022Y-113434229D01*
X168586022Y-113434229D02*
X168454136Y-113589210D01*
X168454136Y-113589210D02*
X168307676Y-113725929D01*
X168307676Y-113725929D02*
X168514514Y-113659858D01*
X168514514Y-113659858D02*
X168711344Y-113610334D01*
X168711344Y-113610334D02*
X168898393Y-113576410D01*
X168898393Y-113576410D02*
X169075886Y-113557139D01*
X169075886Y-113557139D02*
X169244049Y-113551572D01*
X169244049Y-113551572D02*
X169403107Y-113558762D01*
X169403107Y-113558762D02*
X169553286Y-113577762D01*
X169553286Y-113577762D02*
X169694812Y-113607623D01*
X169694812Y-113607623D02*
X169827910Y-113647399D01*
X169827910Y-113647399D02*
X169952806Y-113696141D01*
X169952806Y-113696141D02*
X170069726Y-113752902D01*
X170069726Y-113752902D02*
X170178896Y-113816734D01*
X170178896Y-113816734D02*
X170280540Y-113886691D01*
X170280540Y-113886691D02*
X170374885Y-113961823D01*
X170374885Y-113961823D02*
X170462156Y-114041183D01*
X170462156Y-114041183D02*
X170542579Y-114123825D01*
X170542579Y-114123825D02*
X170616380Y-114208799D01*
X170616380Y-114208799D02*
X170683784Y-114295159D01*
X170683784Y-114295159D02*
X170800305Y-114468245D01*
X170800305Y-114468245D02*
X170893946Y-114635502D01*
X170893946Y-114635502D02*
X170966514Y-114789348D01*
X170966514Y-114789348D02*
X171019813Y-114922203D01*
X171019813Y-114922203D02*
X171055648Y-115026486D01*
X171055648Y-115026486D02*
X171082150Y-115119009D01*
X171082150Y-115119009D02*
X171090073Y-115156625D01*
X171090073Y-115156625D02*
X171073617Y-115134969D01*
X171073617Y-115134969D02*
X171040491Y-115061182D01*
X171040491Y-115061182D02*
X170998405Y-114942406D01*
X170998405Y-114942406D02*
X170955066Y-114785783D01*
X170955066Y-114785783D02*
X170918185Y-114598455D01*
X170918185Y-114598455D02*
X170904574Y-114495508D01*
X170904574Y-114495508D02*
X170895469Y-114387563D01*
X170895469Y-114387563D02*
X170891832Y-114275513D01*
X170891832Y-114275513D02*
X170894627Y-114160250D01*
X170894627Y-114160250D02*
X170904818Y-114042667D01*
X170904818Y-114042667D02*
X170923369Y-113923656D01*
X170923369Y-113923656D02*
X170951243Y-113804112D01*
X170951243Y-113804112D02*
X170989403Y-113684925D01*
X170989403Y-113684925D02*
X171038813Y-113566990D01*
X171038813Y-113566990D02*
X171100438Y-113451198D01*
X171100438Y-113451198D02*
X171175240Y-113338442D01*
X171175240Y-113338442D02*
X171264182Y-113229616D01*
X171264182Y-113229616D02*
X171368230Y-113125612D01*
X171368230Y-113125612D02*
X171488346Y-113027322D01*
X171488346Y-113027322D02*
X171625493Y-112935640D01*
X171625493Y-112935640D02*
X171780636Y-112851457D01*
X171780636Y-112851457D02*
X171954739Y-112775668D01*
X171954739Y-112775668D02*
X172148763Y-112709164D01*
X172148763Y-112709164D02*
X172363674Y-112652838D01*
X172363674Y-112652838D02*
X172600435Y-112607584D01*
X172600435Y-112607584D02*
X172371637Y-112557755D01*
X172371637Y-112557755D02*
X172150747Y-112485194D01*
X172150747Y-112485194D02*
X171937723Y-112391495D01*
X171937723Y-112391495D02*
X171732524Y-112278252D01*
X171732524Y-112278252D02*
X171535107Y-112147059D01*
X171535107Y-112147059D02*
X171345429Y-111999512D01*
X171345429Y-111999512D02*
X171163448Y-111837205D01*
X171163448Y-111837205D02*
X170989122Y-111661733D01*
X170989122Y-111661733D02*
X170822409Y-111474689D01*
X170822409Y-111474689D02*
X170663266Y-111277669D01*
X170663266Y-111277669D02*
X170511651Y-111072267D01*
X170511651Y-111072267D02*
X170367522Y-110860078D01*
X170367522Y-110860078D02*
X170101550Y-110421715D01*
X170101550Y-110421715D02*
X169865014Y-109975337D01*
X169865014Y-109975337D02*
X169657573Y-109533701D01*
X169657573Y-109533701D02*
X169478889Y-109109562D01*
X169478889Y-109109562D02*
X169328624Y-108715677D01*
X169328624Y-108715677D02*
X169206440Y-108364803D01*
X169206440Y-108364803D02*
X169044956Y-107843110D01*
X169044956Y-107843110D02*
X168991731Y-107646534D01*
X168991731Y-107646534D02*
X168991731Y-107646534D01*
G36*
X169044956Y-107843110D02*
G01*
X169206440Y-108364803D01*
X169328624Y-108715677D01*
X169478889Y-109109562D01*
X169657573Y-109533701D01*
X169865014Y-109975337D01*
X170101550Y-110421715D01*
X170367522Y-110860078D01*
X170511651Y-111072267D01*
X170663266Y-111277669D01*
X170822409Y-111474689D01*
X170989122Y-111661733D01*
X171163448Y-111837205D01*
X171345429Y-111999512D01*
X171535107Y-112147059D01*
X171732524Y-112278252D01*
X171937723Y-112391495D01*
X172150747Y-112485194D01*
X172371637Y-112557755D01*
X172600435Y-112607584D01*
X172363674Y-112652838D01*
X172148763Y-112709164D01*
X171954739Y-112775668D01*
X171780636Y-112851457D01*
X171625493Y-112935640D01*
X171488346Y-113027322D01*
X171368230Y-113125612D01*
X171264182Y-113229616D01*
X171175240Y-113338442D01*
X171100438Y-113451198D01*
X171038813Y-113566990D01*
X170989403Y-113684925D01*
X170951243Y-113804112D01*
X170923369Y-113923656D01*
X170904818Y-114042667D01*
X170894627Y-114160250D01*
X170891832Y-114275513D01*
X170895469Y-114387563D01*
X170904574Y-114495508D01*
X170918185Y-114598455D01*
X170948069Y-114750245D01*
X170966514Y-114789348D01*
X171019813Y-114922203D01*
X171055648Y-115026486D01*
X171082150Y-115119009D01*
X171090073Y-115156625D01*
X171073617Y-115134969D01*
X171040491Y-115061182D01*
X170998405Y-114942406D01*
X170955066Y-114785783D01*
X170948069Y-114750245D01*
X170893946Y-114635502D01*
X170800305Y-114468245D01*
X170683784Y-114295159D01*
X170616380Y-114208799D01*
X170542579Y-114123825D01*
X170462156Y-114041183D01*
X170374885Y-113961823D01*
X170280540Y-113886691D01*
X170178896Y-113816734D01*
X170069726Y-113752902D01*
X169952806Y-113696141D01*
X169827910Y-113647399D01*
X169694812Y-113607623D01*
X169553286Y-113577762D01*
X169403107Y-113558762D01*
X169244049Y-113551572D01*
X169075886Y-113557139D01*
X168898393Y-113576410D01*
X168711344Y-113610334D01*
X168514514Y-113659858D01*
X168307676Y-113725929D01*
X168454136Y-113589210D01*
X168586022Y-113434229D01*
X168703986Y-113262469D01*
X168808678Y-113075412D01*
X168900747Y-112874542D01*
X168980845Y-112661341D01*
X169049621Y-112437291D01*
X169107727Y-112203874D01*
X169155811Y-111962574D01*
X169194525Y-111714872D01*
X169246443Y-111206195D01*
X169268683Y-110689704D01*
X169266447Y-110177257D01*
X169244938Y-109680717D01*
X169209358Y-109211941D01*
X169164909Y-108782792D01*
X169116795Y-108405128D01*
X169030380Y-107851699D01*
X168991731Y-107646534D01*
X169044956Y-107843110D01*
G37*
X169044956Y-107843110D02*
X169206440Y-108364803D01*
X169328624Y-108715677D01*
X169478889Y-109109562D01*
X169657573Y-109533701D01*
X169865014Y-109975337D01*
X170101550Y-110421715D01*
X170367522Y-110860078D01*
X170511651Y-111072267D01*
X170663266Y-111277669D01*
X170822409Y-111474689D01*
X170989122Y-111661733D01*
X171163448Y-111837205D01*
X171345429Y-111999512D01*
X171535107Y-112147059D01*
X171732524Y-112278252D01*
X171937723Y-112391495D01*
X172150747Y-112485194D01*
X172371637Y-112557755D01*
X172600435Y-112607584D01*
X172363674Y-112652838D01*
X172148763Y-112709164D01*
X171954739Y-112775668D01*
X171780636Y-112851457D01*
X171625493Y-112935640D01*
X171488346Y-113027322D01*
X171368230Y-113125612D01*
X171264182Y-113229616D01*
X171175240Y-113338442D01*
X171100438Y-113451198D01*
X171038813Y-113566990D01*
X170989403Y-113684925D01*
X170951243Y-113804112D01*
X170923369Y-113923656D01*
X170904818Y-114042667D01*
X170894627Y-114160250D01*
X170891832Y-114275513D01*
X170895469Y-114387563D01*
X170904574Y-114495508D01*
X170918185Y-114598455D01*
X170948069Y-114750245D01*
X170966514Y-114789348D01*
X171019813Y-114922203D01*
X171055648Y-115026486D01*
X171082150Y-115119009D01*
X171090073Y-115156625D01*
X171073617Y-115134969D01*
X171040491Y-115061182D01*
X170998405Y-114942406D01*
X170955066Y-114785783D01*
X170948069Y-114750245D01*
X170893946Y-114635502D01*
X170800305Y-114468245D01*
X170683784Y-114295159D01*
X170616380Y-114208799D01*
X170542579Y-114123825D01*
X170462156Y-114041183D01*
X170374885Y-113961823D01*
X170280540Y-113886691D01*
X170178896Y-113816734D01*
X170069726Y-113752902D01*
X169952806Y-113696141D01*
X169827910Y-113647399D01*
X169694812Y-113607623D01*
X169553286Y-113577762D01*
X169403107Y-113558762D01*
X169244049Y-113551572D01*
X169075886Y-113557139D01*
X168898393Y-113576410D01*
X168711344Y-113610334D01*
X168514514Y-113659858D01*
X168307676Y-113725929D01*
X168454136Y-113589210D01*
X168586022Y-113434229D01*
X168703986Y-113262469D01*
X168808678Y-113075412D01*
X168900747Y-112874542D01*
X168980845Y-112661341D01*
X169049621Y-112437291D01*
X169107727Y-112203874D01*
X169155811Y-111962574D01*
X169194525Y-111714872D01*
X169246443Y-111206195D01*
X169268683Y-110689704D01*
X169266447Y-110177257D01*
X169244938Y-109680717D01*
X169209358Y-109211941D01*
X169164909Y-108782792D01*
X169116795Y-108405128D01*
X169030380Y-107851699D01*
X168991731Y-107646534D01*
X169044956Y-107843110D01*
X184142153Y-106532814D02*
X183719738Y-106546840D01*
X185307115Y-106580898D02*
X184938394Y-106552307D01*
X182875500Y-119381833D02*
X182883720Y-119398271D01*
X181859729Y-119485510D02*
X181914547Y-119446771D01*
X182895792Y-120393962D02*
X182894863Y-122161817D01*
X182135951Y-119332292D02*
X182190809Y-119312958D01*
X182500018Y-119262143D02*
X182546313Y-119262984D01*
X182590565Y-119266040D02*
X182632567Y-119271146D01*
X185307115Y-106580898D02*
X184938394Y-106552307D01*
X180089667Y-122660194D02*
X180462811Y-121852429D01*
X181805535Y-119528630D02*
X181859729Y-119485510D01*
X182190809Y-119312958D02*
X182245060Y-119297007D01*
X179295209Y-116354577D02*
X179253813Y-116391633D01*
X182833681Y-111301800D02*
X182798375Y-115480211D01*
X180339835Y-115746392D02*
X180134276Y-115821529D01*
X180339835Y-115746392D02*
X180134276Y-115821529D01*
X180559681Y-115682870D02*
X180339835Y-115746392D01*
X188722877Y-115470465D02*
X187286888Y-115470465D01*
X181551108Y-119815770D02*
X181551108Y-119815770D01*
X180559681Y-115682870D02*
X180339835Y-115746392D01*
X187308033Y-106970561D02*
X187214384Y-106936671D01*
X182849542Y-108291715D02*
X182833681Y-111301800D01*
X184938394Y-106552307D02*
X184549223Y-106535458D01*
X187246979Y-119259827D02*
X187246979Y-119259827D01*
X181262763Y-115552458D02*
X181025364Y-115586856D01*
X182798375Y-115480211D02*
X182798375Y-115480211D01*
X181391824Y-120062736D02*
X181551108Y-119815770D01*
X182500018Y-119262143D02*
X182546313Y-119262984D01*
X179216444Y-116426934D02*
X179183347Y-116460208D01*
X182402115Y-119267776D02*
X182451883Y-119263685D01*
X179389120Y-116276293D02*
X179340393Y-116316040D01*
X181725582Y-115506109D02*
X181497575Y-115525860D01*
X182798375Y-115480211D02*
X182798375Y-115480211D01*
X182135951Y-119332292D02*
X182190809Y-119312958D01*
X179742363Y-116027722D02*
X179677452Y-116068987D01*
X182825849Y-119335487D02*
X182846359Y-119350274D01*
X182894863Y-122161817D02*
X182887433Y-124611766D01*
X179234755Y-124626531D02*
X179482961Y-124039491D01*
X181599104Y-119748248D02*
X181648750Y-119685940D01*
X184549223Y-106535458D02*
X184142153Y-106532814D01*
X188722877Y-115470465D02*
X188722877Y-115470465D01*
X187308033Y-106970561D02*
X187214384Y-106936671D01*
X183719738Y-106546840D02*
X183284529Y-106580000D01*
X182887433Y-119414927D02*
X182895792Y-120393962D01*
X179441150Y-116235611D02*
X179389120Y-116276293D01*
X182887433Y-124611766D02*
X187207101Y-124604939D01*
X179441150Y-116235611D02*
X179389120Y-116276293D01*
X182773977Y-119308729D02*
X182801653Y-119321583D01*
X186526447Y-106763405D02*
X185972996Y-106663451D01*
X182839079Y-106634757D02*
X182849542Y-108291715D01*
X180134276Y-115821529D02*
X179947226Y-115909233D01*
X179877492Y-115947572D02*
X179809123Y-115987160D01*
X181725582Y-115506109D02*
X181497575Y-115525860D01*
X181551108Y-119815770D02*
X181599104Y-119748248D01*
X181025364Y-115586856D02*
X180789597Y-115630009D01*
X179340393Y-116316040D02*
X179295209Y-116354577D01*
X182298498Y-119284270D02*
X182350918Y-119274582D01*
X187286888Y-115470465D02*
X187286888Y-115470465D01*
X182839079Y-106634757D02*
X182839079Y-106634757D01*
X182839079Y-106634757D02*
X182839079Y-106634757D01*
X181914547Y-119446771D02*
X181969783Y-119412246D01*
X187207101Y-124604939D02*
X187207101Y-124604939D01*
X182144303Y-115483338D02*
X181725582Y-115506109D01*
X179809123Y-115987160D02*
X179742363Y-116027722D01*
X182245060Y-119297007D02*
X182298498Y-119284270D01*
X187246979Y-119259827D02*
X187246979Y-119259827D01*
X182245060Y-119297007D02*
X182298498Y-119284270D01*
X182743024Y-119297092D02*
X182773977Y-119308729D01*
X187286888Y-115470465D02*
X187308033Y-106970561D01*
X182883720Y-119398271D02*
X182887433Y-119414927D01*
X179677452Y-116068987D02*
X179614634Y-116110682D01*
X182895792Y-120393962D02*
X182894863Y-122161817D01*
X181551108Y-119815770D02*
X181599104Y-119748248D01*
X179340393Y-116316040D02*
X179295209Y-116354577D01*
X188722877Y-115470465D02*
X187286888Y-115470465D01*
X179154762Y-116491181D02*
X179130932Y-116519580D01*
X182632567Y-119271146D02*
X182672114Y-119278134D01*
X182485176Y-115476516D02*
X182144303Y-115483338D01*
X182144303Y-115483338D02*
X181725582Y-115506109D01*
X182590565Y-119266040D02*
X182632567Y-119271146D01*
X179295209Y-116354577D02*
X179253813Y-116391633D01*
X179947226Y-115909233D02*
X179877492Y-115947572D01*
X179742363Y-116027722D02*
X179677452Y-116068987D01*
X182849542Y-108291715D02*
X182833681Y-111301800D01*
X185652833Y-106618768D02*
X185307115Y-106580898D01*
X179130932Y-116519580D02*
X178923188Y-116800845D01*
X187214384Y-106936671D02*
X186947049Y-106861049D01*
X181969783Y-119412246D02*
X182025232Y-119381769D01*
X182833681Y-111301800D02*
X182798375Y-115480211D01*
X186526447Y-106763405D02*
X185972996Y-106663451D01*
X187308033Y-106970561D02*
X187308033Y-106970561D01*
X182350918Y-119274582D02*
X182402115Y-119267776D01*
X179183347Y-116460208D02*
X179154762Y-116491181D01*
X181262763Y-115552458D02*
X181025364Y-115586856D01*
X181648750Y-119685940D02*
X181699841Y-119628678D01*
X187207101Y-124604939D02*
X187246979Y-119259827D01*
X180462811Y-121852429D02*
X180848005Y-121061375D01*
X179496240Y-116194267D02*
X179441150Y-116235611D01*
X181648750Y-119685940D02*
X181699841Y-119628678D01*
X182846359Y-119350274D02*
X182862977Y-119365778D01*
X182801653Y-119321583D02*
X182825849Y-119335487D01*
X179554149Y-116152533D02*
X179496240Y-116194267D01*
X182709002Y-119286838D02*
X182743024Y-119297092D01*
X179253813Y-116391633D02*
X179216444Y-116426934D01*
X179877492Y-115947572D02*
X179809123Y-115987160D01*
X179183347Y-116460208D02*
X179154762Y-116491181D01*
X184549223Y-106535458D02*
X184142153Y-106532814D01*
X182350918Y-119274582D02*
X182402115Y-119267776D01*
X179253813Y-116391633D02*
X179216444Y-116426934D01*
X181752171Y-119576297D02*
X181805535Y-119528630D01*
X182190809Y-119312958D02*
X182245060Y-119297007D01*
X182862977Y-119365778D02*
X182875500Y-119381833D01*
X182025232Y-119381769D02*
X182080690Y-119355173D01*
X182887433Y-119414927D02*
X182895792Y-120393962D01*
X179947226Y-115909233D02*
X179947226Y-115909233D01*
X182825849Y-119335487D02*
X182846359Y-119350274D01*
X183284529Y-106580000D02*
X182839079Y-106634757D01*
X180134276Y-115821529D02*
X179947226Y-115909233D01*
X179947226Y-115909233D02*
X179877492Y-115947572D01*
X179614634Y-116110682D02*
X179554149Y-116152533D01*
X182451883Y-119263685D02*
X182500018Y-119262143D01*
X182632567Y-119271146D02*
X182672114Y-119278134D01*
X181497575Y-115525860D02*
X181262763Y-115552458D01*
X182894863Y-122161817D02*
X182887433Y-124611766D01*
X187286888Y-115470465D02*
X187308033Y-106970561D01*
X180789597Y-115630009D02*
X180559681Y-115682870D01*
X185972996Y-106663451D02*
X185652833Y-106618768D01*
X182887433Y-124611766D02*
X182887433Y-124611766D01*
X181219390Y-120358625D02*
X181391824Y-120062736D01*
X181699841Y-119628678D02*
X181752171Y-119576297D01*
X182672114Y-119278134D02*
X182709002Y-119286838D01*
X182862977Y-119365778D02*
X182875500Y-119381833D01*
X187207101Y-124604939D02*
X187207101Y-124604939D01*
X180789597Y-115630009D02*
X180559681Y-115682870D01*
X177951650Y-118271380D02*
X176248925Y-120998936D01*
X183719738Y-106546840D02*
X183284529Y-106580000D01*
X186947049Y-106861049D02*
X186526447Y-106763405D01*
X182485176Y-115476516D02*
X182144303Y-115483338D01*
X182773977Y-119308729D02*
X182801653Y-119321583D01*
X178923188Y-116800845D02*
X178650154Y-117198987D01*
X179216444Y-116426934D02*
X179183347Y-116460208D01*
X182546313Y-119262984D02*
X182590565Y-119266040D01*
X186947049Y-106861049D02*
X186526447Y-106763405D01*
X176248925Y-120998936D02*
X174052837Y-124611828D01*
X182709002Y-119286838D02*
X182743024Y-119297092D01*
X182672114Y-119278134D02*
X182709002Y-119286838D01*
X187246979Y-119259827D02*
X188722877Y-115470465D01*
X184142153Y-106532814D02*
X183719738Y-106546840D01*
X179130932Y-116519580D02*
X179130932Y-116519580D01*
X179389120Y-116276293D02*
X179340393Y-116316040D01*
X179809123Y-115987160D02*
X179742363Y-116027722D01*
X182025232Y-119381769D02*
X182080690Y-119355173D01*
X179947226Y-115909233D02*
X179947226Y-115909233D01*
X184938394Y-106552307D02*
X184549223Y-106535458D01*
X187207101Y-124604939D02*
X187246979Y-119259827D01*
X179614634Y-116110682D02*
X179554149Y-116152533D01*
D13*
X164981585Y-109134075D02*
X165314919Y-108657885D01*
X165553014Y-109134075D02*
X165553014Y-108134075D01*
X165172062Y-108134075D01*
X165076823Y-108181695D01*
X165029204Y-108229314D01*
X164981585Y-108324552D01*
X164981585Y-108467409D01*
X165029204Y-108562647D01*
X165076823Y-108610266D01*
X165172062Y-108657885D01*
X165553014Y-108657885D01*
X164124442Y-109134075D02*
X164124442Y-108610266D01*
X164172062Y-108515028D01*
X164267300Y-108467409D01*
X164457776Y-108467409D01*
X164553014Y-108515028D01*
X164124442Y-109086456D02*
X164219681Y-109134075D01*
X164457776Y-109134075D01*
X164553014Y-109086456D01*
X164600633Y-108991218D01*
X164600633Y-108895980D01*
X164553014Y-108800742D01*
X164457776Y-108753123D01*
X164219681Y-108753123D01*
X164124442Y-108705504D01*
X163695871Y-109086456D02*
X163600633Y-109134075D01*
X163410157Y-109134075D01*
X163314919Y-109086456D01*
X163267300Y-108991218D01*
X163267300Y-108943599D01*
X163314919Y-108848361D01*
X163410157Y-108800742D01*
X163553014Y-108800742D01*
X163648252Y-108753123D01*
X163695871Y-108657885D01*
X163695871Y-108610266D01*
X163648252Y-108515028D01*
X163553014Y-108467409D01*
X163410157Y-108467409D01*
X163314919Y-108515028D01*
X162838728Y-108467409D02*
X162838728Y-109467409D01*
X162838728Y-108515028D02*
X162743490Y-108467409D01*
X162553014Y-108467409D01*
X162457776Y-108515028D01*
X162410157Y-108562647D01*
X162362538Y-108657885D01*
X162362538Y-108943599D01*
X162410157Y-109038837D01*
X162457776Y-109086456D01*
X162553014Y-109134075D01*
X162743490Y-109134075D01*
X162838728Y-109086456D01*
X161933966Y-109134075D02*
X161933966Y-108134075D01*
X161933966Y-108515028D02*
X161838728Y-108467409D01*
X161648252Y-108467409D01*
X161553014Y-108515028D01*
X161505395Y-108562647D01*
X161457776Y-108657885D01*
X161457776Y-108943599D01*
X161505395Y-109038837D01*
X161553014Y-109086456D01*
X161648252Y-109134075D01*
X161838728Y-109134075D01*
X161933966Y-109086456D01*
X160648252Y-109086456D02*
X160743490Y-109134075D01*
X160933966Y-109134075D01*
X161029204Y-109086456D01*
X161076823Y-108991218D01*
X161076823Y-108610266D01*
X161029204Y-108515028D01*
X160933966Y-108467409D01*
X160743490Y-108467409D01*
X160648252Y-108515028D01*
X160600633Y-108610266D01*
X160600633Y-108705504D01*
X161076823Y-108800742D01*
X160172062Y-109134075D02*
X160172062Y-108467409D01*
X160172062Y-108657885D02*
X160124442Y-108562647D01*
X160076823Y-108515028D01*
X159981585Y-108467409D01*
X159886347Y-108467409D01*
X159553014Y-109134075D02*
X159553014Y-108467409D01*
X159553014Y-108657885D02*
X159505395Y-108562647D01*
X159457776Y-108515028D01*
X159362538Y-108467409D01*
X159267300Y-108467409D01*
X159029204Y-108467409D02*
X158791109Y-109134075D01*
X158553014Y-108467409D02*
X158791109Y-109134075D01*
X158886347Y-109372171D01*
X158933966Y-109419790D01*
X159029204Y-109467409D01*
X157410157Y-109134075D02*
X157410157Y-108134075D01*
X157029204Y-108134075D01*
X156933966Y-108181695D01*
X156886347Y-108229314D01*
X156838728Y-108324552D01*
X156838728Y-108467409D01*
X156886347Y-108562647D01*
X156933966Y-108610266D01*
X157029204Y-108657885D01*
X157410157Y-108657885D01*
X156410157Y-109134075D02*
X156410157Y-108467409D01*
X156410157Y-108134075D02*
X156457776Y-108181695D01*
X156410157Y-108229314D01*
X156362538Y-108181695D01*
X156410157Y-108134075D01*
X156410157Y-108229314D01*
X155172062Y-109134075D02*
X155172062Y-108134075D01*
X154838728Y-108848361D01*
X154505395Y-108134075D01*
X154505395Y-109134075D01*
X153886347Y-109134075D02*
X153981585Y-109086456D01*
X154029204Y-109038837D01*
X154076823Y-108943599D01*
X154076823Y-108657885D01*
X154029204Y-108562647D01*
X153981585Y-108515028D01*
X153886347Y-108467409D01*
X153743490Y-108467409D01*
X153648252Y-108515028D01*
X153600633Y-108562647D01*
X153553014Y-108657885D01*
X153553014Y-108943599D01*
X153600633Y-109038837D01*
X153648252Y-109086456D01*
X153743490Y-109134075D01*
X153886347Y-109134075D01*
X153267300Y-108467409D02*
X152886347Y-108467409D01*
X153124442Y-108134075D02*
X153124442Y-108991218D01*
X153076823Y-109086456D01*
X152981585Y-109134075D01*
X152886347Y-109134075D01*
X152553014Y-109134075D02*
X152553014Y-108134075D01*
X152124442Y-109134075D02*
X152124442Y-108610266D01*
X152172062Y-108515028D01*
X152267300Y-108467409D01*
X152410157Y-108467409D01*
X152505395Y-108515028D01*
X152553014Y-108562647D01*
X151267300Y-109086456D02*
X151362538Y-109134075D01*
X151553014Y-109134075D01*
X151648252Y-109086456D01*
X151695871Y-108991218D01*
X151695871Y-108610266D01*
X151648252Y-108515028D01*
X151553014Y-108467409D01*
X151362538Y-108467409D01*
X151267300Y-108515028D01*
X151219681Y-108610266D01*
X151219681Y-108705504D01*
X151695871Y-108800742D01*
X150791109Y-109134075D02*
X150791109Y-108467409D01*
X150791109Y-108657885D02*
X150743490Y-108562647D01*
X150695871Y-108515028D01*
X150600633Y-108467409D01*
X150505395Y-108467409D01*
X150172062Y-109134075D02*
X150172062Y-108134075D01*
X150172062Y-108515028D02*
X150076823Y-108467409D01*
X149886347Y-108467409D01*
X149791109Y-108515028D01*
X149743490Y-108562647D01*
X149695871Y-108657885D01*
X149695871Y-108943599D01*
X149743490Y-109038837D01*
X149791109Y-109086456D01*
X149886347Y-109134075D01*
X150076823Y-109134075D01*
X150172062Y-109086456D01*
X149124442Y-109134075D02*
X149219681Y-109086456D01*
X149267300Y-109038837D01*
X149314919Y-108943599D01*
X149314919Y-108657885D01*
X149267300Y-108562647D01*
X149219681Y-108515028D01*
X149124442Y-108467409D01*
X148981585Y-108467409D01*
X148886347Y-108515028D01*
X148838728Y-108562647D01*
X148791109Y-108657885D01*
X148791109Y-108943599D01*
X148838728Y-109038837D01*
X148886347Y-109086456D01*
X148981585Y-109134075D01*
X149124442Y-109134075D01*
X147933966Y-109134075D02*
X147933966Y-108610266D01*
X147981585Y-108515028D01*
X148076823Y-108467409D01*
X148267300Y-108467409D01*
X148362538Y-108515028D01*
X147933966Y-109086456D02*
X148029204Y-109134075D01*
X148267300Y-109134075D01*
X148362538Y-109086456D01*
X148410157Y-108991218D01*
X148410157Y-108895980D01*
X148362538Y-108800742D01*
X148267300Y-108753123D01*
X148029204Y-108753123D01*
X147933966Y-108705504D01*
X147457776Y-109134075D02*
X147457776Y-108467409D01*
X147457776Y-108657885D02*
X147410157Y-108562647D01*
X147362538Y-108515028D01*
X147267300Y-108467409D01*
X147172062Y-108467409D01*
X146410157Y-109134075D02*
X146410157Y-108134075D01*
X146410157Y-109086456D02*
X146505395Y-109134075D01*
X146695871Y-109134075D01*
X146791109Y-109086456D01*
X146838728Y-109038837D01*
X146886347Y-108943599D01*
X146886347Y-108657885D01*
X146838728Y-108562647D01*
X146791109Y-108515028D01*
X146695871Y-108467409D01*
X146505395Y-108467409D01*
X146410157Y-108515028D01*
X149314919Y-109744075D02*
X148981585Y-110744075D01*
X148648252Y-109744075D01*
X147791109Y-110744075D02*
X148362538Y-110744075D01*
X148076823Y-110744075D02*
X148076823Y-109744075D01*
X148172062Y-109886933D01*
X148267300Y-109982171D01*
X148362538Y-110029790D01*
X147362538Y-110648837D02*
X147314919Y-110696456D01*
X147362538Y-110744075D01*
X147410157Y-110696456D01*
X147362538Y-110648837D01*
X147362538Y-110744075D01*
X146695871Y-109744075D02*
X146600633Y-109744075D01*
X146505395Y-109791695D01*
X146457776Y-109839314D01*
X146410157Y-109934552D01*
X146362538Y-110125028D01*
X146362538Y-110363123D01*
X146410157Y-110553599D01*
X146457776Y-110648837D01*
X146505395Y-110696456D01*
X146600633Y-110744075D01*
X146695871Y-110744075D01*
X146791109Y-110696456D01*
X146838728Y-110648837D01*
X146886347Y-110553599D01*
X146933966Y-110363123D01*
X146933966Y-110125028D01*
X146886347Y-109934552D01*
X146838728Y-109839314D01*
X146791109Y-109791695D01*
X146695871Y-109744075D01*
X153584728Y-112064361D02*
X153108538Y-112064361D01*
X153679966Y-112350075D02*
X153346633Y-111350075D01*
X153013300Y-112350075D01*
X152679966Y-112350075D02*
X152679966Y-111683409D01*
X152679966Y-111873885D02*
X152632347Y-111778647D01*
X152584728Y-111731028D01*
X152489490Y-111683409D01*
X152394252Y-111683409D01*
X151632347Y-112302456D02*
X151727585Y-112350075D01*
X151918062Y-112350075D01*
X152013300Y-112302456D01*
X152060919Y-112254837D01*
X152108538Y-112159599D01*
X152108538Y-111873885D01*
X152060919Y-111778647D01*
X152013300Y-111731028D01*
X151918062Y-111683409D01*
X151727585Y-111683409D01*
X151632347Y-111731028D01*
X151203776Y-112350075D02*
X151203776Y-111350075D01*
X150775204Y-112350075D02*
X150775204Y-111826266D01*
X150822823Y-111731028D01*
X150918062Y-111683409D01*
X151060919Y-111683409D01*
X151156157Y-111731028D01*
X151203776Y-111778647D01*
X150299014Y-112350075D02*
X150299014Y-111683409D01*
X150299014Y-111350075D02*
X150346633Y-111397695D01*
X150299014Y-111445314D01*
X150251395Y-111397695D01*
X150299014Y-111350075D01*
X150299014Y-111445314D01*
X149965681Y-111683409D02*
X149584728Y-111683409D01*
X149822823Y-111350075D02*
X149822823Y-112207218D01*
X149775204Y-112302456D01*
X149679966Y-112350075D01*
X149584728Y-112350075D01*
X148870442Y-112302456D02*
X148965681Y-112350075D01*
X149156157Y-112350075D01*
X149251395Y-112302456D01*
X149299014Y-112207218D01*
X149299014Y-111826266D01*
X149251395Y-111731028D01*
X149156157Y-111683409D01*
X148965681Y-111683409D01*
X148870442Y-111731028D01*
X148822823Y-111826266D01*
X148822823Y-111921504D01*
X149299014Y-112016742D01*
X147965681Y-112302456D02*
X148060919Y-112350075D01*
X148251395Y-112350075D01*
X148346633Y-112302456D01*
X148394252Y-112254837D01*
X148441871Y-112159599D01*
X148441871Y-111873885D01*
X148394252Y-111778647D01*
X148346633Y-111731028D01*
X148251395Y-111683409D01*
X148060919Y-111683409D01*
X147965681Y-111731028D01*
X147679966Y-111683409D02*
X147299014Y-111683409D01*
X147537109Y-111350075D02*
X147537109Y-112207218D01*
X147489490Y-112302456D01*
X147394252Y-112350075D01*
X147299014Y-112350075D01*
X147013300Y-112302456D02*
X146918062Y-112350075D01*
X146727585Y-112350075D01*
X146632347Y-112302456D01*
X146584728Y-112207218D01*
X146584728Y-112159599D01*
X146632347Y-112064361D01*
X146727585Y-112016742D01*
X146870442Y-112016742D01*
X146965681Y-111969123D01*
X147013300Y-111873885D01*
X147013300Y-111826266D01*
X146965681Y-111731028D01*
X146870442Y-111683409D01*
X146727585Y-111683409D01*
X146632347Y-111731028D01*
X146156157Y-112254837D02*
X146108538Y-112302456D01*
X146156157Y-112350075D01*
X146203776Y-112302456D01*
X146156157Y-112254837D01*
X146156157Y-112350075D01*
X146156157Y-111731028D02*
X146108538Y-111778647D01*
X146156157Y-111826266D01*
X146203776Y-111778647D01*
X146156157Y-111731028D01*
X146156157Y-111826266D01*
X156394252Y-113436266D02*
X156060919Y-113436266D01*
X155918062Y-113960075D02*
X156394252Y-113960075D01*
X156394252Y-112960075D01*
X155918062Y-112960075D01*
X155584728Y-113293409D02*
X155346633Y-113960075D01*
X155108538Y-113293409D01*
X154346633Y-113912456D02*
X154441871Y-113960075D01*
X154632347Y-113960075D01*
X154727585Y-113912456D01*
X154775204Y-113817218D01*
X154775204Y-113436266D01*
X154727585Y-113341028D01*
X154632347Y-113293409D01*
X154441871Y-113293409D01*
X154346633Y-113341028D01*
X154299014Y-113436266D01*
X154299014Y-113531504D01*
X154775204Y-113626742D01*
X153727585Y-113960075D02*
X153822823Y-113912456D01*
X153870442Y-113817218D01*
X153870442Y-112960075D01*
X153441871Y-113293409D02*
X153203776Y-113960075D01*
X152965681Y-113293409D02*
X153203776Y-113960075D01*
X153299014Y-114198171D01*
X153346633Y-114245790D01*
X153441871Y-114293409D01*
X152584728Y-113293409D02*
X152584728Y-113960075D01*
X152584728Y-113388647D02*
X152537109Y-113341028D01*
X152441871Y-113293409D01*
X152299014Y-113293409D01*
X152203776Y-113341028D01*
X152156157Y-113436266D01*
X152156157Y-113960075D01*
X150394252Y-113007695D02*
X150489490Y-112960075D01*
X150632347Y-112960075D01*
X150775204Y-113007695D01*
X150870442Y-113102933D01*
X150918062Y-113198171D01*
X150965681Y-113388647D01*
X150965681Y-113531504D01*
X150918062Y-113721980D01*
X150870442Y-113817218D01*
X150775204Y-113912456D01*
X150632347Y-113960075D01*
X150537109Y-113960075D01*
X150394252Y-113912456D01*
X150346633Y-113864837D01*
X150346633Y-113531504D01*
X150537109Y-113531504D01*
X149775204Y-113960075D02*
X149870442Y-113912456D01*
X149918062Y-113864837D01*
X149965681Y-113769599D01*
X149965681Y-113483885D01*
X149918062Y-113388647D01*
X149870442Y-113341028D01*
X149775204Y-113293409D01*
X149632347Y-113293409D01*
X149537109Y-113341028D01*
X149489490Y-113388647D01*
X149441871Y-113483885D01*
X149441871Y-113769599D01*
X149489490Y-113864837D01*
X149537109Y-113912456D01*
X149632347Y-113960075D01*
X149775204Y-113960075D01*
X149013300Y-113960075D02*
X149013300Y-113293409D01*
X149013300Y-113483885D02*
X148965681Y-113388647D01*
X148918062Y-113341028D01*
X148822823Y-113293409D01*
X148727585Y-113293409D01*
X147965681Y-113960075D02*
X147965681Y-112960075D01*
X147965681Y-113912456D02*
X148060919Y-113960075D01*
X148251395Y-113960075D01*
X148346633Y-113912456D01*
X148394252Y-113864837D01*
X148441871Y-113769599D01*
X148441871Y-113483885D01*
X148394252Y-113388647D01*
X148346633Y-113341028D01*
X148251395Y-113293409D01*
X148060919Y-113293409D01*
X147965681Y-113341028D01*
X147346633Y-113960075D02*
X147441871Y-113912456D01*
X147489490Y-113864837D01*
X147537109Y-113769599D01*
X147537109Y-113483885D01*
X147489490Y-113388647D01*
X147441871Y-113341028D01*
X147346633Y-113293409D01*
X147203776Y-113293409D01*
X147108538Y-113341028D01*
X147060919Y-113388647D01*
X147013300Y-113483885D01*
X147013300Y-113769599D01*
X147060919Y-113864837D01*
X147108538Y-113912456D01*
X147203776Y-113960075D01*
X147346633Y-113960075D01*
X146584728Y-113293409D02*
X146584728Y-113960075D01*
X146584728Y-113388647D02*
X146537109Y-113341028D01*
X146441871Y-113293409D01*
X146299014Y-113293409D01*
X146203776Y-113341028D01*
X146156157Y-113436266D01*
X146156157Y-113960075D01*
X157013300Y-114570075D02*
X157013300Y-115284361D01*
X157060919Y-115427218D01*
X157156157Y-115522456D01*
X157299014Y-115570075D01*
X157394252Y-115570075D01*
X156108538Y-115570075D02*
X156108538Y-115046266D01*
X156156157Y-114951028D01*
X156251395Y-114903409D01*
X156441871Y-114903409D01*
X156537109Y-114951028D01*
X156108538Y-115522456D02*
X156203776Y-115570075D01*
X156441871Y-115570075D01*
X156537109Y-115522456D01*
X156584728Y-115427218D01*
X156584728Y-115331980D01*
X156537109Y-115236742D01*
X156441871Y-115189123D01*
X156203776Y-115189123D01*
X156108538Y-115141504D01*
X155632347Y-115570075D02*
X155632347Y-114570075D01*
X155537109Y-115189123D02*
X155251395Y-115570075D01*
X155251395Y-114903409D02*
X155632347Y-115284361D01*
X154441871Y-115522456D02*
X154537109Y-115570075D01*
X154727585Y-115570075D01*
X154822823Y-115522456D01*
X154870442Y-115427218D01*
X154870442Y-115046266D01*
X154822823Y-114951028D01*
X154727585Y-114903409D01*
X154537109Y-114903409D01*
X154441871Y-114951028D01*
X154394252Y-115046266D01*
X154394252Y-115141504D01*
X154870442Y-115236742D01*
X153251395Y-115284361D02*
X152775204Y-115284361D01*
X153346633Y-115570075D02*
X153013300Y-114570075D01*
X152679966Y-115570075D01*
X152346633Y-115570075D02*
X152346633Y-114903409D01*
X152346633Y-115093885D02*
X152299014Y-114998647D01*
X152251395Y-114951028D01*
X152156157Y-114903409D01*
X152060919Y-114903409D01*
X151727585Y-115570075D02*
X151727585Y-114903409D01*
X151727585Y-114998647D02*
X151679966Y-114951028D01*
X151584728Y-114903409D01*
X151441871Y-114903409D01*
X151346633Y-114951028D01*
X151299014Y-115046266D01*
X151299014Y-115570075D01*
X151299014Y-115046266D02*
X151251395Y-114951028D01*
X151156157Y-114903409D01*
X151013300Y-114903409D01*
X150918062Y-114951028D01*
X150870442Y-115046266D01*
X150870442Y-115570075D01*
X150441871Y-115522456D02*
X150346633Y-115570075D01*
X150156157Y-115570075D01*
X150060919Y-115522456D01*
X150013300Y-115427218D01*
X150013300Y-115379599D01*
X150060919Y-115284361D01*
X150156157Y-115236742D01*
X150299014Y-115236742D01*
X150394252Y-115189123D01*
X150441871Y-115093885D01*
X150441871Y-115046266D01*
X150394252Y-114951028D01*
X150299014Y-114903409D01*
X150156157Y-114903409D01*
X150060919Y-114951028D01*
X149727585Y-114903409D02*
X149346633Y-114903409D01*
X149584728Y-114570075D02*
X149584728Y-115427218D01*
X149537109Y-115522456D01*
X149441871Y-115570075D01*
X149346633Y-115570075D01*
X149013300Y-115570075D02*
X149013300Y-114903409D01*
X149013300Y-115093885D02*
X148965681Y-114998647D01*
X148918062Y-114951028D01*
X148822823Y-114903409D01*
X148727585Y-114903409D01*
X148251395Y-115570075D02*
X148346633Y-115522456D01*
X148394252Y-115474837D01*
X148441871Y-115379599D01*
X148441871Y-115093885D01*
X148394252Y-114998647D01*
X148346633Y-114951028D01*
X148251395Y-114903409D01*
X148108538Y-114903409D01*
X148013300Y-114951028D01*
X147965681Y-114998647D01*
X147918062Y-115093885D01*
X147918062Y-115379599D01*
X147965681Y-115474837D01*
X148013300Y-115522456D01*
X148108538Y-115570075D01*
X148251395Y-115570075D01*
X147489490Y-114903409D02*
X147489490Y-115570075D01*
X147489490Y-114998647D02*
X147441871Y-114951028D01*
X147346633Y-114903409D01*
X147203776Y-114903409D01*
X147108538Y-114951028D01*
X147060919Y-115046266D01*
X147060919Y-115570075D01*
X146156157Y-114903409D02*
X146156157Y-115712933D01*
X146203776Y-115808171D01*
X146251395Y-115855790D01*
X146346633Y-115903409D01*
X146489490Y-115903409D01*
X146584728Y-115855790D01*
X146156157Y-115522456D02*
X146251395Y-115570075D01*
X146441871Y-115570075D01*
X146537109Y-115522456D01*
X146584728Y-115474837D01*
X146632347Y-115379599D01*
X146632347Y-115093885D01*
X146584728Y-114998647D01*
X146537109Y-114951028D01*
X146441871Y-114903409D01*
X146251395Y-114903409D01*
X146156157Y-114951028D01*
X165822823Y-117180075D02*
X165822823Y-116180075D01*
X165489490Y-116894361D01*
X165156157Y-116180075D01*
X165156157Y-117180075D01*
X164251395Y-117180075D02*
X164251395Y-116656266D01*
X164299014Y-116561028D01*
X164394252Y-116513409D01*
X164584728Y-116513409D01*
X164679966Y-116561028D01*
X164251395Y-117132456D02*
X164346633Y-117180075D01*
X164584728Y-117180075D01*
X164679966Y-117132456D01*
X164727585Y-117037218D01*
X164727585Y-116941980D01*
X164679966Y-116846742D01*
X164584728Y-116799123D01*
X164346633Y-116799123D01*
X164251395Y-116751504D01*
X163346633Y-117180075D02*
X163346633Y-116180075D01*
X163346633Y-117132456D02*
X163441871Y-117180075D01*
X163632347Y-117180075D01*
X163727585Y-117132456D01*
X163775204Y-117084837D01*
X163822823Y-116989599D01*
X163822823Y-116703885D01*
X163775204Y-116608647D01*
X163727585Y-116561028D01*
X163632347Y-116513409D01*
X163441871Y-116513409D01*
X163346633Y-116561028D01*
X162489490Y-117132456D02*
X162584728Y-117180075D01*
X162775204Y-117180075D01*
X162870442Y-117132456D01*
X162918062Y-117037218D01*
X162918062Y-116656266D01*
X162870442Y-116561028D01*
X162775204Y-116513409D01*
X162584728Y-116513409D01*
X162489490Y-116561028D01*
X162441871Y-116656266D01*
X162441871Y-116751504D01*
X162918062Y-116846742D01*
X161108538Y-117180075D02*
X161203776Y-117132456D01*
X161251395Y-117084837D01*
X161299014Y-116989599D01*
X161299014Y-116703885D01*
X161251395Y-116608647D01*
X161203776Y-116561028D01*
X161108538Y-116513409D01*
X160965681Y-116513409D01*
X160870442Y-116561028D01*
X160822823Y-116608647D01*
X160775204Y-116703885D01*
X160775204Y-116989599D01*
X160822823Y-117084837D01*
X160870442Y-117132456D01*
X160965681Y-117180075D01*
X161108538Y-117180075D01*
X160346633Y-116513409D02*
X160346633Y-117180075D01*
X160346633Y-116608647D02*
X160299014Y-116561028D01*
X160203776Y-116513409D01*
X160060919Y-116513409D01*
X159965681Y-116561028D01*
X159918062Y-116656266D01*
X159918062Y-117180075D01*
X158679966Y-116656266D02*
X158346633Y-116656266D01*
X158203776Y-117180075D02*
X158679966Y-117180075D01*
X158679966Y-116180075D01*
X158203776Y-116180075D01*
X157346633Y-117180075D02*
X157346633Y-116656266D01*
X157394252Y-116561028D01*
X157489490Y-116513409D01*
X157679966Y-116513409D01*
X157775204Y-116561028D01*
X157346633Y-117132456D02*
X157441871Y-117180075D01*
X157679966Y-117180075D01*
X157775204Y-117132456D01*
X157822823Y-117037218D01*
X157822823Y-116941980D01*
X157775204Y-116846742D01*
X157679966Y-116799123D01*
X157441871Y-116799123D01*
X157346633Y-116751504D01*
X156870442Y-117180075D02*
X156870442Y-116513409D01*
X156870442Y-116703885D02*
X156822823Y-116608647D01*
X156775204Y-116561028D01*
X156679966Y-116513409D01*
X156584728Y-116513409D01*
X156394252Y-116513409D02*
X156013300Y-116513409D01*
X156251395Y-116180075D02*
X156251395Y-117037218D01*
X156203776Y-117132456D01*
X156108538Y-117180075D01*
X156013300Y-117180075D01*
X155679966Y-117180075D02*
X155679966Y-116180075D01*
X155251395Y-117180075D02*
X155251395Y-116656266D01*
X155299014Y-116561028D01*
X155394252Y-116513409D01*
X155537109Y-116513409D01*
X155632347Y-116561028D01*
X155679966Y-116608647D01*
X154013300Y-117180075D02*
X154013300Y-116180075D01*
X154013300Y-116561028D02*
X153918062Y-116513409D01*
X153727585Y-116513409D01*
X153632347Y-116561028D01*
X153584728Y-116608647D01*
X153537109Y-116703885D01*
X153537109Y-116989599D01*
X153584728Y-117084837D01*
X153632347Y-117132456D01*
X153727585Y-117180075D01*
X153918062Y-117180075D01*
X154013300Y-117132456D01*
X153203776Y-116513409D02*
X152965681Y-117180075D01*
X152727585Y-116513409D02*
X152965681Y-117180075D01*
X153060919Y-117418171D01*
X153108538Y-117465790D01*
X153203776Y-117513409D01*
X151584728Y-117180075D02*
X151584728Y-116180075D01*
X151584728Y-116656266D02*
X151013300Y-116656266D01*
X151013300Y-117180075D02*
X151013300Y-116180075D01*
X150108538Y-116513409D02*
X150108538Y-117180075D01*
X150537109Y-116513409D02*
X150537109Y-117037218D01*
X150489490Y-117132456D01*
X150394252Y-117180075D01*
X150251395Y-117180075D01*
X150156157Y-117132456D01*
X150108538Y-117084837D01*
X149632347Y-117180075D02*
X149632347Y-116513409D01*
X149632347Y-116608647D02*
X149584728Y-116561028D01*
X149489490Y-116513409D01*
X149346633Y-116513409D01*
X149251395Y-116561028D01*
X149203776Y-116656266D01*
X149203776Y-117180075D01*
X149203776Y-116656266D02*
X149156157Y-116561028D01*
X149060919Y-116513409D01*
X148918062Y-116513409D01*
X148822823Y-116561028D01*
X148775204Y-116656266D01*
X148775204Y-117180075D01*
X147870442Y-117180075D02*
X147870442Y-116656266D01*
X147918062Y-116561028D01*
X148013300Y-116513409D01*
X148203776Y-116513409D01*
X148299014Y-116561028D01*
X147870442Y-117132456D02*
X147965681Y-117180075D01*
X148203776Y-117180075D01*
X148299014Y-117132456D01*
X148346633Y-117037218D01*
X148346633Y-116941980D01*
X148299014Y-116846742D01*
X148203776Y-116799123D01*
X147965681Y-116799123D01*
X147870442Y-116751504D01*
X147394252Y-116513409D02*
X147394252Y-117180075D01*
X147394252Y-116608647D02*
X147346633Y-116561028D01*
X147251395Y-116513409D01*
X147108538Y-116513409D01*
X147013300Y-116561028D01*
X146965681Y-116656266D01*
X146965681Y-117180075D01*
X146537109Y-117132456D02*
X146441871Y-117180075D01*
X146251395Y-117180075D01*
X146156157Y-117132456D01*
X146108538Y-117037218D01*
X146108538Y-116989599D01*
X146156157Y-116894361D01*
X146251395Y-116846742D01*
X146394252Y-116846742D01*
X146489490Y-116799123D01*
X146537109Y-116703885D01*
X146537109Y-116656266D01*
X146489490Y-116561028D01*
X146394252Y-116513409D01*
X146251395Y-116513409D01*
X146156157Y-116561028D01*
M02*
